<?xml version="1.0" standalone="no"?>
<!DOCTYPE svg PUBLIC "-//W3C//DTD SVG 20010904//EN"
 "http://www.w3.org/TR/2001/REC-SVG-20010904/DTD/svg10.dtd">
<svg version="1.0" xmlns="http://www.w3.org/2000/svg"
 width="600.000000pt" height="600.000000pt" viewBox="0 0 600.000000 600.000000"
 preserveAspectRatio="xMidYMid meet">

<g transform="translate(0.000000,600.000000) scale(0.100000,-0.100000)"
fill="#000000" stroke="none">
<path d="M3913 4936 c-30 -26 -31 -24 22 -41 8 -2 15 -16 15 -30 0 -21 -9 -29
-55 -50 -44 -19 -59 -32 -70 -60 -9 -19 -20 -35 -25 -35 -15 0 -50 -61 -50
-87 0 -12 -8 -24 -19 -28 -24 -7 -51 -63 -51 -103 0 -17 -4 -34 -10 -37 -5 -3
-10 -11 -10 -18 0 -29 28 33 33 73 4 34 13 51 36 71 17 14 31 33 31 42 0 28
21 64 46 78 13 7 24 19 24 28 1 27 24 49 73 70 25 11 50 28 55 38 14 26 -3 63
-28 63 -25 0 -26 16 -1 30 33 17 65 11 114 -20 34 -21 49 -38 53 -59 6 -27 9
-29 39 -24 43 7 90 -34 82 -73 -3 -19 0 -24 15 -24 12 0 24 -12 33 -32 9 -20
14 -26 15 -15 0 10 -11 29 -25 43 -14 14 -25 32 -25 40 0 28 -56 74 -89 74
-19 0 -31 5 -31 13 0 18 -60 74 -93 86 -44 17 -73 13 -104 -13z"/>
<path d="M4440 4793 c0 -5 7 -18 15 -29 24 -31 18 -70 -16 -109 -17 -19 -36
-35 -43 -35 -6 0 -22 -9 -36 -20 -31 -25 -40 -25 -40 -2 0 10 -13 31 -30 45
-22 20 -30 23 -30 12 0 -8 6 -15 14 -15 23 0 38 -28 38 -69 -1 -31 3 -39 14
-34 8 3 14 14 14 24 0 12 17 27 49 44 80 40 111 100 81 156 -14 25 -1 25 49 0
21 -11 46 -31 55 -45 15 -23 21 -25 57 -20 33 6 44 3 64 -16 15 -14 25 -35 25
-51 0 -21 5 -28 22 -31 32 -4 48 -43 48 -114 0 -45 4 -65 17 -75 29 -25 44
-76 37 -129 -6 -47 -5 -50 15 -50 26 0 42 35 40 88 -1 36 -2 35 -9 -10 -9 -52
-16 -68 -31 -68 -6 0 -7 19 -3 49 6 49 -2 77 -35 115 -11 12 -16 37 -16 75 0
64 -20 112 -53 126 -13 6 -22 18 -22 33 0 13 -12 35 -26 49 -22 22 -32 25 -66
20 -35 -5 -44 -2 -61 19 -27 35 -137 88 -137 67z"/>
<path d="M3886 4429 c-36 -10 -109 -80 -143 -136 -14 -24 -27 -43 -30 -43 -3
0 -19 11 -35 25 -17 14 -35 24 -40 23 -6 -2 -33 -48 -61 -101 -38 -73 -48
-100 -39 -106 7 -4 10 -14 7 -23 -11 -29 18 -39 64 -23 l41 14 0 -28 c0 -15
-9 -36 -20 -46 -24 -21 -25 -29 -6 -47 8 -9 15 -43 17 -87 l4 -73 -34 -12
c-19 -6 -36 -16 -38 -22 -2 -5 14 -30 36 -55 32 -35 43 -41 53 -31 19 19 95
15 107 -5 8 -15 13 -15 38 -4 15 7 59 15 96 16 64 2 69 1 78 -21 5 -14 16 -27
24 -30 13 -5 13 -9 3 -22 -10 -12 -10 -16 0 -19 6 -3 12 -13 12 -23 0 -24 31
-33 82 -25 l42 7 -39 -36 c-30 -29 -36 -39 -26 -49 9 -9 5 -18 -21 -40 -21
-18 -29 -30 -20 -34 6 -2 12 -13 12 -24 0 -15 -7 -19 -35 -19 -19 0 -35 -4
-35 -10 0 -11 53 -14 63 -3 4 4 58 8 119 9 80 1 115 6 122 16 7 7 25 12 44 10
41 -4 89 17 96 41 2 10 10 17 18 16 26 -5 78 13 78 27 0 8 3 14 8 14 65 3 146
11 154 16 6 4 20 27 31 53 17 39 21 66 21 176 0 125 -1 132 -30 190 -19 37
-42 66 -61 77 l-31 18 -78 -67 c-117 -101 -139 -115 -168 -107 -17 4 -39 -1
-65 -14 -31 -17 -40 -18 -44 -7 -7 17 1 25 28 25 27 0 60 24 51 38 -4 7 -17 8
-36 2 -35 -10 -40 -3 -100 141 -68 161 -228 427 -265 439 -11 4 -33 3 -49 -1z
m244 -668 c0 -5 9 -11 21 -13 17 -3 18 -5 7 -21 -13 -17 -14 -17 -36 3 -12 12
-20 25 -17 31 8 12 25 12 25 0z m274 -82 c-12 -13 -14 -23 -8 -27 6 -4 13 -15
17 -24 5 -13 17 -18 45 -18 36 0 62 -14 62 -32 0 -4 -11 -8 -24 -8 -13 0 -35
-9 -50 -21 -14 -11 -31 -17 -37 -13 -8 4 -9 3 -5 -4 9 -15 -15 -52 -33 -52 -8
0 -22 -7 -31 -15 -17 -16 -36 -19 -88 -17 -39 2 -34 21 6 20 15 0 40 5 56 11
l30 12 -29 15 c-23 12 -35 13 -53 4 -20 -9 -27 -7 -37 6 -6 9 -26 17 -44 18
-22 1 -31 5 -28 16 2 10 12 14 30 12 31 -3 70 15 62 29 -4 5 -22 9 -41 9 -39
0 -48 24 -11 33 152 39 208 59 206 75 -3 20 3 25 12 9 8 -14 7 -23 -7 -38z
m-254 -29 c0 -5 -4 -10 -10 -10 -5 0 -10 5 -10 10 0 6 5 10 10 10 6 0 10 -4
10 -10z m466 -166 c17 -14 17 -15 1 -10 -10 3 -23 6 -28 6 -5 0 -9 5 -9 10 0
14 13 12 36 -6z"/>
<path d="M4905 4399 c-4 -5 -1 -8 6 -7 6 2 34 -24 60 -56 34 -42 50 -71 55
-102 l6 -42 31 13 c22 9 37 10 53 3 27 -13 54 -65 54 -105 0 -18 8 -33 21 -41
21 -14 22 -32 4 -88 -5 -17 -2 -23 18 -28 32 -8 53 -56 37 -85 -9 -18 -7 -27
14 -52 32 -38 32 -53 1 -85 -21 -21 -23 -28 -13 -48 16 -36 2 -72 -36 -99
l-34 -23 44 -46 c51 -54 57 -53 13 3 l-31 39 31 35 c25 29 31 45 31 83 0 26 7
56 15 66 20 27 19 43 -6 77 -15 22 -18 37 -13 64 5 31 2 39 -25 64 -28 26 -31
34 -26 65 5 23 2 44 -8 63 -9 15 -23 49 -33 75 -25 71 -65 96 -115 74 -13 -6
-18 0 -23 27 -7 36 -86 151 -111 161 -8 3 -17 1 -20 -5z"/>
<path d="M3654 4391 c8 -12 -27 -40 -144 -116 -58 -37 -116 -77 -130 -90 -14
-12 -87 -62 -163 -110 -76 -49 -157 -105 -180 -125 -23 -21 -112 -84 -197
-141 -185 -125 -464 -333 -610 -455 -103 -86 -344 -279 -530 -424 -52 -41
-113 -83 -135 -95 -56 -28 -95 -60 -95 -78 0 -9 -5 -19 -10 -22 -6 -4 -8 -10
-5 -15 3 -4 -3 -6 -13 -3 -32 8 -122 -52 -122 -82 0 -9 -27 -47 -60 -83 -33
-37 -60 -71 -60 -75 0 -5 22 18 50 51 27 33 60 67 74 75 22 15 24 15 29 -3 4
-14 14 -20 35 -20 50 0 92 12 92 26 0 10 13 14 45 14 33 0 45 -4 45 -15 0 -11
11 -15 43 -15 56 0 87 9 87 26 0 8 6 14 13 15 6 0 28 1 47 2 25 2 36 7 38 21
3 16 -1 18 -30 14 -29 -3 -37 1 -56 30 l-22 33 26 11 c34 16 24 33 -20 32 -24
-1 -36 3 -36 13 0 7 -14 22 -31 32 l-31 19 88 69 c48 37 108 85 133 106 25 20
51 37 58 37 7 0 13 4 13 9 0 5 51 49 113 98 61 49 159 129 217 177 147 123
466 362 634 473 78 52 155 107 171 123 17 15 109 80 205 144 408 271 440 294
440 312 0 8 -5 14 -11 14 -5 0 -8 -4 -5 -9z m-1974 -1662 c0 -5 -9 -9 -20 -9
-19 0 -26 11 -14 23 8 8 34 -3 34 -14z m-169 -29 c5 0 9 -8 10 -17 0 -11 3
-13 6 -5 6 16 23 15 23 -2 0 -26 -37 -25 -49 0 -6 13 -15 24 -21 24 -14 0 -12
27 3 33 6 2 13 -4 15 -15 2 -10 8 -18 13 -18z m84 -10 c-3 -5 -14 -10 -23 -10
-15 0 -15 2 -2 10 20 13 33 13 25 0z"/>
<path d="M3499 3947 c-13 -7 -24 -21 -24 -32 0 -35 -43 -29 -137 21 -38 20
-64 17 -119 -13 -48 -27 -60 -45 -39 -58 6 -4 9 -14 8 -23 -2 -12 7 -20 30
-27 22 -6 31 -14 27 -25 -4 -12 5 -15 45 -15 27 0 55 6 61 13 7 6 23 12 35 12
12 0 27 7 34 15 9 10 9 15 1 15 -6 0 -11 5 -11 10 0 6 7 10 15 10 8 0 15 -7
15 -15 0 -14 37 -35 61 -35 18 0 9 17 -17 30 -22 12 -24 16 -10 26 9 6 16 18
16 26 0 10 14 18 39 22 51 8 57 18 22 39 -22 13 -31 14 -52 4z"/>
<path d="M3140 3910 c0 -5 5 -10 10 -10 6 0 10 5 10 10 0 6 -4 10 -10 10 -5 0
-10 -4 -10 -10z"/>
<path d="M3055 3855 c-18 -14 -18 -16 -3 -32 14 -14 21 -14 47 -4 16 7 35 10
40 6 15 -9 14 10 -2 23 -23 19 -61 22 -82 7z"/>
<path d="M3075 3786 c-12 -8 -32 -12 -50 -9 -33 5 -63 -17 -50 -37 7 -12 122
-3 140 10 6 4 19 10 30 12 17 3 16 6 -12 21 -38 20 -35 20 -58 3z"/>
<path d="M2872 3758 c-14 -14 -16 -35 -3 -43 10 -6 91 16 91 25 0 7 -51 30
-65 30 -6 0 -16 -5 -23 -12z"/>
<path d="M3365 3706 c-24 -20 -28 -27 -17 -37 9 -10 21 -11 51 -3 32 9 38 8
37 -3 -1 -8 -7 -18 -12 -21 -6 -4 -10 -16 -10 -27 0 -17 5 -20 28 -17 16 2 31
8 34 13 3 5 14 9 24 9 12 0 17 5 14 14 -3 8 4 16 18 20 20 5 12 11 -50 41 -41
19 -77 35 -80 35 -4 0 -20 -11 -37 -24z"/>
<path d="M3135 3696 c-24 -17 -13 -46 18 -46 13 0 27 3 31 8 4 4 13 7 19 7 22
0 16 20 -10 33 -34 15 -35 15 -58 -2z"/>
<path d="M3266 3695 c4 -8 10 -15 14 -15 4 0 10 7 14 15 4 10 -1 15 -14 15
-13 0 -18 -5 -14 -15z"/>
<path d="M3194 3645 c-14 -9 -48 -12 -133 -9 -116 4 -145 -3 -134 -32 3 -8 0
-14 -7 -14 -7 0 -27 -12 -45 -27 -51 -44 -78 -63 -87 -63 -4 0 -8 -11 -8 -25
0 -18 5 -25 19 -25 25 0 30 -9 24 -43 -4 -20 -11 -27 -29 -27 -13 0 -24 -4
-24 -10 0 -5 13 -10 29 -10 39 0 48 -17 23 -43 -18 -17 -25 -19 -44 -10 -35
17 -78 25 -78 14 0 -5 4 -21 10 -35 10 -27 46 -36 66 -17 5 6 48 11 95 13 48
2 85 6 82 11 -9 15 50 27 110 22 42 -4 76 -1 105 9 40 14 43 14 48 -2 11 -36
22 -47 55 -59 47 -17 110 -16 152 2 20 8 51 15 69 15 46 0 62 12 53 40 -5 15
-4 20 4 16 15 -10 51 16 51 36 0 23 5 23 42 -4 28 -19 35 -20 72 -9 23 7 49
13 59 14 22 2 33 42 17 62 -18 21 -123 14 -150 -10 -19 -18 -20 -18 -20 3 0
11 -4 24 -10 27 -5 3 -10 16 -10 29 0 26 -28 56 -52 56 -9 0 -21 7 -29 16 -10
12 -27 15 -73 12 -34 -2 -69 -8 -79 -12 -13 -6 -16 -5 -11 7 3 10 -2 18 -16
22 -15 5 -20 13 -17 25 8 33 -94 61 -129 35z"/>
<path d="M3603 3643 c-7 -2 -13 -11 -13 -19 0 -15 38 -6 40 11 2 11 -10 15
-27 8z"/>
<path d="M3350 3625 c0 -8 2 -15 4 -15 2 0 6 7 10 15 3 8 1 15 -4 15 -6 0 -10
-7 -10 -15z"/>
<path d="M2703 3623 c-19 -7 -16 -43 3 -50 9 -3 25 -1 35 5 10 7 26 12 34 12
8 0 15 5 15 10 0 6 -7 10 -15 10 -8 0 -15 5 -15 10 0 10 -35 12 -57 3z"/>
<path d="M3673 3603 c-22 -4 -34 -33 -14 -33 17 0 61 27 54 33 -3 4 -9 6 -12
6 -3 -1 -16 -4 -28 -6z"/>
<path d="M3810 3571 c0 -10 51 -22 63 -14 4 2 5 9 2 14 -8 12 -65 12 -65 0z"/>
<path d="M5038 3543 c18 -2 45 -2 60 0 15 2 0 4 -33 4 -33 0 -45 -2 -27 -4z"/>
<path d="M3792 3488 c2 -13 10 -24 19 -26 21 -4 34 28 17 40 -24 15 -39 9 -36
-14z"/>
<path d="M3948 3488 c12 -6 22 -15 22 -20 0 -4 7 -8 15 -8 8 0 15 4 15 10 0
12 -34 30 -57 29 -15 0 -14 -2 5 -11z"/>
<path d="M3890 3470 c0 -5 5 -10 10 -10 6 0 10 5 10 10 0 6 -4 10 -10 10 -5 0
-10 -4 -10 -10z"/>
<path d="M2556 3439 c-19 -32 -16 -59 7 -59 8 0 31 7 52 16 l38 15 -29 15
c-16 8 -34 21 -40 29 -8 11 -14 8 -28 -16z"/>
<path d="M3931 3461 c-7 -5 -12 -14 -10 -20 3 -6 9 -7 18 -2 7 5 12 14 10 20
-3 6 -9 7 -18 2z"/>
<path d="M4020 3451 c0 -11 26 -22 34 -14 3 3 3 10 0 14 -7 12 -34 11 -34 0z"/>
<path d="M5272 3371 c-3 -136 -25 -190 -89 -216 l-33 -14 2 -88 2 -88 3 85 4
86 42 19 c37 18 44 27 60 75 13 40 17 79 14 140 l-3 85 -2 -84z"/>
<path d="M2440 3431 c0 -10 40 -19 58 -13 7 2 10 8 6 13 -7 12 -64 12 -64 0z"/>
<path d="M3812 3418 c6 -18 28 -21 28 -4 0 9 -7 16 -16 16 -9 0 -14 -5 -12
-12z"/>
<path d="M3975 3419 c-4 -6 -5 -13 -2 -16 7 -7 27 6 27 18 0 12 -17 12 -25 -2z"/>
<path d="M2445 3320 c-3 -5 3 -10 14 -10 12 0 21 5 21 10 0 6 -6 10 -14 10 -8
0 -18 -4 -21 -10z"/>
<path d="M3582 3313 c-6 -2 -10 -9 -7 -13 7 -11 35 -2 35 11 0 10 -8 10 -28 2z"/>
<path d="M2395 3301 c-3 -6 1 -14 9 -17 25 -10 6 -26 -23 -20 -14 3 -20 3 -13
0 22 -10 -31 -32 -64 -27 -19 3 -35 -1 -43 -11 -7 -8 -18 -13 -26 -10 -7 3
-30 -3 -51 -12 -22 -10 -54 -18 -73 -19 -39 0 -66 -29 -41 -45 8 -5 24 -7 36
-4 17 4 22 0 26 -20 3 -16 1 -26 -6 -26 -7 0 -21 -6 -32 -14 -17 -14 -18 -16
-3 -31 15 -15 20 -15 60 -2 33 11 46 12 51 4 5 -8 8 -8 8 -1 0 6 18 17 41 24
26 9 44 22 50 37 8 23 35 30 97 24 15 -1 21 2 17 9 -3 6 -10 8 -15 5 -4 -3 -6
5 -3 16 6 20 3 21 -29 15 -28 -5 -37 -3 -42 9 -3 9 -2 13 3 10 5 -3 16 3 23
12 17 24 62 43 98 43 17 0 30 5 30 10 0 6 -9 10 -20 10 -13 0 -18 5 -14 15 4
8 2 15 -4 15 -6 0 -17 3 -25 6 -8 3 -18 1 -22 -5z"/>
<path d="M3695 3281 c-6 -11 9 -23 19 -14 9 9 7 23 -3 23 -6 0 -12 -4 -16 -9z"/>
<path d="M4027 3276 c-19 -15 -13 -46 9 -46 8 0 11 -6 8 -15 -7 -16 -3 -18 20
-9 13 5 12 9 -5 27 -17 19 -18 23 -5 33 9 6 13 14 9 17 -9 10 -15 8 -36 -7z"/>
<path d="M2215 3271 c-7 -12 12 -24 25 -16 11 7 4 25 -10 25 -5 0 -11 -4 -15
-9z"/>
<path d="M2996 3272 c-3 -6 -1 -14 5 -17 15 -10 25 3 12 16 -7 7 -13 7 -17 1z"/>
<path d="M3559 3257 c-29 -15 -32 -41 -3 -45 27 -4 84 19 64 25 -8 3 -20 11
-26 19 -8 10 -15 10 -35 1z"/>
<path d="M2516 3221 c-6 -10 33 -20 52 -13 7 2 12 8 12 13 0 12 -57 12 -64 0z"/>
<path d="M3120 3210 c-8 -5 -25 -10 -36 -10 -29 0 -50 -26 -35 -43 6 -8 8 -17
4 -20 -3 -4 -1 -7 5 -7 7 0 12 4 12 8 0 5 29 17 65 27 36 11 65 21 65 24 0 6
-49 31 -59 31 -4 0 -13 -5 -21 -10z"/>
<path d="M3272 3200 c0 -14 2 -19 5 -12 2 6 2 18 0 25 -3 6 -5 1 -5 -13z"/>
<path d="M2767 3193 c-12 -11 -8 -43 6 -49 7 -2 30 2 50 11 33 14 36 17 23 30
-15 15 -67 21 -79 8z"/>
<path d="M2893 3179 c-6 -6 -9 -18 -6 -25 6 -16 49 -19 58 -4 4 6 10 8 15 5 5
-3 11 -1 15 4 14 23 -61 41 -82 20z"/>
<path d="M2473 3167 c-24 -11 -30 -31 -13 -42 18 -11 90 6 90 21 0 8 -3 13 -7
12 -5 -1 -17 3 -28 9 -14 7 -27 7 -42 0z"/>
<path d="M3348 3155 c3 -11 9 -23 15 -26 10 -7 77 11 77 21 0 12 -45 29 -71
27 -20 -2 -25 -6 -21 -22z"/>
<path d="M3010 3135 c-11 -13 -10 -14 4 -9 9 3 16 10 16 15 0 13 -6 11 -20 -6z"/>
<path d="M3700 3121 c0 -10 25 -21 48 -21 15 1 14 3 -2 15 -22 17 -46 20 -46
6z"/>
<path d="M2663 3108 c-4 -7 -25 -24 -45 -38 -27 -18 -36 -30 -32 -42 3 -10 1
-18 -5 -18 -6 0 -11 5 -11 10 0 6 -8 10 -17 10 -15 0 -16 2 -3 10 13 8 13 11
-1 25 -20 20 -52 9 -44 -15 7 -22 -10 -36 -18 -16 -10 24 -63 29 -98 9 -62
-35 -88 -66 -82 -96 3 -15 9 -30 14 -32 4 -3 6 -13 3 -23 -4 -10 -3 -13 3 -6
4 6 30 15 58 19 27 4 60 15 73 26 14 10 28 16 33 13 17 -10 50 8 60 33 9 25
10 25 24 7 8 -10 15 -25 15 -31 0 -31 108 -7 139 31 8 9 19 16 26 16 7 0 28 7
48 15 29 12 34 18 29 37 -3 12 -7 17 -10 10 -7 -21 -60 -15 -67 8 -3 11 -18
23 -33 26 -15 4 -32 11 -39 16 -7 6 -14 4 -20 -4z"/>
<path d="M3106 3107 c-23 -17 -15 -47 12 -47 21 0 72 22 72 31 0 4 -8 9 -17
12 -10 2 -25 8 -33 11 -9 4 -24 0 -34 -7z"/>
<path d="M3338 3083 c7 -3 16 -2 19 1 4 3 -2 6 -13 5 -11 0 -14 -3 -6 -6z"/>
<path d="M4720 3043 c-41 -8 -154 -37 -250 -64 -96 -26 -199 -54 -229 -62
-100 -24 -74 -46 58 -52 64 -2 83 -7 100 -24 12 -12 34 -21 50 -21 35 0 48
-15 31 -35 -10 -12 -9 -23 5 -51 l17 -37 56 6 c34 4 61 12 68 22 6 8 23 15 37
15 38 0 57 10 57 31 0 21 3 21 124 23 59 1 71 4 83 23 11 17 22 21 41 17 31
-6 69 17 58 34 -4 7 -20 12 -36 12 -18 0 -39 10 -54 25 -29 29 -57 27 -115 -8
-35 -21 -35 -21 -61 25 -7 11 -6 18 2 20 9 3 9 6 0 12 -7 4 -12 2 -12 -3 0 -6
-7 -11 -15 -11 -25 0 -17 27 10 34 15 4 25 13 25 25 0 13 6 17 23 14 26 -5 63
19 53 35 -9 14 -29 14 -126 -5z"/>
<path d="M5020 3040 c0 -5 11 -10 24 -10 14 0 28 5 31 10 4 6 -7 10 -24 10
-17 0 -31 -4 -31 -10z"/>
<path d="M1936 3031 c-6 -10 16 -21 41 -21 13 0 13 2 -1 15 -17 17 -32 19 -40
6z"/>
<path d="M4930 3010 c0 -11 7 -20 15 -20 8 0 15 9 15 20 0 11 -7 20 -15 20 -8
0 -15 -9 -15 -20z"/>
<path d="M5143 2890 c0 -41 2 -58 4 -37 2 20 2 54 0 75 -2 20 -4 3 -4 -38z"/>
<path d="M2030 2910 c0 -5 7 -10 15 -10 8 0 15 5 15 10 0 6 -7 10 -15 10 -8 0
-15 -4 -15 -10z"/>
<path d="M2087 2878 c-29 -23 -6 -41 42 -33 46 8 49 12 24 31 -23 17 -45 17
-66 2z"/>
<path d="M1705 2810 c3 -5 8 -10 11 -10 2 0 4 5 4 10 0 6 -5 10 -11 10 -5 0
-7 -4 -4 -10z"/>
<path d="M2187 2800 c-9 -6 -22 -8 -29 -4 -6 4 -8 3 -4 -4 3 -6 -3 -17 -15
-26 -14 -9 -18 -19 -13 -28 5 -7 9 -19 10 -26 3 -17 1 -16 47 -29 21 -6 37 -7
37 -2 0 5 7 9 15 9 8 0 19 9 25 21 9 16 18 19 36 15 26 -7 64 8 64 24 0 6 -16
10 -36 10 -31 0 -36 3 -31 19 3 13 0 20 -12 20 -9 0 -29 3 -46 6 -16 3 -38 0
-48 -5z"/>
<path d="M3902 2792 c-7 -2 -12 -8 -12 -13 0 -12 57 -12 64 0 6 10 -33 20 -52
13z"/>
<path d="M5131 2730 c-1 -41 -6 -94 -9 -117 l-7 -43 -25 18 c-14 9 -25 24 -25
32 0 9 -11 16 -30 18 -16 2 -39 15 -52 28 -29 32 -69 31 -122 -3 -38 -25 -42
-31 -37 -58 8 -40 33 -58 73 -51 32 5 33 5 17 -20 -9 -13 -19 -24 -23 -24 -3
0 -19 -10 -34 -23 -27 -21 -28 -23 -12 -54 19 -39 36 -46 93 -37 32 5 46 12
50 26 3 14 11 18 26 14 29 -8 66 4 66 21 0 8 7 21 15 29 13 14 15 10 15 -33
-1 -88 -28 -280 -45 -312 -20 -39 -20 -39 -230 -91 -93 -23 -237 -60 -320 -81
-167 -43 -175 -44 -175 -26 0 19 -63 39 -91 29 -15 -6 -33 -5 -46 1 -17 7 -28
6 -47 -6 -27 -18 -43 -8 -38 24 5 30 -81 52 -106 27 -9 -9 -15 -9 -24 0 -18
18 -43 15 -63 -8 -14 -15 -22 -17 -37 -9 -24 13 -73 -15 -64 -37 4 -11 2 -12
-12 -5 -28 15 -68 -9 -64 -38 1 -13 -2 -29 -8 -36 -18 -22 0 -44 38 -47 46 -4
52 -24 10 -31 -18 -3 -309 -60 -646 -126 -337 -67 -614 -121 -617 -121 -2 0
-2 6 0 13 5 12 -37 37 -64 37 -10 1 -7 6 9 15 14 8 33 12 43 9 11 -3 17 0 17
10 0 8 20 24 45 35 25 11 45 25 45 30 0 6 7 11 15 11 23 0 65 22 65 34 0 7
-13 16 -29 22 -21 9 -34 8 -55 -3 -14 -7 -26 -17 -26 -21 0 -4 -22 -5 -50 -4
-44 4 -52 1 -77 -26 -15 -16 -38 -35 -50 -41 -13 -6 -23 -18 -23 -26 0 -8 -4
-15 -10 -15 -9 0 -24 -15 -96 -98 -29 -34 -31 -34 -309 -88 -297 -57 -315 -60
-315 -44 0 6 -14 10 -31 10 -20 0 -37 8 -49 22 -25 32 -78 29 -129 -6 -38 -27
-54 -56 -31 -56 6 0 10 -6 10 -14 0 -10 -17 -15 -60 -18 -33 -1 -60 0 -60 4 0
4 -9 5 -21 3 -28 -6 -63 32 -66 70 -3 51 -11 93 -18 105 -4 7 -1 17 6 22 11 7
9 8 -5 4 -14 -5 -16 -3 -9 6 15 20 22 57 12 64 -5 3 -2 12 6 21 11 10 14 25 9
49 -4 21 -2 34 4 34 10 0 9 40 -5 200 -3 41 -5 83 -4 92 1 10 -5 28 -13 39
-11 16 -12 27 -5 41 6 10 6 18 1 18 -6 0 -8 19 -6 43 7 86 11 171 7 137 -2
-19 -9 -41 -16 -48 -14 -18 -13 -167 1 -185 11 -13 14 -31 12 -77 -1 -8 3 -35
9 -60 11 -56 8 -183 -7 -230 -6 -19 -10 -46 -8 -60 1 -14 -2 -31 -7 -37 -5 -7
-6 -27 -3 -45 7 -38 16 -102 19 -138 1 -14 8 -35 15 -47 10 -19 10 -28 -3 -54
-12 -23 -15 -44 -9 -86 12 -101 51 -115 254 -90 166 21 164 21 156 1 -4 -9 1
-28 10 -41 13 -21 22 -24 52 -21 25 3 41 0 48 -10 14 -19 44 -9 44 14 0 9 -9
18 -20 21 -12 3 -19 11 -17 17 2 6 0 21 -4 33 -10 27 -42 19 306 84 149 27
407 79 574 114 277 59 305 63 316 48 13 -17 35 -10 35 12 0 17 -11 14 265 75
1045 232 1799 411 1825 435 24 21 40 96 40 183 0 37 5 96 10 132 15 109 42
473 37 520 -2 33 -4 25 -6 -30z m-1121 -876 c-30 -8 -64 -13 -75 -11 -11 2 5
8 35 14 79 15 105 13 40 -3z"/>
<path d="M1758 2763 c7 -3 16 -2 19 1 4 3 -2 6 -13 5 -11 0 -14 -3 -6 -6z"/>
<path d="M4150 2718 c0 -18 20 -38 38 -38 19 0 10 20 -16 38 -19 12 -22 12
-22 0z"/>
<path d="M3563 2675 c-3 -9 -3 -18 0 -21 9 -9 48 16 42 27 -9 14 -35 11 -42
-6z"/>
<path d="M4350 2662 c0 -5 11 -14 25 -20 29 -14 44 2 16 17 -24 13 -41 14 -41
3z"/>
<path d="M3717 2597 c-22 -9 -27 -16 -23 -34 4 -12 2 -25 -4 -28 -5 -3 -10
-17 -10 -30 0 -16 -11 -29 -36 -44 -47 -28 -64 -27 -64 5 0 24 -3 26 -32 20
-75 -15 -109 -28 -157 -61 -28 -19 -61 -35 -73 -35 -13 0 -30 -4 -38 -10 -12
-7 -12 -12 4 -29 10 -11 15 -24 12 -30 -3 -5 1 -17 11 -26 13 -14 27 -16 67
-10 58 7 66 11 66 31 0 17 16 19 26 3 11 -19 117 -4 132 19 14 22 72 19 72 -4
0 -8 5 -14 11 -14 6 0 9 6 6 14 -4 10 5 16 29 20 19 4 34 13 34 20 0 9 12 14
35 13 40 -1 61 14 51 38 -4 12 -15 16 -35 13 -23 -3 -32 1 -40 19 -10 21 -8
24 19 30 17 3 30 12 30 19 0 9 12 14 38 14 20 0 43 4 51 9 23 15 5 41 -29 41
-17 0 -39 9 -50 20 -22 22 -59 24 -103 7z m-367 -237 c0 -5 -2 -10 -4 -10 -3
0 -8 5 -11 10 -3 6 -1 10 4 10 6 0 11 -4 11 -10z"/>
<path d="M2625 2560 c3 -5 8 -10 11 -10 2 0 4 5 4 10 0 6 -5 10 -11 10 -5 0
-7 -4 -4 -10z"/>
<path d="M4037 2490 c-26 -16 -47 -34 -47 -40 0 -13 22 -53 35 -63 16 -13 109
2 122 20 7 8 28 17 48 18 41 2 50 8 42 30 -4 9 -19 15 -36 15 -17 0 -34 6 -38
14 -9 16 -46 36 -65 36 -8 0 -35 -13 -61 -30z"/>
<path d="M4742 2489 c2 -6 8 -10 13 -10 5 0 11 4 13 10 2 6 -4 11 -13 11 -9 0
-15 -5 -13 -11z"/>
<path d="M4510 2466 c0 -10 9 -16 21 -16 24 0 21 23 -4 28 -10 2 -17 -3 -17
-12z"/>
<path d="M1193 2410 c0 -30 2 -43 4 -27 2 15 2 39 0 55 -2 15 -4 2 -4 -28z"/>
<path d="M1817 2424 c3 -7 11 -10 19 -7 20 8 17 22 -5 20 -10 0 -17 -7 -14
-13z"/>
<path d="M5060 2409 c0 -5 5 -7 10 -4 6 3 10 8 10 11 0 2 -4 4 -10 4 -5 0 -10
-5 -10 -11z"/>
<path d="M3783 2349 c-34 -24 -41 -33 -34 -47 5 -9 12 -25 15 -34 9 -31 136
-25 136 6 0 9 12 13 40 12 48 -1 69 16 50 39 -7 9 -23 15 -34 13 -12 -1 -31 7
-44 20 -31 31 -77 28 -129 -9z"/>
<path d="M4380 2369 c0 -5 5 -7 10 -4 6 3 10 8 10 11 0 2 -4 4 -10 4 -5 0 -10
-5 -10 -11z"/>
<path d="M1890 2299 c-65 -18 -67 -19 -50 -29 20 -11 90 11 90 27 0 7 -1 13
-2 12 -2 0 -19 -5 -38 -10z"/>
<path d="M4802 2283 c-23 -15 -42 -33 -42 -40 0 -8 -9 -11 -29 -7 -31 6 -72
-11 -108 -45 -22 -21 -22 -22 -4 -54 17 -30 21 -32 72 -30 38 1 56 6 66 19 9
13 23 18 43 16 19 -2 36 4 49 17 12 12 28 21 36 21 8 0 19 9 25 20 8 14 17 18
38 14 31 -6 69 17 58 34 -4 7 -19 12 -33 12 -15 0 -36 11 -49 25 -30 33 -69
32 -122 -2z"/>
<path d="M4430 2280 c0 -5 5 -10 11 -10 5 0 7 5 4 10 -3 6 -8 10 -11 10 -2 0
-4 -4 -4 -10z"/>
<path d="M2198 2236 c-10 -7 -18 -18 -18 -25 0 -6 8 -11 18 -11 21 1 52 23 52
39 0 15 -31 13 -52 -3z"/>
<path d="M2874 2234 c3 -9 6 -18 6 -20 0 -2 7 -4 16 -4 11 0 14 5 10 16 -3 9
-6 18 -6 20 0 2 -7 4 -16 4 -11 0 -14 -5 -10 -16z"/>
<path d="M4437 2204 c-14 -15 -6 -34 14 -34 14 0 19 5 17 17 -3 18 -20 27 -31
17z"/>
<path d="M2405 2170 c-7 -11 2 -30 13 -30 4 0 14 5 22 10 13 9 13 11 0 20 -19
12 -27 12 -35 0z"/>
<path d="M5222 2108 c-16 -16 -15 -55 2 -61 15 -6 36 11 36 28 0 6 -6 19 -13
28 -10 14 -15 15 -25 5z"/>
<path d="M2750 2090 c0 -5 9 -10 20 -10 11 0 20 5 20 10 0 6 -9 10 -20 10 -11
0 -20 -4 -20 -10z"/>
<path d="M2005 2070 c-4 -7 -3 -16 2 -21 12 -12 55 1 50 15 -5 15 -44 20 -52
6z"/>
<path d="M3198 2041 c-14 -12 -33 -18 -45 -15 -13 4 -28 -3 -43 -19 -13 -14
-30 -23 -37 -20 -7 3 -39 -7 -71 -22 -31 -15 -68 -33 -82 -40 -15 -7 -24 -18
-22 -28 3 -20 -9 -22 -26 -5 -15 15 -62 -5 -62 -26 0 -10 -6 -13 -15 -10 -22
9 -66 -23 -58 -42 8 -20 82 -13 98 10 6 8 23 18 38 21 15 4 33 19 40 34 8 18
26 30 57 39 25 7 66 23 92 34 38 17 52 19 77 10 34 -12 161 -6 202 9 21 8 58
57 47 63 -48 26 -60 28 -80 19 -13 -6 -32 -7 -43 -2 -31 12 -40 10 -67 -10z"/>
<path d="M5106 2021 c-22 -25 -17 -53 12 -66 12 -5 22 -15 22 -22 0 -18 20
-27 32 -15 8 8 8 15 0 24 -9 11 -5 14 16 13 22 0 27 4 27 25 0 16 -6 26 -19
28 -11 2 -26 10 -34 18 -19 19 -36 18 -56 -5z"/>
<path d="M2550 1920 c0 -5 5 -10 10 -10 6 0 10 5 10 10 0 6 -4 10 -10 10 -5 0
-10 -4 -10 -10z"/>
<path d="M5097 1924 c-14 -14 -7 -35 11 -32 9 2 17 10 17 17 0 16 -18 25 -28
15z"/>
<path d="M5045 1900 c-8 -14 3 -30 21 -30 8 0 14 9 14 20 0 21 -24 28 -35 10z"/>
<path d="M5154 1889 c-8 -14 18 -31 30 -19 9 9 0 30 -14 30 -5 0 -12 -5 -16
-11z"/>
<path d="M870 1875 c-10 -11 -10 -19 -2 -27 15 -15 44 -2 40 19 -4 23 -22 27
-38 8z"/>
<path d="M1097 1853 c-14 -13 -7 -33 11 -33 26 0 34 11 21 27 -13 14 -22 16
-32 6z"/>
<path d="M2470 1840 c0 -5 5 -10 10 -10 6 0 10 5 10 10 0 6 -4 10 -10 10 -5 0
-10 -4 -10 -10z"/>
<path d="M972 1798 c-16 -16 -15 -45 1 -52 10 -5 10 -7 0 -12 -16 -7 -17 -30
-3 -39 6 -4 17 -1 26 5 11 10 12 16 3 27 -10 11 -8 17 10 29 21 15 21 17 5 35
-20 22 -26 23 -42 7z"/>
<path d="M833 1734 c-6 -17 6 -45 23 -51 5 -2 19 3 29 11 16 12 18 18 9 33
-15 24 -52 29 -61 7z"/>
<path d="M1687 1634 c-8 -8 10 -44 22 -44 5 0 11 11 13 25 4 19 1 25 -12 25
-9 0 -20 -3 -23 -6z"/>
<path d="M694 1575 c-4 -9 -2 -21 4 -27 15 -15 44 -1 40 19 -4 23 -36 29 -44
8z"/>
<path d="M3554 1416 c-3 -9 -1 -23 6 -31 6 -8 9 -19 5 -25 -12 -20 6 -51 28
-48 26 4 35 37 15 52 -9 6 -15 22 -14 36 1 28 -30 41 -40 16z"/>
<path d="M3247 1374 c-14 -14 -7 -35 11 -32 9 2 17 10 17 17 0 16 -18 25 -28
15z"/>
<path d="M3393 1370 c-14 -6 -23 -18 -23 -30 0 -18 5 -21 33 -18 26 2 32 7 32
27 0 28 -11 33 -42 21z"/>
<path d="M1046 1351 c-10 -16 5 -41 25 -41 21 0 25 20 7 38 -14 14 -25 15 -32
3z"/>
<path d="M2935 1321 c-8 -15 3 -31 21 -31 9 0 14 7 12 17 -4 20 -24 28 -33 14z"/>
<path d="M2707 1293 c-12 -11 -8 -23 8 -23 8 0 15 7 15 15 0 16 -12 20 -23 8z"/>
<path d="M3430 1274 c-18 -20 6 -50 26 -33 8 6 14 17 14 24 0 19 -27 26 -40 9z"/>
<path d="M2121 1200 c-16 -9 -6 -30 15 -30 15 0 20 25 6 34 -4 2 -14 1 -21 -4z"/>
<path d="M3307 1184 c-9 -10 2 -24 19 -24 8 0 14 7 14 15 0 15 -21 21 -33 9z"/>
<path d="M1763 1164 c-7 -19 2 -28 22 -21 19 8 19 23 0 31 -9 3 -18 -1 -22
-10z"/>
</g>
</svg>
