<?xml version="1.0" standalone="no"?>
<!DOCTYPE svg PUBLIC "-//W3C//DTD SVG 20010904//EN"
 "http://www.w3.org/TR/2001/REC-SVG-20010904/DTD/svg10.dtd">
<svg version="1.0" xmlns="http://www.w3.org/2000/svg"
 width="1200.000000pt" height="600.000000pt" viewBox="0 0 1200.000000 600.000000"
 preserveAspectRatio="xMidYMid meet">

<g transform="translate(0.000000,600.000000) scale(0.100000,-0.100000)"
fill="#000000" stroke="none">
<path d="M5770 5125 c-8 -2 -51 -9 -95 -16 -103 -15 -331 -72 -376 -92 -18 -9
-56 -24 -84 -33 -55 -18 -112 -41 -135 -55 -8 -4 -33 -17 -55 -27 -22 -10 -70
-38 -108 -60 -37 -23 -69 -42 -72 -42 -9 0 -161 -112 -220 -163 -151 -129
-264 -249 -353 -375 -19 -26 -49 -68 -68 -95 -49 -68 -44 -127 11 -127 25 0
44 20 109 117 27 39 59 82 72 94 13 12 24 27 24 34 0 14 228 240 300 297 106
85 255 180 350 224 30 14 71 34 90 44 19 10 58 26 85 35 28 9 64 23 80 30 71
31 196 60 385 91 145 24 419 24 560 0 190 -31 330 -64 370 -85 9 -5 30 -12 48
-15 17 -4 34 -12 37 -17 4 -5 12 -9 20 -9 22 0 243 -109 318 -157 74 -47 96
-52 120 -25 30 33 21 58 -37 96 -30 20 -57 36 -61 36 -3 0 -21 10 -38 23 -18
13 -52 32 -77 42 -25 10 -52 24 -60 30 -8 7 -31 18 -50 25 -19 7 -48 18 -65
25 -161 65 -323 109 -515 140 -84 13 -457 20 -510 10z"/>
<path d="M8681 4707 c-50 -17 -49 -34 0 -47 48 -13 109 -68 109 -98 0 -37 -32
-61 -100 -76 -375 -84 -412 -98 -445 -164 -15 -30 -26 -41 -43 -42 -13 0 -49
-7 -79 -16 -136 -40 -194 -196 -112 -303 28 -35 23 -48 -18 -56 -54 -10 -137
-67 -156 -107 -9 -18 -21 -54 -28 -79 -11 -41 -10 -51 15 -117 28 -73 57 -107
119 -139 l31 -15 -30 -17 c-43 -23 -76 -51 -99 -86 -19 -29 -20 -44 -17 -323
2 -236 0 -298 -11 -320 -8 -15 -22 -52 -32 -82 -19 -62 -41 -118 -55 -140 -6
-8 -17 -28 -26 -45 -26 -48 -45 -65 -74 -65 -15 0 -34 8 -43 18 -42 47 -83
257 -74 379 8 111 -16 149 -70 104 -24 -20 -53 -107 -53 -159 0 -84 -55 -311
-98 -404 -23 -50 -57 -53 -65 -5 -33 185 -11 306 90 502 14 28 28 52 32 55 3
3 23 31 44 62 32 47 37 60 27 77 -12 23 -49 36 -77 27 -52 -17 -177 -178 -198
-256 -3 -14 -10 -34 -14 -45 -29 -70 -50 -181 -52 -270 -1 -53 -17 -132 -35
-172 -8 -17 -14 -34 -14 -38 0 -3 -11 -21 -25 -39 -14 -18 -25 -37 -25 -42 0
-24 -90 -107 -144 -134 -62 -30 -77 -30 -115 4 -29 26 -40 55 -43 111 -1 34 5
51 29 82 80 103 148 303 141 416 -3 64 -6 72 -37 99 -39 35 -67 34 -131 -7
-52 -33 -93 -98 -120 -189 -12 -39 -26 -82 -31 -95 -6 -14 -13 -97 -15 -185
-6 -176 -16 -228 -71 -340 -18 -38 -33 -73 -33 -78 0 -13 -70 -106 -83 -111
-43 -16 -71 77 -81 272 -7 128 -30 199 -75 230 -32 22 -120 51 -156 51 -40 0
-68 37 -84 110 -16 76 -62 143 -94 138 -11 -2 -29 -16 -41 -31 -19 -25 -21
-42 -21 -147 l0 -118 43 -62 c27 -40 45 -77 48 -104 7 -55 -21 -239 -45 -291
-5 -11 -17 -40 -27 -65 -41 -103 -176 -272 -239 -301 -11 -5 -36 -19 -55 -30
-75 -45 -180 -62 -237 -37 -77 33 -153 119 -194 221 -75 185 -82 233 -76 489
6 203 15 279 45 351 7 16 12 32 12 37 0 16 48 99 80 140 30 38 103 80 140 80
9 0 35 -13 56 -28 57 -42 69 -86 69 -261 1 -127 3 -145 19 -157 27 -19 68 5
91 52 29 62 7 269 -43 395 -18 45 -98 107 -148 115 -62 9 -127 -3 -169 -32
-20 -13 -40 -24 -45 -24 -14 0 -124 -112 -159 -163 -51 -74 -107 -204 -125
-292 -10 -44 -24 -105 -32 -136 -9 -35 -14 -107 -14 -198 0 -139 5 -172 47
-336 28 -112 140 -289 208 -329 128 -76 135 -79 235 -80 99 -1 113 2 230 57
129 61 283 230 362 397 48 102 68 155 68 179 0 14 5 44 11 66 6 22 14 80 18
130 l6 90 30 3 c21 2 40 -5 63 -25 29 -25 35 -38 48 -113 44 -235 85 -326 165
-360 30 -13 68 1 115 43 23 19 114 159 114 173 0 17 63 144 71 144 3 0 11 -11
17 -25 6 -13 29 -36 51 -50 54 -33 115 -33 186 1 77 36 194 155 245 249 23 41
44 75 46 75 2 0 12 -17 23 -38 21 -41 55 -62 100 -62 29 0 81 33 81 51 0 6 11
25 24 42 14 18 28 44 31 60 4 15 11 30 16 33 5 3 9 16 9 29 0 13 9 45 21 72
21 47 21 48 32 23 37 -87 52 -112 84 -144 32 -31 43 -36 84 -36 45 0 50 3 99
57 31 34 69 92 92 140 22 46 43 83 48 83 4 0 13 -20 20 -45 16 -56 43 -75 72
-48 31 28 42 53 48 113 11 93 45 254 87 410 8 30 18 72 24 92 19 79 67 167 91
168 6 0 36 -94 59 -185 5 -22 29 -98 52 -170 31 -95 51 -139 73 -165 29 -31
34 -33 49 -20 27 22 55 90 55 132 0 20 5 49 10 64 6 15 15 52 19 83 12 76 79
338 97 378 53 119 69 136 98 104 16 -17 26 -56 47 -176 18 -110 63 -224 107
-275 123 -142 288 -140 437 5 61 59 73 79 108 167 41 102 35 185 -23 298 -11
21 -24 41 -30 45 -19 12 -10 32 34 81 57 62 70 110 64 219 -9 129 -39 168
-222 280 -15 9 -15 19 -4 92 18 125 1 226 -58 334 -26 50 -129 133 -200 164
-56 24 -85 30 -159 32 -54 2 -104 -2 -124 -10z m284 -115 c53 -37 98 -89 128
-148 22 -43 30 -105 22 -180 -9 -78 -52 -147 -97 -152 -15 -2 -32 -10 -38 -17
-15 -19 -7 -22 80 -29 61 -5 156 -42 201 -78 32 -26 68 -97 75 -146 9 -71 -27
-151 -81 -176 l-38 -18 -71 32 c-39 18 -86 40 -103 49 -25 12 -35 13 -45 3
-14 -14 -17 -11 52 -44 164 -79 270 -229 270 -384 0 -155 -104 -274 -240 -274
-97 0 -147 59 -174 205 -9 50 -24 120 -32 156 -7 37 -14 76 -14 87 0 12 -4 23
-9 27 -5 3 -12 19 -16 35 -4 17 -20 44 -37 60 -52 52 -117 36 -176 -45 -27
-38 -112 -245 -112 -274 0 -13 -7 -35 -54 -181 -13 -41 -27 -94 -31 -117 -4
-24 -10 -43 -13 -43 -28 1 -52 63 -82 216 -30 154 -71 234 -120 234 -33 0 -86
-56 -114 -122 -15 -35 -31 -70 -35 -78 -12 -22 -39 -119 -46 -163 -3 -21 -10
-35 -16 -31 -6 3 -9 87 -7 225 3 201 4 219 21 219 23 0 22 13 -3 35 -28 25
-70 118 -70 153 0 67 56 145 122 169 47 17 211 16 293 -2 96 -21 186 -42 213
-50 12 -4 22 -3 22 1 0 17 -95 74 -165 100 -39 14 -86 32 -105 39 -19 7 -55
19 -80 26 -29 8 -62 29 -92 60 -40 38 -48 52 -48 82 0 50 18 84 57 109 49 29
159 22 223 -15 80 -47 111 -58 148 -55 49 4 44 17 -15 42 -27 12 -66 31 -87
44 -38 22 -38 24 -32 69 3 25 11 53 18 61 15 18 111 62 135 62 23 0 134 23
193 41 58 17 129 67 136 96 6 23 -12 83 -25 83 -10 0 -41 56 -35 62 11 12 98
-23 149 -60z m-2204 -1969 c5 -14 7 -47 3 -72 -9 -70 -53 -192 -80 -226 l-24
-30 0 87 c0 178 65 335 101 241z"/>
<path d="M7437 4554 c-17 -9 -38 -36 -54 -72 -23 -49 -27 -71 -27 -157 0 -55
4 -108 10 -118 22 -38 -37 -264 -101 -387 -7 -14 -28 -54 -47 -89 -18 -35 -62
-94 -98 -131 -154 -159 -290 -142 -290 36 0 29 6 46 22 60 41 37 139 177 175
253 31 64 38 89 41 158 4 66 1 88 -12 108 -42 63 -121 52 -200 -28 -52 -53
-110 -153 -126 -217 -4 -19 -16 -60 -25 -90 -9 -30 -20 -87 -25 -125 -9 -76
-27 -154 -40 -170 -5 -5 -24 -41 -44 -80 -49 -96 -119 -175 -155 -175 -52 0
-77 52 -86 180 -4 47 -1 123 5 170 23 172 24 222 5 236 -15 11 -24 11 -53 -2
-85 -35 -128 -165 -120 -361 5 -115 37 -235 78 -293 25 -35 80 -70 109 -70 71
0 199 127 287 285 17 31 29 28 47 -14 32 -72 131 -117 199 -91 133 51 216 114
324 246 45 55 117 190 140 263 46 147 70 211 80 211 21 0 37 -25 105 -160 66
-132 68 -250 4 -314 -39 -40 -130 -72 -172 -62 -80 20 -92 19 -105 -9 -11 -25
-10 -30 20 -56 30 -27 39 -29 108 -29 46 0 87 6 102 14 15 8 46 22 70 32 50
20 116 90 142 149 75 168 42 276 -167 553 -36 47 -41 82 -22 162 19 83 -19
201 -65 200 -6 -1 -24 -8 -39 -16z m-457 -466 c0 -57 -20 -121 -57 -180 -13
-21 -23 -41 -23 -45 0 -11 -43 -53 -55 -53 -15 0 6 124 35 205 35 98 52 125
77 125 21 0 23 -5 23 -52z"/>
<path d="M5669 4518 c-78 -86 -102 -230 -106 -653 -1 -170 -3 -313 -3 -317 0
-14 -20 -8 -20 5 0 33 -133 185 -222 253 -31 24 -59 44 -62 44 -2 0 -31 16
-63 35 -60 36 -109 52 -243 81 -85 19 -153 11 -256 -28 -64 -25 -156 -102
-179 -152 -9 -18 -31 -48 -50 -66 -34 -33 -36 -34 -73 -21 -20 7 -53 20 -72
29 -52 24 -311 24 -359 -1 -19 -9 -39 -17 -44 -17 -17 0 -121 -52 -154 -78
-22 -16 -33 -33 -33 -49 0 -36 18 -63 43 -63 31 -1 63 -30 69 -65 5 -24 0 -35
-29 -61 -39 -36 -39 -58 1 -74 13 -5 27 -18 30 -28 9 -26 -10 -72 -28 -72 -9
0 -20 -10 -27 -22 -10 -19 -7 -25 26 -53 32 -26 37 -36 32 -57 -5 -19 -15 -27
-41 -32 -19 -4 -47 -4 -61 0 -37 9 -75 -28 -75 -72 0 -65 -36 -104 -94 -104
-59 0 -54 -57 11 -151 41 -60 41 -60 -34 -172 -50 -75 -145 -159 -238 -209
-55 -29 -68 -32 -151 -32 l-91 -1 -56 43 c-84 63 -153 199 -188 367 -26 125
-26 400 0 540 34 188 114 336 205 379 57 27 102 21 142 -18 48 -47 66 -130 62
-290 -3 -102 -1 -120 14 -129 25 -16 66 10 84 53 12 26 14 59 11 130 -10 178
-33 260 -94 325 -65 68 -150 78 -268 33 -125 -48 -277 -248 -329 -433 -9 -33
-21 -73 -26 -90 -20 -64 -40 -225 -40 -321 0 -150 46 -362 98 -457 72 -131
129 -192 217 -235 147 -73 230 -69 420 18 86 40 252 205 311 311 22 37 43 69
48 69 6 0 20 -9 32 -21 22 -20 99 -66 159 -93 72 -33 123 -41 270 -41 127 0
159 3 210 21 127 45 236 126 316 237 49 66 99 171 99 206 1 40 14 40 105 6
167 -62 362 -63 484 -2 85 43 113 74 169 189 26 53 50 98 54 98 10 0 25 -62
33 -135 10 -81 30 -163 50 -202 19 -39 52 -44 80 -13 17 18 17 33 10 193 -10
206 -10 226 -1 234 8 9 136 -14 231 -42 44 -13 108 -26 142 -30 54 -6 64 -4
82 14 27 27 26 33 -3 68 -23 27 -65 45 -166 73 -25 7 -61 18 -80 25 -19 8 -68
21 -107 30 -40 10 -73 22 -73 28 0 6 35 62 78 124 42 63 82 121 87 131 6 9 22
32 38 50 15 18 27 36 27 40 0 4 16 25 35 47 19 22 46 64 61 93 l27 53 -20 21
c-20 20 -22 20 -49 3 -16 -9 -56 -60 -89 -112 -33 -52 -72 -110 -87 -128 -16
-18 -28 -35 -28 -38 0 -3 -24 -42 -54 -87 -30 -45 -56 -86 -58 -92 -3 -7 -10
-8 -16 -4 -15 9 -8 381 9 506 6 41 14 113 19 160 4 47 14 130 21 185 7 55 9
112 6 128 -6 23 -12 27 -43 27 -30 0 -43 -8 -75 -42z m-664 -634 c28 -9 58
-20 67 -25 10 -5 23 -9 30 -9 16 0 102 -46 156 -82 54 -36 165 -148 195 -194
47 -76 77 -168 77 -238 0 -72 -9 -99 -57 -166 -23 -33 -50 -54 -96 -78 -60
-30 -73 -32 -165 -32 -84 0 -112 4 -188 31 -145 50 -254 120 -254 164 0 63
-71 193 -156 285 -71 77 -74 83 -68 118 25 150 147 241 324 242 53 0 104 -6
135 -16z m-772 -224 c37 -6 75 -14 85 -19 9 -5 48 -23 86 -40 94 -42 210 -159
255 -255 17 -37 31 -73 31 -80 0 -8 7 -30 15 -49 41 -98 3 -322 -72 -424 -13
-17 -23 -35 -23 -40 0 -5 -28 -36 -62 -69 -66 -64 -154 -124 -181 -124 -9 0
-18 -4 -21 -8 -3 -5 -51 -17 -107 -27 -98 -18 -105 -18 -189 -1 -109 22 -169
42 -195 65 -11 10 -36 27 -55 39 -65 39 -170 165 -170 203 0 12 12 19 45 23
34 6 50 14 66 38 18 25 20 34 10 50 -16 26 -6 38 36 38 27 0 43 8 69 34 40 40
45 83 14 134 l-20 32 24 9 c46 18 49 79 6 123 -30 30 -30 30 -12 56 29 41 33
62 22 97 -11 32 -42 66 -73 78 -26 10 -20 20 21 40 155 77 256 97 395 77z
m647 -582 c139 -68 200 -81 347 -75 65 3 132 8 148 12 l30 8 -21 -21 c-43 -41
-93 -55 -219 -60 -125 -4 -200 7 -290 45 -64 27 -82 47 -77 88 2 19 7 35 11
35 3 0 35 -14 71 -32z"/>
<path d="M4856 3854 c-21 -20 -20 -30 4 -54 25 -25 45 -25 70 0 23 23 18 43
-16 59 -33 15 -40 14 -58 -5z"/>
<path d="M5174 3762 c-27 -4 -48 -43 -41 -74 7 -25 57 -58 88 -58 33 0 45 43
24 89 -18 40 -33 49 -71 43z"/>
<path d="M4690 3625 c-22 -26 7 -46 39 -26 12 8 12 12 2 25 -17 20 -25 20 -41
1z"/>
<path d="M4964 3543 c-12 -47 47 -68 61 -22 8 24 -11 49 -36 49 -12 0 -21 -10
-25 -27z"/>
<path d="M5372 3457 c-16 -19 8 -50 34 -45 28 5 26 52 -2 56 -11 2 -26 -3 -32
-11z"/>
<path d="M4894 3316 c-17 -45 40 -86 73 -53 15 14 15 20 3 42 -15 28 -67 36
-76 11z"/>
<path d="M5231 3266 c-18 -21 3 -56 34 -56 31 0 52 35 34 56 -6 8 -22 14 -34
14 -12 0 -28 -6 -34 -14z"/>
<path d="M4012 3488 c-22 -22 -11 -78 14 -78 25 0 64 31 64 51 0 32 -54 51
-78 27z"/>
<path d="M4356 3335 c-23 -35 -21 -107 3 -122 29 -18 76 2 102 44 18 28 20 39
10 59 -21 46 -90 58 -115 19z"/>
<path d="M4040 3145 c0 -31 26 -43 47 -22 21 21 9 47 -22 47 -20 0 -25 -5 -25
-25z"/>
<path d="M4492 2958 c-38 -38 22 -111 71 -86 10 5 17 20 17 40 0 47 -57 77
-88 46z"/>
<path d="M3846 2865 c-22 -34 -20 -50 10 -64 29 -13 46 -4 65 32 8 14 6 23 -7
38 -23 26 -48 24 -68 -6z"/>
<path d="M4228 2859 c-27 -15 -22 -57 11 -90 36 -35 46 -36 67 -4 17 26 13 67
-8 92 -12 15 -46 16 -70 2z"/>
<path d="M6303 4216 c-16 -14 -34 -42 -41 -63 -10 -31 -9 -43 6 -73 25 -51 65
-53 111 -6 29 30 33 41 34 86 1 40 -3 56 -18 66 -28 21 -60 17 -92 -10z"/>
<path d="M4310 2373 c-40 -7 -106 -40 -136 -68 -49 -45 -64 -76 -64 -130 1
-57 13 -84 53 -115 15 -12 27 -27 27 -33 0 -7 -19 -35 -41 -62 -169 -203 -65
-376 186 -310 65 16 150 62 184 99 29 31 41 32 71 6 38 -33 100 -24 100 14 0
12 -12 29 -30 41 -33 22 -37 36 -15 59 8 8 16 25 17 38 4 35 -37 37 -71 4
l-27 -26 -41 27 c-171 119 -176 125 -124 169 16 13 46 49 66 79 31 47 36 62
33 101 -3 40 -8 51 -38 75 -36 28 -99 42 -150 32z m58 -77 c15 -33 -3 -100
-41 -153 -32 -45 -48 -56 -72 -47 -24 10 -55 69 -55 105 1 82 138 160 168 95z
m-29 -351 c21 -19 42 -35 47 -35 14 0 104 -80 104 -92 0 -18 -63 -67 -126 -98
-75 -37 -134 -40 -164 -8 -25 27 -27 99 -4 153 20 48 73 115 91 115 7 0 30
-16 52 -35z"/>
<path d="M7852 2151 c-15 -9 -23 -22 -62 -98 -94 -182 -248 -387 -395 -524
-79 -73 -220 -189 -231 -189 -6 0 -19 -9 -30 -21 -41 -46 -404 -229 -454 -229
-10 0 -22 -5 -25 -10 -3 -5 -13 -10 -22 -10 -8 0 -29 -6 -46 -14 -56 -24 -271
-66 -451 -87 -111 -13 -270 -7 -411 16 -49 9 -119 20 -155 26 -97 17 -101 16
-123 -13 l-21 -28 24 -25 c13 -14 32 -25 42 -25 18 0 49 -6 177 -36 105 -24
534 -25 636 -1 39 9 106 23 150 32 115 23 147 32 270 78 118 43 317 137 345
162 9 8 20 15 24 15 4 0 44 25 88 55 44 30 82 55 84 55 11 0 223 192 284 256
88 94 186 222 250 326 33 53 60 99 60 102 0 3 16 31 35 63 19 32 35 68 35 80
0 41 -44 66 -78 44z"/>
</g>
</svg>
