<?xml version="1.0" standalone="no"?>
<!DOCTYPE svg PUBLIC "-//W3C//DTD SVG 20010904//EN"
 "http://www.w3.org/TR/2001/REC-SVG-20010904/DTD/svg10.dtd">
<svg version="1.0" xmlns="http://www.w3.org/2000/svg"
 width="500.000000pt" height="500.000000pt" viewBox="0 0 500.000000 500.000000"
 preserveAspectRatio="xMidYMid meet">

<g transform="translate(0.000000,500.000000) scale(0.100000,-0.100000)"
fill="#000000" stroke="none">
<path d="M287 3227 c10 -185 10 -1193 0 -1409 l-7 -168 95 0 c60 0 108 5 129
14 l34 14 1 841 2 841 -43 1 c-24 1 -82 3 -131 5 l-87 4 7 -143z m158 43 c21
0 25 -24 27 -153 2 -119 2 -119 5 -28 2 52 8 100 12 105 5 6 9 28 9 49 0 21 2
40 5 43 19 19 28 -1488 8 -1536 -8 -20 -10 -10 -12 55 -2 69 -3 73 -8 30 l-5
-50 -6 50 c-6 45 -7 41 -8 -32 -2 -82 -2 -83 -28 -83 l-26 0 6 158 c9 250 11
863 4 1157 -4 149 -5 262 -2 253 3 -10 11 -18 19 -18z m82 -102 c-3 -7 -5 -2
-5 12 0 14 2 19 5 13 2 -7 2 -19 0 -25z m-160 -40 c-3 -7 -5 -2 -5 12 0 14 2
19 5 13 2 -7 2 -19 0 -25z m20 -30 c-2 -13 -4 -3 -4 22 0 25 2 35 4 23 2 -13
2 -33 0 -45z m8 -272 c6 -156 7 -1003 1 -1066 -3 -30 -16 -60 -25 -60 -4 0 -6
48 -5 108 2 59 3 351 4 650 0 298 4 542 9 542 5 0 12 -78 16 -174z m-98 -1118
c-2 -13 -4 -5 -4 17 -1 22 1 32 4 23 2 -10 2 -28 0 -40z m166 -5 c-7 -2 -21
-2 -30 0 -10 3 -4 5 12 5 17 0 24 -2 18 -5z m-71 -25 c-9 -9 -15 -9 -24 0 -9
9 -7 12 12 12 19 0 21 -3 12 -12z m74 3 c-5 -8 -56 -3 -56 5 0 2 14 4 31 4 16
0 28 -4 25 -9z"/>
<path d="M493 3120 c0 -25 2 -35 4 -22 2 12 2 32 0 45 -2 12 -4 2 -4 -23z"/>
<path d="M480 2857 c0 -9 5 -17 10 -17 6 0 10 -18 10 -40 0 -22 -3 -40 -7 -40
-5 0 -8 -55 -9 -123 0 -67 2 -102 5 -77 11 83 20 -155 11 -280 -5 -63 -8 -164
-8 -225 l1 -110 9 115 c5 63 9 265 9 449 0 289 -2 336 -15 350 -15 14 -16 14
-16 -2z"/>
<path d="M483 2400 c0 -25 2 -35 4 -22 2 12 2 32 0 45 -2 12 -4 2 -4 -23z"/>
<path d="M4522 2508 l-4 -858 24 0 c13 -1 70 -3 127 -6 l103 -6 -6 49 c-3 26
-9 259 -12 518 -6 427 4 884 22 1088 l7 67 -120 0 c-112 0 -119 -1 -120 -20
-1 -11 2 -18 7 -15 6 3 7 -1 4 -9 -10 -26 -23 -18 -26 17 -2 17 -4 -354 -6
-825z m108 827 c0 -8 -4 -15 -10 -15 -5 0 -7 7 -4 15 4 8 8 15 10 15 2 0 4 -7
4 -15z m-30 -4 c0 -6 -4 -12 -8 -15 -5 -3 -9 1 -9 9 0 8 4 15 9 15 4 0 8 -4 8
-9z m77 3 c-3 -3 -12 -4 -19 -1 -8 3 -5 6 6 6 11 1 17 -2 13 -5z m78 -53 c1
-24 -7 -60 -16 -80 l-17 -36 2 83 c1 67 4 82 16 79 11 -2 15 -15 15 -46z m-85
27 c0 -10 2 -10 9 0 7 11 9 11 14 -1 8 -20 -3 -58 -14 -51 -5 3 -9 0 -9 -5 0
-6 5 -11 10 -11 7 0 8 -42 5 -117 -3 -65 -8 -173 -11 -240 -3 -68 -9 -121 -13
-119 -4 3 -4 -18 0 -47 9 -71 -2 -672 -12 -655 -7 10 -9 9 -9 -4 0 -10 4 -18
10 -18 5 0 10 -69 12 -165 3 -138 1 -166 -12 -170 -13 -5 -13 -7 0 -16 13 -9
13 -10 0 -7 -17 5 -16 -23 -20 503 -4 610 10 1135 31 1135 5 0 9 -6 9 -12z
m-81 -153 c-4 -55 -8 -165 -8 -245 -1 -96 -5 -140 -11 -130 -5 8 -7 64 -5 125
12 299 18 398 24 375 4 -14 4 -70 0 -125z m21 -82 c-6 -98 -12 -207 -14 -243
-2 -36 -1 39 1 165 2 127 7 238 10 248 12 45 14 -4 3 -170z m143 50 c-3 -32
-8 -71 -13 -86 -5 -15 -6 -26 -2 -23 11 6 3 -210 -8 -254 -6 -22 -6 -38 0 -44
15 -15 12 -36 -5 -36 -12 0 -15 20 -15 120 0 66 4 120 9 120 4 0 8 37 8 83 0
92 12 189 23 182 4 -2 5 -30 3 -62z m-26 5 c-3 -7 -5 -2 -5 12 0 14 2 19 5 13
2 -7 2 -19 0 -25z m-160 -415 c-3 -10 -5 -2 -5 17 0 19 2 27 5 18 2 -10 2 -26
0 -35z m28 -435 c0 -260 -3 -452 -7 -428 -13 90 -8 900 6 900 1 0 1 -212 1
-472z m-27 -20 c-2 -324 -3 -376 -8 -223 -5 204 -1 645 6 645 2 0 3 -190 2
-422z m160 195 c1 -82 -2 -173 -6 -203 -7 -46 -8 -35 -9 65 -2 111 5 285 11
285 2 0 4 -66 4 -147z m-11 -365 c-3 -7 -5 -2 -5 12 0 14 2 19 5 13 2 -7 2
-19 0 -25z m20 -30 c-2 -13 -4 -3 -4 22 0 25 2 35 4 23 2 -13 2 -33 0 -45z
m-2 -193 c3 -76 1 -143 -4 -149 -5 -6 -11 -22 -14 -36 -4 -21 -4 -20 -6 8 0
17 4 32 10 32 7 0 9 13 4 38 -12 68 -17 164 -10 209 3 25 8 43 11 41 2 -3 6
-67 9 -143z m-138 -137 c-3 -8 -6 -5 -6 6 -1 11 2 17 5 13 3 -3 4 -12 1 -19z
m140 -60 c-3 -7 -5 -2 -5 12 0 14 2 19 5 13 2 -7 2 -19 0 -25z"/>
<path d="M4642 1920 c0 -19 2 -27 5 -17 2 9 2 25 0 35 -3 9 -5 1 -5 -18z"/>
<path d="M2233 3171 c-89 -23 -113 -68 -113 -208 0 -122 13 -151 108 -260 40
-44 76 -92 82 -107 5 -15 10 -61 10 -101 0 -61 -3 -76 -17 -83 -36 -19 -43 -4
-43 94 l0 94 -76 0 -76 0 3 -114 c4 -97 7 -119 25 -143 65 -89 247 -83 304 10
17 27 20 50 20 152 0 147 -8 166 -112 288 -77 89 -88 113 -88 191 0 50 15 69
42 55 15 -8 18 -22 18 -79 l0 -70 71 0 71 0 -4 93 c-4 102 -25 154 -72 175
-35 16 -115 22 -153 13z"/>
<path d="M3855 3169 c-48 -12 -91 -50 -106 -97 -7 -21 -10 -71 -7 -126 6 -108
21 -143 100 -231 92 -102 98 -113 98 -166 0 -28 5 -49 11 -49 5 0 7 -5 3 -11
-3 -6 -17 -8 -30 -5 -16 4 -23 2 -22 -5 2 -6 -3 -14 -10 -16 -7 -3 -12 -1 -11
4 1 4 1 36 0 71 l-1 62 -71 0 -70 0 2 -122 c1 -107 -1 -123 -15 -126 -9 -2
-16 -9 -15 -15 3 -28 -2 -36 -18 -30 -13 5 -15 2 -11 -15 4 -15 2 -22 -7 -22
-20 0 -30 -21 -15 -30 17 -10 4 -60 -15 -60 -18 0 -20 -30 -2 -30 7 0 6 -4 -4
-10 -18 -10 -16 -47 3 -88 11 -20 13 -21 29 -6 10 9 25 14 34 11 8 -4 15 -1
15 5 0 6 3 9 6 6 3 -3 -1 -21 -9 -41 -22 -51 -10 -62 69 -60 53 0 70 5 81 19
7 10 13 14 13 10 0 -20 37 18 60 61 28 53 62 66 68 26 3 -17 -6 -28 -32 -44
-37 -21 -48 -55 -23 -65 8 -3 34 2 58 10 24 9 47 16 52 16 4 0 7 -47 7 -106
l0 -105 38 -16 c54 -24 167 -23 220 1 l42 19 0 137 0 138 -33 15 c-18 9 -56
19 -85 23 -28 3 -52 11 -52 16 0 5 4 7 9 4 5 -4 16 -3 25 0 13 5 14 9 5 20 -9
11 -6 14 15 14 20 0 29 7 36 28 6 15 15 35 20 44 13 22 13 31 1 23 -6 -3 -15
4 -21 15 -7 13 -7 20 0 20 5 0 10 -4 10 -10 0 -5 5 -10 11 -10 5 0 7 5 4 10
-3 6 0 10 7 11 7 0 3 4 -9 9 -13 5 -23 15 -23 21 0 8 5 7 16 -2 15 -12 16 -11
9 10 -5 16 -4 21 4 17 6 -4 11 -3 11 2 0 6 -7 12 -15 16 -8 3 -15 14 -15 25 0
11 -5 23 -10 26 -6 4 -7 11 -4 17 5 7 2 8 -5 4 -7 -5 -21 0 -31 9 -30 27 -109
64 -116 54 -3 -5 -10 -9 -15 -9 -6 0 -8 4 -4 9 3 5 1 12 -5 16 -6 3 -13 -1
-16 -9 -3 -9 -10 -16 -15 -16 -5 0 -4 9 3 20 9 15 10 34 1 86 -13 73 -39 118
-139 232 l-54 62 0 75 c0 75 6 90 34 79 13 -5 16 -22 16 -80 l0 -74 70 0 70 0
0 88 c0 100 -17 146 -65 173 -39 22 -110 30 -160 18z m155 -663 c0 -3 -4 -8
-10 -11 -5 -3 -10 -1 -10 4 0 6 5 11 10 11 6 0 10 -2 10 -4z m40 0 c0 -3 -4
-8 -10 -11 -5 -3 -10 -1 -10 4 0 6 5 11 10 11 6 0 10 -2 10 -4z m133 -33 c4 1
16 -14 27 -33 l21 -35 -24 28 c-12 15 -28 27 -34 27 -6 0 -17 7 -24 17 -13 15
-12 15 6 6 11 -6 23 -10 28 -10z m-325 -25 c-2 -6 -10 -14 -16 -16 -7 -2 -10
2 -6 12 7 18 28 22 22 4z m-38 -22 c0 -2 -7 -9 -15 -16 -12 -10 -15 -10 -15 4
0 9 7 16 15 16 8 0 15 -2 15 -4z m-45 -36 c-3 -5 -11 -10 -16 -10 -6 0 -7 5
-4 10 3 6 11 10 16 10 6 0 7 -4 4 -10z m468 -131 c-8 -8 -13 -7 -18 2 -5 8 -4
10 3 5 7 -4 12 -2 12 5 0 7 3 9 7 6 4 -4 2 -12 -4 -18z m47 -29 c0 -11 -2 -20
-4 -20 -2 0 -6 9 -9 20 -3 11 -1 20 4 20 5 0 9 -9 9 -20z m-335 -9 c3 -5 2
-12 -3 -15 -5 -3 -9 1 -9 9 0 17 3 19 12 6z m325 -36 c0 -21 -5 -19 -25 11
-16 25 -16 25 4 14 12 -6 21 -17 21 -25z m-60 -6 c0 -6 -4 -8 -8 -5 -5 3 -14
-5 -21 -17 -11 -19 -61 -64 -61 -54 0 2 16 20 35 41 19 21 35 43 35 48 0 5 5
6 10 3 6 -3 10 -11 10 -16z m-419 -6 c13 -16 12 -17 -3 -4 -17 13 -22 21 -14
21 2 0 10 -8 17 -17z m254 -34 c10 -15 -1 -23 -20 -15 -9 3 -13 10 -10 16 8
13 22 13 30 -1z m-345 -13 c0 -3 -4 -8 -10 -11 -5 -3 -10 -1 -10 4 0 6 5 11
10 11 6 0 10 -2 10 -4z m121 -21 c-1 -15 -24 -12 -29 3 -3 9 2 13 12 10 10 -1
17 -7 17 -13z m-43 -17 c14 -14 16 -48 3 -48 -22 0 -41 13 -41 29 0 31 18 39
38 19z m527 -12 l35 -15 0 -131 0 -131 -37 -15 c-49 -21 -169 -16 -205 8 -26
17 -26 18 -25 140 l2 123 35 17 c43 22 147 24 195 4z m-531 -75 c-2 -3 -12 3
-22 13 -16 17 -16 18 5 5 12 -7 20 -15 17 -18z m64 -8 c-10 -2 -26 -2 -35 0
-10 3 -2 5 17 5 19 0 27 -2 18 -5z"/>
<path d="M4134 2039 c-3 -6 -1 -16 5 -22 8 -8 11 -6 11 8 0 14 3 16 11 8 9 -9
6 -19 -10 -39 -28 -36 -27 -54 4 -54 14 0 25 5 25 10 0 6 -7 10 -15 10 -8 0
-15 4 -15 9 0 5 7 11 15 15 9 3 15 18 15 36 0 23 -4 30 -19 30 -11 0 -23 -5
-27 -11z"/>
<path d="M4196 2035 c-3 -8 -1 -15 4 -15 6 0 10 5 10 10 0 6 5 10 10 10 14 0
12 -27 -2 -34 -10 -5 -10 -7 0 -12 14 -7 17 -34 3 -34 -5 0 -11 6 -14 13 -2 6
-8 9 -13 4 -4 -4 0 -15 9 -24 27 -27 41 -4 38 65 -1 24 -5 32 -20 32 -10 0
-21 -7 -25 -15z"/>
<path d="M4260 2001 c0 -54 12 -70 36 -50 10 8 14 26 12 53 -2 34 -7 42 -25
44 -21 3 -23 0 -23 -47z m30 -1 c0 -22 -4 -40 -10 -40 -5 0 -10 18 -10 40 0
22 5 40 10 40 6 0 10 -18 10 -40z"/>
<path d="M4107 1913 c-4 -3 -7 -15 -7 -25 0 -14 8 -18 40 -18 37 0 40 2 39 28
l-1 27 -7 -25 -7 -25 -8 25 -7 25 -9 -22 c-11 -26 -30 -31 -30 -7 0 8 5 12 10
9 6 -3 10 -1 10 4 0 12 -13 14 -23 4z"/>
<path d="M4195 1911 c-3 -2 -5 -12 -5 -21 0 -13 12 -16 70 -17 66 -1 93 8 70
22 -6 4 -7 11 -4 17 4 7 2 8 -4 4 -6 -4 -9 -13 -5 -21 3 -9 -1 -15 -10 -15
-10 0 -15 7 -12 19 3 16 -3 18 -46 18 -27 -1 -52 -3 -54 -6z m27 -15 c7 4 8 2
4 -4 -11 -18 -26 -14 -25 6 0 10 3 12 6 4 2 -6 10 -9 15 -6z m38 -1 c7 -9 8
-15 2 -15 -5 0 -12 7 -16 15 -3 8 -4 15 -2 15 2 0 9 -7 16 -15z"/>
<path d="M4140 1834 c0 -8 4 -13 9 -10 5 4 12 0 14 -6 3 -7 6 -3 6 10 1 13 -5
22 -14 22 -8 0 -15 -7 -15 -16z"/>
<path d="M4187 1831 c-3 -14 -1 -18 9 -14 16 6 18 19 5 27 -5 3 -11 -3 -14
-13z"/>
<path d="M4231 1833 c-1 -16 5 -23 18 -23 30 0 51 11 51 26 0 21 -20 17 -21
-3 0 -16 -1 -16 -8 1 -7 19 -8 19 -15 0 -8 -19 -8 -19 -16 1 -8 19 -9 19 -9
-2z"/>
<path d="M1023 3162 l-63 -3 0 -434 0 -435 75 0 75 0 0 210 0 210 30 0 30 0 0
-210 0 -210 75 0 75 0 0 433 c0 239 -2 436 -4 438 -2 2 -36 3 -75 1 l-71 -4 0
-164 0 -164 -30 0 -30 0 -2 167 c-2 101 -7 167 -13 168 -5 0 -38 -1 -72 -3z"/>
<path d="M1395 3162 c-3 -3 -5 -200 -5 -439 l0 -433 135 0 135 0 0 65 0 65
-60 0 -60 0 0 140 0 140 55 0 56 0 -3 63 -3 62 -52 3 -53 3 0 105 0 104 55 0
55 0 0 60 0 60 -102 1 c-57 0 -113 2 -126 3 -12 2 -24 0 -27 -2z"/>
<path d="M2524 3161 c-2 -2 -4 -199 -4 -438 l0 -433 76 0 75 0 -2 208 -1 207
28 0 29 0 3 -207 2 -208 73 0 72 0 1 433 1 432 -66 6 c-36 3 -69 4 -73 2 -5
-2 -8 -78 -8 -169 l0 -164 -30 0 -30 0 0 165 c0 91 -3 165 -7 166 -47 3 -136
3 -139 0z"/>
<path d="M2944 3155 c-3 -6 -3 -190 -2 -410 3 -329 5 -393 15 -361 16 51 40
76 74 76 28 0 49 -23 49 -53 0 -8 -18 -35 -40 -60 -22 -25 -40 -48 -40 -51 0
-3 50 -6 110 -6 l110 0 0 65 0 65 -65 0 c-47 0 -65 4 -64 13 5 40 -2 187 -9
183 -5 -3 -18 2 -30 10 -24 17 -30 62 -10 82 15 15 64 16 73 2 3 -5 24 -10 46
-10 l39 0 0 65 0 65 -55 0 -56 0 3 103 3 102 58 3 57 3 0 59 0 59 -131 3 c-82
2 -133 -1 -135 -7z"/>
<path d="M3252 3162 c-4 -1 16 -134 44 -295 47 -260 53 -308 54 -434 0 -110 3
-143 13 -143 7 0 32 19 55 43 46 47 82 138 82 207 0 19 23 165 51 323 28 159
49 290 47 292 -3 3 -82 8 -104 6 -7 -1 -18 -60 -29 -146 -10 -80 -21 -145 -25
-145 -4 0 -15 65 -25 145 -10 80 -21 145 -24 146 -27 2 -133 3 -139 1z"/>
<path d="M3640 3146 c-4 -12 -10 -43 -14 -71 -4 -27 -10 -58 -12 -68 -5 -16
-1 -18 28 -15 30 3 36 9 65 68 48 98 47 104 -10 105 -41 1 -50 -2 -57 -19z"/>
<path d="M894 3145 c3 -8 1 -15 -4 -15 -6 0 -10 5 -10 10 0 6 -7 10 -16 10
-12 0 -11 -5 7 -20 22 -17 25 -18 37 -3 16 23 15 33 -4 33 -10 0 -14 -6 -10
-15z"/>
<path d="M1710 2725 l0 -435 73 0 72 0 0 205 0 206 25 -3 25 -3 6 -185 c3
-102 9 -193 13 -202 7 -15 22 -18 97 -18 l90 0 -23 31 c-21 28 -23 44 -28 202
-5 171 -10 198 -45 227 -14 12 -14 15 4 34 32 34 41 72 41 173 0 110 -21 171
-66 191 -15 7 -78 12 -154 12 l-130 0 0 -435z m208 203 c2 -89 1 -98 -18 -108
-11 -6 -25 -8 -30 -5 -6 3 -10 53 -10 111 l0 105 28 -3 27 -3 3 -97z"/>
<path d="M860 3095 c-6 -8 -9 -19 -5 -25 8 -13 35 -13 35 1 0 6 7 8 16 5 20
-8 8 11 -16 24 -13 7 -21 6 -30 -5z m30 -9 c0 -11 -19 -15 -25 -6 -3 5 1 10 9
10 9 0 16 -2 16 -4z"/>
<path d="M855 3039 c-11 -16 5 -29 36 -29 24 0 30 4 27 17 -3 19 -53 29 -63
12z m25 -9 c0 -5 -5 -10 -11 -10 -5 0 -7 5 -4 10 3 6 8 10 11 10 2 0 4 -4 4
-10z m30 0 c0 -5 -4 -10 -10 -10 -5 0 -10 5 -10 10 0 6 5 10 10 10 6 0 10 -4
10 -10z"/>
<path d="M854 2982 c5 -8 66 -4 66 4 0 2 -16 4 -36 4 -19 0 -33 -4 -30 -8z"/>
<path d="M851 2913 c-1 -22 3 -25 34 -25 31 0 35 3 34 25 -1 16 -2 18 -6 5 -5
-21 -19 -23 -26 -5 -4 10 -6 10 -6 0 -1 -19 -19 -16 -24 5 -4 13 -5 11 -6 -5z"/>
<path d="M852 2849 c4 -31 32 -46 52 -30 18 15 22 51 6 51 -6 0 -10 -8 -8 -17
2 -12 -3 -18 -17 -18 -13 0 -20 6 -19 18 1 9 -3 17 -8 17 -5 0 -8 -10 -6 -21z"/>
<path d="M855 2790 c3 -5 13 -6 23 -3 12 5 11 -1 -7 -20 l-24 -27 37 0 c21 0
35 4 31 10 -3 5 -13 6 -23 3 -12 -5 -11 1 7 20 l24 27 -37 0 c-21 0 -35 -4
-31 -10z"/>
<path d="M868 2713 c12 -2 30 -2 40 0 9 3 -1 5 -23 4 -22 0 -30 -2 -17 -4z"/>
<path d="M884 2686 c-3 -9 -10 -16 -16 -16 -5 0 -6 5 -3 10 3 6 1 10 -4 10
-15 0 -14 -27 1 -36 6 -4 17 1 25 12 12 16 15 17 24 4 8 -12 10 -12 7 4 -4 25
-26 32 -34 12z"/>
<path d="M3030 2390 c0 -5 5 -10 10 -10 6 0 10 5 10 10 0 6 -4 10 -10 10 -5 0
-10 -4 -10 -10z"/>
<path d="M3640 2209 c0 -11 5 -17 10 -14 6 3 10 13 10 21 0 8 -4 14 -10 14 -5
0 -10 -9 -10 -21z"/>
<path d="M3453 2203 c4 -6 -3 -8 -18 -5 l-25 4 0 -133 c0 -92 3 -129 10 -119
9 13 11 13 20 0 7 -11 10 0 10 38 0 45 3 52 20 52 13 0 20 7 20 20 0 14 -6 20
-17 18 -14 -2 -19 6 -24 37 -6 40 -6 40 -8 6 -1 -46 -13 -32 -16 19 -2 35 1
40 19 40 17 0 18 -2 6 -10 -11 -7 -7 -10 18 -10 25 0 32 4 32 20 0 11 -4 20
-9 20 -5 0 -17 3 -27 7 -11 4 -15 2 -11 -4z m27 -143 c0 -5 -10 -10 -22 -9
-22 0 -22 1 -3 9 11 5 21 9 23 9 1 1 2 -3 2 -9z"/>
<path d="M1510 2181 c-13 -26 -13 -51 1 -51 6 0 9 6 6 13 -3 7 2 22 10 32 14
19 15 19 8 -5 -5 -14 -7 -40 -7 -57 2 -37 -14 -45 -21 -10 -2 12 -5 -15 -6
-60 0 -45 3 -84 7 -87 4 -2 6 10 4 29 -2 18 1 36 7 39 7 5 12 -8 13 -36 1 -24
4 6 7 66 4 75 10 111 19 114 8 2 12 -7 12 -27 0 -25 4 -31 23 -31 18 0 22 6
22 28 0 40 -21 62 -61 62 -23 0 -37 -6 -44 -19z m80 -5 c0 -8 6 -17 13 -19 7
-3 5 -6 -5 -6 -10 -1 -18 5 -18 13 0 8 -8 17 -17 19 -14 4 -12 5 5 6 13 1 22
-5 22 -13z"/>
<path d="M1658 2181 c-23 -22 -24 -45 -2 -37 12 5 15 2 10 -10 -3 -8 -6 -21
-7 -27 0 -7 -4 -3 -8 7 -4 11 -7 -12 -7 -55 0 -41 1 -62 3 -46 3 15 9 27 14
27 6 0 7 -4 4 -10 -3 -5 -1 -10 4 -10 6 0 12 23 12 53 1 28 2 57 4 62 1 6 3
16 3 23 3 20 20 14 28 -10 4 -13 7 -43 7 -68 -1 -28 1 -36 4 -20 5 22 7 20 19
-20 l12 -45 1 87 c1 66 -3 90 -15 102 -20 21 -65 19 -86 -3z m30 -11 c-7 -11
-15 -15 -17 -9 -2 6 3 15 10 20 20 12 21 11 7 -11z m47 6 c8 -7 11 -16 8 -19
-5 -6 -33 17 -33 27 0 10 11 7 25 -8z"/>
<path d="M1803 2188 c-6 -7 -10 -62 -11 -123 l0 -110 13 85 13 85 0 -95 c-1
-76 2 -96 15 -104 27 -17 41 8 38 64 -1 31 2 50 8 50 14 0 14 -85 1 -111 -6
-11 -7 -19 -1 -19 17 0 21 31 21 147 0 86 -4 118 -14 129 -18 17 -70 18 -83 2z
m20 -33 c-5 -25 -7 -27 -13 -10 -4 11 -3 26 3 33 14 17 16 12 10 -23z m37 -95
c0 -109 -2 -130 -15 -130 -12 0 -15 19 -15 115 0 79 4 120 13 130 6 8 13 14
15 15 1 0 2 -58 2 -130z"/>
<path d="M1930 2050 l0 -150 25 0 c23 0 25 4 25 40 0 45 -4 49 -21 19 -9 -17
-8 -20 2 -14 9 6 11 3 6 -9 -4 -10 -7 -20 -7 -22 0 -2 -4 -4 -8 -4 -4 0 -9 37
-10 83 -2 58 0 78 8 67 8 -12 10 -12 10 6 0 11 -5 25 -11 31 -8 8 -8 16 0 30
6 10 11 14 11 8 1 -20 20 21 20 43 0 17 -6 22 -25 22 l-25 0 0 -150z m37 115
c-4 -8 -11 -15 -17 -15 -14 0 -13 27 3 33 16 6 21 1 14 -18z"/>
<path d="M2000 2150 c-12 -49 -24 -63 -33 -37 -2 6 -8 8 -13 4 -4 -4 4 -20 20
-35 22 -22 26 -24 21 -7 -6 19 -6 19 5 2 6 -10 9 -26 5 -35 -3 -9 -3 -13 2 -9
6 7 41 137 43 160 0 4 -9 7 -19 7 -15 0 -22 -12 -31 -50z m30 0 c0 -5 -2 -10
-4 -10 -3 0 -8 5 -11 10 -3 6 -1 10 4 10 6 0 11 -4 11 -10z"/>
<path d="M2077 2113 c1 -49 3 -92 3 -96 0 -5 5 -5 10 -2 13 8 24 -20 15 -36
-6 -8 -9 -8 -15 1 -5 8 -9 8 -13 -3 -3 -8 3 -23 14 -33 21 -19 25 -34 8 -34
-5 0 -7 5 -4 10 3 6 1 10 -4 10 -6 0 -11 -7 -11 -15 0 -8 9 -15 20 -15 19 0
20 7 20 150 0 149 0 150 -22 150 -22 0 -23 -3 -21 -87z m20 45 c-3 -8 -6 -5
-6 6 -1 11 2 17 5 13 3 -3 4 -12 1 -19z m0 -50 c-3 -7 -5 -2 -5 12 0 14 2 19
5 13 2 -7 2 -19 0 -25z m6 -43 c4 -8 2 -17 -3 -20 -6 -4 -10 3 -10 14 0 25 6
27 13 6z"/>
<path d="M2150 2052 c0 -126 2 -149 15 -149 8 0 15 4 15 9 0 4 -4 8 -10 8 -5
0 -10 9 -10 20 0 11 5 20 10 20 6 0 10 -7 10 -15 0 -8 5 -15 11 -15 6 0 9 -7
5 -15 -4 -11 2 -15 22 -14 24 0 25 1 7 9 -19 8 -19 9 -1 9 23 1 12 16 -12 16
-14 0 -18 12 -20 58 -2 36 -7 57 -15 57 -7 0 -12 17 -13 45 0 25 3 45 8 45 4
0 8 -16 8 -35 0 -19 5 -35 10 -35 6 0 10 -6 10 -13 0 -8 7 -14 15 -14 8 0 15
9 15 19 0 12 -6 18 -17 16 -15 -2 -19 5 -21 40 -3 38 -1 42 20 42 17 0 24 6
24 20 0 25 -13 26 -19 3 -4 -17 -5 -17 -6 0 -1 12 -10 17 -31 17 l-30 0 0
-148z m43 121 c-7 -2 -19 -2 -25 0 -7 3 -2 5 12 5 14 0 19 -2 13 -5z"/>
<path d="M2272 2188 c-7 -7 -12 -32 -12 -57 0 -37 7 -54 35 -90 35 -44 46 -93
24 -106 -15 -10 -20 -1 -21 34 -1 27 -5 31 -22 29 -18 -3 -21 -9 -19 -42 3
-42 15 -56 48 -55 18 0 18 1 -2 9 -31 13 -29 16 12 16 27 0 32 -3 23 -13 -7
-9 -7 -13 1 -13 14 0 31 42 31 77 0 30 -28 93 -42 93 -6 0 -6 -6 1 -14 9 -10
9 -16 1 -21 -6 -4 -14 -4 -17 -1 -4 3 -1 6 6 6 7 0 9 5 5 11 -4 8 -8 8 -13 0
-4 -6 -11 -3 -19 9 -7 12 -8 20 -2 20 5 0 10 -5 10 -11 0 -5 5 -7 11 -4 5 4 8
12 6 18 -4 14 -29 16 -38 4 -3 -4 -6 5 -7 22 0 17 3 33 8 36 4 3 6 -4 3 -15
-3 -12 0 -20 6 -20 7 0 10 4 7 8 -3 5 2 21 9 36 13 25 13 27 0 22 -8 -3 -15
-1 -15 4 0 6 5 10 11 10 17 0 49 -20 49 -31 0 -6 -4 -7 -10 -4 -6 4 -10 -6
-10 -22 1 -27 1 -28 17 -8 13 16 15 17 10 3 -4 -10 -2 -18 3 -18 15 0 12 43
-6 68 -17 24 -62 30 -82 10z m88 -215 c0 -18 -5 -33 -11 -33 -6 0 -9 7 -5 15
3 8 1 26 -4 39 -5 13 -6 27 -3 30 11 10 23 -17 23 -51z m-86 -9 c3 -8 2 -12
-4 -9 -6 3 -10 10 -10 16 0 14 7 11 14 -7z"/>
<path d="M2448 2172 c2 -16 10 -29 18 -29 17 0 17 0 2 32 -15 33 -26 32 -20
-3z"/>
<path d="M2500 2181 c0 -11 6 -22 13 -24 9 -4 8 -8 -3 -16 -8 -5 -11 -13 -7
-18 10 -9 27 16 27 40 0 9 7 17 16 17 14 0 14 -3 3 -16 -8 -10 -9 -18 -3 -22
6 -4 11 -23 12 -42 1 -19 10 -72 19 -117 12 -64 19 -83 32 -82 10 0 12 2 4 6
-7 2 -13 12 -13 20 0 12 5 11 19 -6 11 -13 24 -20 29 -18 4 3 6 50 4 104 -2
54 -4 119 -4 146 0 34 -4 47 -14 47 -20 0 -18 -64 3 -98 17 -26 17 -26 0 -13
-15 12 -17 11 -18 -15 -2 -49 2 -79 12 -82 5 -2 6 -15 3 -28 -4 -15 -2 -24 5
-24 6 0 11 -4 11 -10 0 -5 -4 -10 -9 -10 -14 0 -41 60 -41 92 0 15 -3 28 -7
28 -5 0 -9 20 -9 44 -1 24 -4 60 -8 80 -6 33 -10 36 -41 36 -28 0 -35 -4 -35
-19z"/>
<path d="M2689 2191 c0 -3 -2 -16 -5 -28 -5 -31 2 -29 20 5 13 25 13 29 0 29
-8 0 -14 -3 -15 -6z"/>
<path d="M2806 2178 c-20 -28 -20 -38 -1 -38 8 0 15 -4 15 -10 0 -5 -7 -10
-15 -10 -13 0 -15 -16 -12 -100 3 -70 1 -98 -7 -90 -12 12 -43 13 -50 1 -11
-17 4 -37 36 -49 43 -16 61 -2 43 36 -9 18 -10 41 -5 72 l7 45 3 -50 c1 -27 2
-53 1 -57 0 -5 10 -8 23 -8 13 0 27 -6 30 -12 8 -20 36 21 36 51 -1 25 -1 25
-15 7 -7 -10 -18 -15 -24 -11 -7 3 -8 0 -5 -9 4 -10 1 -16 -9 -16 -18 0 -23
37 -22 150 0 68 3 85 15 85 10 0 15 -10 15 -27 -1 -23 4 -28 22 -28 19 0 23 5
23 29 0 16 -7 37 -16 45 -23 24 -70 20 -88 -6z m31 -8 c-30 -24 -38 -25 -31
-6 5 13 21 21 48 25 5 0 -3 -8 -17 -19z m57 -6 c9 -23 7 -34 -5 -34 -5 0 -7 5
-4 10 4 6 1 17 -5 25 -7 9 -8 15 -2 15 5 0 13 -7 16 -16z m-70 -68 c-6 -16
-24 -13 -24 5 0 6 5 7 10 4 6 -3 10 -1 10 6 0 7 2 10 5 7 3 -3 3 -13 -1 -22z
m-1 -40 c4 -10 1 -13 -8 -9 -8 3 -12 9 -9 14 7 12 11 11 17 -5z m67 -126 c0
-5 -5 -10 -11 -10 -5 0 -7 5 -4 10 3 6 8 10 11 10 2 0 4 -4 4 -10z"/>
<path d="M2941 2114 c-1 -57 2 -84 10 -84 6 0 9 7 6 14 -4 10 -1 13 8 9 11 -4
12 -10 4 -24 -5 -11 -7 -23 -4 -28 3 -5 2 -17 -2 -28 -6 -14 -9 -11 -15 17 -5
25 -6 19 -3 -22 2 -36 -1 -59 -9 -62 -6 -2 0 -5 13 -5 17 -1 22 3 17 14 -3 8
-1 15 5 15 6 0 10 19 9 43 -3 62 -1 67 15 67 12 0 15 -13 15 -55 0 -48 10 -70
23 -47 2 4 2 1 1 -5 -2 -7 1 -13 6 -13 14 0 12 114 -2 128 -9 9 -9 15 0 24 18
18 15 94 -4 112 -20 21 -31 20 -37 -1 -4 -15 -5 -15 -6 -2 -1 10 -10 17 -25
17 -23 0 -24 -3 -25 -84z m89 56 c0 -5 -2 -10 -4 -10 -3 0 -8 5 -11 10 -3 6
-1 10 4 10 6 0 11 -4 11 -10z m-20 -47 c1 -21 7 -56 15 -78 18 -48 18 -55 5
-55 -5 0 -10 11 -10 25 0 14 -7 28 -16 32 -8 3 -13 12 -10 19 3 8 -1 14 -10
14 -9 0 -12 -5 -8 -12 4 -7 3 -10 -1 -5 -5 4 -10 18 -12 30 -2 18 -1 19 7 7 9
-12 11 -9 9 15 -2 42 -1 45 16 45 11 0 15 -11 15 -37z m27 5 c-3 -8 -6 -5 -6
6 -1 11 2 17 5 13 3 -3 4 -12 1 -19z m0 -33 c0 -8 -4 -15 -9 -15 -4 0 -8 7 -8
15 0 8 4 15 8 15 5 0 9 -7 9 -15z m-67 -149 c0 -3 -4 -8 -10 -11 -5 -3 -10 -1
-10 4 0 6 5 11 10 11 6 0 10 -2 10 -4z"/>
<path d="M3080 2049 c0 -82 3 -149 6 -149 3 0 13 8 22 17 16 16 17 16 20 0 5
-25 42 -22 42 4 0 15 -5 20 -22 17 -21 -3 -24 2 -29 52 l-7 55 2 -58 c0 -32
-3 -57 -9 -57 -6 0 -10 26 -10 59 0 33 4 57 9 53 6 -3 6 3 1 14 -14 34 -18 64
-8 64 5 0 9 -10 9 -21 -1 -12 4 -24 9 -26 6 -2 9 19 8 52 0 30 3 55 8 55 5 0
9 -4 9 -10 0 -5 7 -10 15 -10 8 0 15 9 15 19 0 16 -7 19 -45 19 l-45 0 0 -149z
m80 -129 c0 -5 -5 -10 -11 -10 -5 0 -7 5 -4 10 3 6 8 10 11 10 2 0 4 -4 4 -10z"/>
<path d="M3190 2079 c0 -104 2 -120 14 -110 11 10 16 8 24 -5 7 -12 15 -15 28
-9 18 7 18 8 -2 17 -16 7 -22 24 -30 83 -9 77 -8 95 6 95 4 0 11 -36 15 -81 5
-58 11 -79 20 -76 8 4 11 -3 9 -21 -2 -22 1 -27 19 -28 20 -1 22 4 27 65 2 36
4 90 5 119 0 44 2 50 13 35 6 -9 12 -28 13 -42 0 -14 2 -36 3 -48 1 -12 -1
-20 -6 -17 -4 3 -8 -31 -8 -75 0 -50 4 -81 11 -81 5 0 7 5 4 10 -3 6 -2 10 4
10 5 0 12 -6 14 -12 4 -10 6 -9 6 1 1 8 -7 20 -16 27 -17 13 -17 14 0 8 16 -6
17 4 17 125 l0 131 -36 0 -37 0 6 -40 c3 -23 1 -40 -5 -40 -5 0 -8 -24 -6 -57
3 -32 1 -69 -3 -83 l-7 -25 -1 26 c-1 14 -6 30 -12 36 -5 5 -10 30 -11 54 0
24 -5 47 -12 51 -7 5 -7 8 -1 8 7 0 9 15 7 35 -4 32 -7 35 -38 35 l-34 0 0
-121z m43 82 c-10 -2 -22 -8 -26 -15 -6 -7 -7 -4 -3 7 3 10 6 23 6 28 0 5 9 4
20 -3 19 -12 19 -13 3 -17z m-20 -131 c3 -11 1 -18 -4 -14 -5 3 -9 12 -9 20 0
20 7 17 13 -6z"/>
<path d="M2508 2075 c-2 -19 0 -35 4 -35 4 0 8 16 8 35 0 19 -2 35 -4 35 -2 0
-6 -16 -8 -35z"/>
<path d="M2530 2065 c0 -14 -7 -28 -15 -31 -12 -5 -14 -21 -13 -70 3 -53 6
-64 21 -64 15 0 17 11 16 95 0 52 -3 95 -5 95 -2 0 -4 -11 -4 -25z"/>
<path d="M3132 2065 c-7 -8 -11 -15 -10 -16 30 -8 38 -5 38 12 0 22 -10 24
-28 4z"/>
<path d="M1976 2037 c3 -10 9 -15 12 -12 3 3 0 11 -7 18 -10 9 -11 8 -5 -6z"/>
<path d="M1952 2020 c0 -14 2 -19 5 -12 2 6 2 18 0 25 -3 6 -5 1 -5 -13z"/>
<path d="M1722 2005 c0 -16 2 -22 5 -12 2 9 2 23 0 30 -3 6 -5 -1 -5 -18z"/>
<path d="M2740 2015 c0 -8 5 -15 10 -15 6 0 10 7 10 15 0 8 -4 15 -10 15 -5 0
-10 -7 -10 -15z"/>
<path d="M2006 1994 c-10 -39 3 -94 23 -93 10 0 11 2 3 6 -6 2 -10 9 -7 14 3
5 1 18 -5 30 -9 15 -9 24 -1 32 8 8 11 4 11 -13 0 -22 19 -67 20 -47 0 21 -23
97 -30 97 -4 0 -11 -12 -14 -26z"/>
<path d="M1571 1983 c0 -11 3 -13 6 -5 7 19 23 14 17 -5 -5 -15 -4 -16 5 -3
16 22 13 30 -9 30 -13 0 -20 -6 -19 -17z"/>
<path d="M2870 1985 c0 -8 3 -15 6 -15 3 0 12 7 20 15 14 13 13 15 -5 15 -12
0 -21 -6 -21 -15z"/>
<path d="M1640 1957 c0 -13 10 -32 23 -43 22 -19 22 -19 5 2 -10 11 -18 28
-18 37 0 8 8 18 18 20 13 4 11 5 -5 6 -18 1 -23 -4 -23 -22z"/>
<path d="M3203 1954 c-21 -21 -16 -54 7 -54 14 0 20 7 20 23 0 34 -12 48 -27
31z"/>
<path d="M1712 1940 c-7 -11 -8 -20 -3 -20 9 0 24 30 18 36 -1 2 -8 -6 -15
-16z"/>
<path d="M1565 1929 c-4 -6 -17 -14 -29 -19 -16 -6 -12 -8 18 -6 25 1 41 7 44
16 3 13 2 13 -7 0 -10 -13 -15 -8 -12 13 2 11 -7 9 -14 -4z"/>
<path d="M1729 1918 c-12 -23 -12 -23 10 -4 23 21 26 26 11 26 -5 0 -15 -10
-21 -22z"/>
<path d="M1790 1934 c0 -17 23 -34 45 -33 14 0 16 2 5 6 -8 3 -23 12 -32 21
-10 8 -18 11 -18 6z"/>
<path d="M3262 1921 c4 -20 40 -21 46 -1 5 13 3 13 -12 1 -14 -12 -16 -12 -11
1 4 9 0 15 -10 15 -9 0 -15 -7 -13 -16z"/>
<path d="M3450 1925 c-14 -17 -35 -21 -25 -5 3 6 1 10 -4 10 -6 0 -11 -7 -11
-15 0 -9 9 -15 25 -15 14 0 25 5 25 10 0 14 27 13 36 -2 5 -7 2 -9 -9 -5 -11
4 -14 2 -10 -9 6 -16 29 -19 38 -4 9 14 -17 50 -36 50 -9 0 -22 -7 -29 -15z"/>
<path d="M3010 1910 c0 -5 5 -10 10 -10 6 0 10 5 10 10 0 6 -4 10 -10 10 -5 0
-10 -4 -10 -10z"/>
<path d="M747 1873 c-10 -9 -9 -103 1 -103 4 0 7 25 7 55 1 30 0 55 -1 55 0 0
-4 -3 -7 -7z"/>
<path d="M785 1863 c3 -8 5 -33 6 -56 1 -50 6 -40 12 24 3 35 1 46 -10 46 -8
0 -12 -6 -8 -14z"/>
<path d="M1116 1871 c-4 -6 -2 -11 3 -11 6 0 11 -18 11 -40 0 -22 -4 -40 -9
-40 -5 0 -9 14 -9 30 1 17 -2 34 -6 38 -4 4 -6 -11 -4 -33 4 -58 32 -55 36 4
3 44 -9 73 -22 52z"/>
<path d="M1276 1873 c-9 -10 -7 -25 3 -19 5 3 9 -12 9 -34 1 -23 -3 -38 -9
-35 -5 4 -9 1 -9 -4 0 -6 7 -11 15 -11 11 0 15 12 15 49 0 47 -9 68 -24 54z"/>
<path d="M2890 1872 c0 -12 49 -37 56 -29 4 3 4 13 1 22 -7 15 -57 22 -57 7z"/>
<path d="M694 1817 c0 -28 2 -41 4 -27 l4 24 14 -24 13 -25 1 28 c0 15 -4 27
-10 27 -5 0 -10 11 -10 25 0 14 -3 25 -7 25 -5 0 -8 -24 -9 -53z"/>
<path d="M832 1850 c0 -14 4 -38 8 -55 l8 -30 0 30 c0 17 -4 41 -8 55 l-8 25
0 -25z"/>
<path d="M853 1850 c-1 -11 2 -20 8 -20 5 0 9 9 9 20 0 11 -4 20 -8 20 -4 0
-8 -9 -9 -20z"/>
<path d="M882 1850 c0 -14 2 -19 5 -12 2 6 2 18 0 25 -3 6 -5 1 -5 -13z"/>
<path d="M910 1850 c0 -11 2 -20 4 -20 2 0 6 9 9 20 3 11 1 20 -4 20 -5 0 -9
-9 -9 -20z"/>
<path d="M1010 1845 c0 -14 5 -25 10 -25 6 0 10 -9 10 -21 0 -11 -4 -17 -10
-14 -5 3 -10 1 -10 -5 0 -7 6 -10 13 -8 16 6 22 58 6 58 -6 0 -9 8 -6 20 3 11
1 20 -4 20 -5 0 -9 -11 -9 -25z"/>
<path d="M1051 1848 c0 -16 4 -28 9 -28 6 0 10 -9 10 -21 0 -11 -4 -17 -10
-14 -5 3 -10 1 -10 -4 0 -6 7 -11 15 -11 10 0 15 10 15 30 0 17 -4 30 -9 30
-5 0 -12 10 -14 23 -4 19 -4 18 -6 -5z"/>
<path d="M1157 1864 c8 -4 9 -15 2 -37 -11 -39 -11 -57 -1 -57 4 0 8 11 8 25
1 14 5 36 8 50 5 20 3 25 -11 24 -10 0 -13 -3 -6 -5z"/>
<path d="M1237 1848 c-4 -13 -1 -26 6 -30 9 -6 9 -8 -1 -8 -7 0 -10 -4 -7 -10
14 -23 25 -8 23 30 -3 44 -13 52 -21 18z"/>
<path d="M1371 1838 c-1 -21 4 -38 9 -38 12 0 12 27 0 55 -7 16 -9 13 -9 -17z"/>
<path d="M1203 1815 c0 -22 2 -30 4 -17 2 12 2 30 0 40 -3 9 -5 -1 -4 -23z"/>
<path d="M1327 1844 c-11 -11 -8 -62 3 -69 6 -4 7 -11 4 -17 -4 -6 -1 -9 7 -6
9 3 14 20 14 48 0 40 -12 59 -28 44z m23 -34 c0 -16 -4 -30 -10 -30 -11 0 -14
43 -3 53 11 12 13 8 13 -23z"/>
<path d="M912 1795 c0 -16 2 -22 5 -12 2 9 2 23 0 30 -3 6 -5 -1 -5 -18z"/>
<path d="M960 1794 c0 -14 4 -23 10 -19 6 3 10 15 10 26 0 10 -4 19 -10 19 -5
0 -10 -12 -10 -26z"/>
<path d="M872 1790 c0 -14 2 -19 5 -12 2 6 2 18 0 25 -3 6 -5 1 -5 -13z"/>
<path d="M1371 1774 c0 -11 3 -14 6 -6 3 7 2 16 -1 19 -3 4 -6 -2 -5 -13z"/>
</g>
</svg>
