<?xml version="1.0" standalone="no"?>
<!DOCTYPE svg PUBLIC "-//W3C//DTD SVG 20010904//EN"
 "http://www.w3.org/TR/2001/REC-SVG-20010904/DTD/svg10.dtd">
<svg version="1.0" xmlns="http://www.w3.org/2000/svg"
 width="320.000000pt" height="601.000000pt" viewBox="0 0 320.000000 601.000000"
 preserveAspectRatio="xMidYMid meet">

<g transform="translate(0.000000,601.000000) scale(0.100000,-0.100000)"
fill="#000000" stroke="none">
<path d="M287 5728 c-9 -5 -11 -55 -10 -166 l2 -158 39 -104 c90 -237 82 -125
82 -1150 l0 -908 50 -12 c45 -11 50 -15 50 -40 0 -16 -4 -32 -10 -35 -6 -4 -5
-13 3 -25 9 -16 9 -24 -1 -40 -7 -11 -8 -20 -3 -20 15 0 9 -121 -6 -127 -11
-4 -10 -9 4 -25 21 -24 7 -53 -26 -52 -15 0 -18 -3 -11 -10 16 -16 12 -26 -9
-26 -16 0 -19 7 -19 45 1 25 5 48 10 51 4 3 4 13 -1 23 -6 10 -10 62 -9 117 0
130 0 134 -12 134 -7 0 -10 -318 -10 -935 0 -514 4 -935 8 -935 5 0 32 11 60
25 29 14 58 25 65 25 8 0 22 9 32 20 16 18 17 32 10 162 -4 79 -12 652 -17
1273 -4 622 -9 1164 -10 1205 0 41 4 111 10 155 6 44 12 166 13 270 1 105 5
242 9 305 6 112 7 111 10 -85 2 -110 3 -258 2 -328 l-1 -129 63 59 c97 91 197
114 289 67 28 -15 33 -15 58 0 30 18 85 21 123 6 16 -6 27 -6 31 0 4 6 14 10
24 10 17 0 27 -16 44 -72 5 -15 13 -13 76 13 88 37 310 94 425 109 132 18 389
8 496 -19 130 -33 224 -83 301 -160 71 -71 102 -133 119 -241 l9 -55 -4 64
c-3 35 -5 247 -5 471 l0 408 -27 7 c-53 14 -248 21 -375 13 -242 -14 -534 -75
-787 -164 -68 -24 -125 -44 -127 -44 -3 0 -3 71 -2 158 l3 157 105 36 c58 21
192 58 298 85 105 26 191 48 190 49 -10 7 -450 -15 -479 -24 -28 -9 -52 -8
-105 3 -52 11 -87 12 -142 6 -121 -16 -222 -14 -309 5 -46 10 -83 22 -83 27 0
5 296 8 658 8 400 0 680 4 717 10 146 24 402 6 561 -40 56 -17 108 -30 115
-30 10 0 24 41 45 128 27 111 31 147 33 290 2 128 0 162 -11 163 -114 5 -2623
2 -2631 -3z m353 -32 c8 -2 -23 -4 -70 -4 -47 0 -75 3 -62 7 22 6 99 4 132 -3z
m2075 4 c16 -7 12 -9 -18 -9 -23 -1 -36 3 -32 9 7 12 23 12 50 0z m-1077 -7
c-10 -2 -28 -2 -40 0 -13 2 -5 4 17 4 22 1 32 -1 23 -4z m-991 -40 c-20 -2
-52 -2 -70 0 -17 2 0 4 38 4 39 0 53 -2 32 -4z m2086 0 c-13 -2 -33 -2 -45 0
-13 2 -3 4 22 4 25 0 35 -2 23 -4z m-2013 -42 c37 -7 28 -9 -55 -10 -68 0 -95
2 -85 9 18 11 77 12 140 1z m2020 -1 c10 -7 -6 -9 -55 -9 -50 1 -63 3 -45 9
35 11 82 11 100 0z m-1482 -7 c-10 -2 -28 -2 -40 0 -13 2 -5 4 17 4 22 1 32
-1 23 -4z m489 1 c-3 -3 -12 -4 -19 -1 -8 3 -5 6 6 6 11 1 17 -2 13 -5z m630
0 c-3 -3 -12 -4 -19 -1 -8 3 -5 6 6 6 11 1 17 -2 13 -5z m-1614 -41 c-23 -2
-64 -2 -90 0 -26 2 -7 3 42 3 50 0 71 -1 48 -3z m1964 0 c-20 -2 -52 -2 -70 0
-17 2 0 4 38 4 39 0 53 -2 32 -4z m-1902 -43 c20 -5 -4 -8 -70 -8 -64 0 -93 2
-80 8 24 10 109 10 150 0z m1875 0 c11 -7 0 -10 -38 -10 -33 0 -51 4 -47 10 8
13 65 13 85 0z m-1227 -7 c-13 -2 -35 -2 -50 0 -16 2 -5 4 22 4 28 0 40 -2 28
-4z m-638 -42 c-11 -19 19 -23 171 -22 150 2 156 1 174 -21 11 -13 19 -26 20
-29 0 -3 -45 -9 -100 -13 -84 -6 -110 -4 -164 13 -35 11 -91 23 -123 26 -32 4
-71 8 -88 10 -16 2 -61 4 -100 5 l-70 2 69 14 c38 8 71 16 74 19 10 9 143 5
137 -4z m1130 -2 l60 -2 -45 -8 c-25 -4 -102 -8 -172 -8 -70 -1 -129 -5 -132
-10 -3 -5 12 -16 34 -25 36 -14 71 -15 333 -6 331 13 493 23 521 35 14 6 17 5
12 -3 -8 -14 -4 -14 107 -12 77 1 78 1 67 -20 -6 -11 -36 -37 -66 -57 -59 -39
-57 -51 9 -52 34 -1 29 -13 -15 -34 -48 -22 -81 -29 -97 -18 -13 8 -13 12 0
27 13 16 9 17 -76 10 -49 -4 -176 -11 -282 -14 -105 -4 -194 -10 -198 -14 -10
-9 53 -22 110 -21 l50 1 -45 -9 c-32 -7 -72 -5 -139 7 -51 8 -132 15 -180 15
-85 0 -220 16 -233 28 -3 3 -8 23 -11 44 -3 21 -8 41 -11 44 -11 12 17 33 44
33 14 0 30 3 33 7 13 12 -28 32 -66 33 -21 0 -48 5 -60 12 -19 10 -19 12 -5
17 15 5 221 5 453 0z m-1358 -126 c52 -4 70 -9 66 -18 -5 -15 -94 -56 -105
-49 -3 2 -21 23 -40 46 -26 33 -29 40 -13 34 11 -4 52 -10 92 -13z m84 -124
c28 -15 15 -27 -37 -35 -55 -8 -81 9 -50 32 23 17 60 18 87 3z m594 -850 c4
-6 -1 -17 -11 -25 -17 -12 -17 -13 -1 -8 9 3 17 1 17 -5 0 -6 -12 -11 -26 -11
-20 0 -25 4 -20 16 3 8 2 12 -4 9 -14 -9 -12 9 2 23 15 15 35 15 43 1z m1235
-4 c17 -20 5 -45 -20 -45 -23 0 -35 22 -26 45 7 19 30 19 46 0z m-2026 -595
c21 -8 26 -16 26 -46 0 -27 -4 -35 -14 -31 -10 4 -12 0 -9 -14 3 -10 0 -26 -7
-34 -10 -13 -9 -15 9 -15 14 0 21 -6 21 -20 0 -11 -6 -20 -12 -21 -10 0 -10
-2 0 -6 17 -7 15 -33 -3 -33 -11 0 -13 -7 -9 -29 4 -16 1 -32 -5 -35 -8 -5 -8
-13 0 -27 16 -30 4 -49 -31 -49 -16 0 -31 3 -32 8 -6 33 -3 170 5 180 6 8 6
12 -2 12 -7 0 -11 20 -11 50 0 36 5 52 18 60 16 10 16 10 0 20 -47 29 -2 52
56 30z m9 -406 c20 -6 23 -34 3 -34 -9 0 -13 -11 -12 -32 1 -31 -1 -33 -34
-33 l-35 0 -2 58 -2 58 32 -6 c18 -4 40 -9 50 -11z m-43 -559 c0 -8 -9 -15
-20 -15 -11 0 -20 7 -20 15 0 8 9 15 20 15 11 0 20 -7 20 -15z m0 -38 c0 -19
-10 -27 -26 -20 -21 8 -17 33 6 33 11 0 20 -6 20 -13z m43 -73 c19 -6 24 -34
5 -34 -9 0 -9 -3 0 -12 15 -15 16 -68 1 -68 -8 0 -7 -5 2 -16 10 -13 10 -17
-2 -26 -11 -7 -11 -11 -1 -15 14 -6 16 -33 2 -33 -6 0 -5 -8 2 -20 14 -22 3
-39 -14 -22 -7 7 -19 12 -27 12 -11 0 -8 -5 8 -16 18 -13 22 -23 17 -46 -4
-20 -1 -30 9 -34 8 -4 15 -12 15 -19 0 -15 -42 -28 -50 -15 -3 5 -14 8 -25 7
-18 -2 -20 5 -23 76 -3 68 -1 77 15 77 17 1 17 1 1 11 -12 6 -18 22 -18 44 0
29 4 35 23 36 l22 2 -22 4 c-19 4 -23 11 -23 39 0 20 5 34 13 35 10 0 10 2 0
6 -7 2 -13 14 -13 25 0 20 16 20 83 2z m17 -429 c0 -33 -4 -45 -14 -45 -20 0
-29 17 -30 57 -1 28 2 33 22 33 19 0 22 -5 22 -45z"/>
<path d="M2506 4343 c-6 -14 -5 -15 5 -6 7 7 10 15 7 18 -3 3 -9 -2 -12 -12z"/>
<path d="M451 2626 c2 -2 18 -6 34 -10 22 -5 26 -4 15 4 -14 9 -59 15 -49 6z"/>
<path d="M450 2540 c0 -5 5 -10 11 -10 5 0 7 5 4 10 -3 6 -8 10 -11 10 -2 0
-4 -4 -4 -10z"/>
<path d="M2186 5142 c-6 -10 20 -137 31 -155 3 -5 9 -5 14 0 11 11 41 154 34
162 -9 9 -22 -18 -30 -63 l-7 -41 -13 48 c-15 54 -20 63 -29 49z"/>
<path d="M2290 5080 c0 -38 1 -73 3 -77 1 -5 22 -8 46 -8 34 -1 45 3 49 17 6
24 38 23 45 -2 3 -11 11 -20 17 -20 8 0 10 8 6 23 -3 12 -11 48 -17 80 -16 81
-38 75 -57 -16 -14 -64 -16 -67 -43 -67 -24 0 -29 4 -29 25 0 18 5 25 20 25
11 0 20 5 20 10 0 6 -9 10 -20 10 -15 0 -20 7 -20 25 0 18 5 25 20 25 11 0 20
5 20 10 0 6 -13 10 -30 10 l-30 0 0 -70z m126 -27 c-11 -11 -19 6 -11 24 8 17
8 17 12 0 3 -10 2 -21 -1 -24z"/>
<path d="M2470 5082 c0 -76 20 -110 58 -98 24 8 32 34 32 104 0 40 -4 52 -15
52 -12 0 -15 -14 -15 -66 0 -57 -2 -65 -17 -62 -15 3 -19 16 -21 71 -4 88 -22
87 -22 -1z"/>
<path d="M2138 5068 c-4 -89 -21 -93 -28 -6 -7 87 -30 91 -30 6 0 -81 16 -108
54 -90 30 13 38 40 34 107 -5 80 -27 68 -30 -17z"/>
<path d="M1939 5118 c-1 -7 0 -28 1 -45 2 -43 -13 -42 -29 2 -7 19 -19 35 -27
35 -12 0 -14 -15 -12 -85 3 -93 20 -115 28 -38 l5 48 14 -42 c24 -73 41 -55
41 41 0 47 -4 88 -10 91 -5 3 -10 0 -11 -7z"/>
<path d="M1990 5101 c-14 -27 -13 -114 2 -129 18 -18 46 -14 58 7 11 21 14
100 4 125 -9 22 -51 20 -64 -3z m48 -52 c2 -48 -9 -76 -27 -65 -12 8 -15 74
-5 101 11 29 29 9 32 -36z"/>
<path d="M1781 5062 c-6 -12 -11 -32 -11 -46 0 -37 -18 -32 -22 6 -5 49 -26
46 -33 -6 -8 -49 -25 -53 -25 -6 0 28 -14 48 -23 33 -6 -10 18 -142 27 -151
11 -10 26 20 26 50 0 43 17 41 24 -2 6 -42 21 -53 29 -22 13 44 29 153 24 158
-3 3 -10 -3 -16 -14z"/>
<path d="M1618 5028 c-27 -9 -28 -11 -28 -90 0 -69 2 -79 16 -74 9 3 22 6 30
6 8 0 14 6 14 14 0 9 -7 12 -20 9 -15 -4 -20 0 -20 15 0 12 9 26 20 32 11 6
20 15 20 19 0 5 -9 7 -20 4 -16 -4 -20 0 -20 17 0 13 8 24 20 27 11 3 20 12
20 19 0 8 -1 14 -2 13 -2 0 -15 -5 -30 -11z"/>
<path d="M1548 4978 l-3 -53 -19 43 c-10 23 -22 42 -27 42 -5 0 -9 -40 -9 -90
0 -53 4 -90 10 -90 6 0 10 24 11 53 l0 52 17 -42 c27 -72 42 -55 42 47 0 96
-17 125 -22 38z"/>
<path d="M1820 5004 c0 -14 3 -14 15 -4 8 7 15 14 15 16 0 2 -7 4 -15 4 -8 0
-15 -7 -15 -16z"/>
<path d="M2667 4383 c1 -435 3 -497 17 -505 9 -5 13 -15 9 -25 -5 -12 -3 -14
7 -8 9 5 11 4 6 -3 -4 -7 -14 -12 -22 -12 -8 0 -14 -7 -14 -15 0 -10 14 -17
40 -21 50 -8 47 -29 -3 -29 -36 0 -37 -1 -37 -37 0 -40 22 -70 45 -62 17 7 10
24 -10 24 -17 0 -30 39 -17 52 5 5 20 8 33 6 20 -3 24 -9 27 -46 2 -32 -1 -47
-14 -56 -15 -12 -15 -13 0 -19 32 -12 15 -25 -26 -20 l-43 5 28 -16 c15 -8 34
-13 42 -9 9 3 15 -1 15 -11 0 -11 -9 -16 -26 -16 -14 0 -23 -4 -19 -10 3 -5
15 -10 26 -10 26 0 27 -55 2 -65 -17 -6 -17 -7 0 -16 30 -17 19 -27 -23 -22
l-40 6 0 -202 c0 -123 4 -201 10 -201 5 0 7 7 3 16 -5 12 1 15 27 12 19 -2 35
-9 38 -17 3 -9 -2 -11 -17 -6 -11 3 -21 2 -21 -3 0 -5 9 -12 20 -15 37 -10 21
-25 -21 -20 l-40 6 3 -58 c2 -41 7 -60 18 -63 12 -4 13 -2 3 9 -10 13 -7 15
22 15 37 0 42 -5 23 -24 -9 -9 -9 -12 0 -12 7 0 12 -5 12 -11 0 -6 -15 -9 -37
-7 l-38 3 -3 -120 c-2 -106 -1 -117 12 -100 12 16 17 18 40 7 19 -9 25 -18 24
-38 -2 -24 -5 -25 -40 -20 l-38 6 0 -118 c0 -66 -3 -147 -6 -180 l-7 -61 47
-13 c44 -12 62 -28 31 -28 -8 0 -15 -5 -15 -10 0 -6 7 -13 15 -16 34 -13 14
-26 -30 -20 l-45 7 0 -136 0 -137 28 7 c30 7 55 33 110 115 l37 55 0 1385 0
1385 -65 22 c-118 39 -105 96 -103 -474z m81 -1016 c7 -38 -4 -47 -37 -31 -46
23 -40 58 9 52 14 -2 26 -10 28 -21z m-10 -99 c7 -7 12 -20 12 -30 0 -18 -9
-22 -40 -19 -8 1 -3 -8 13 -20 29 -22 28 -39 -4 -39 -11 0 -17 -4 -14 -10 3
-5 15 -10 26 -10 15 0 19 -7 19 -31 0 -29 -2 -31 -27 -24 -15 3 -31 11 -34 17
-10 16 -3 72 10 76 9 3 9 7 0 18 -7 8 -9 17 -6 21 4 3 2 12 -4 19 -26 31 20
61 49 32z m32 -333 c0 -3 -9 -5 -20 -5 -11 0 -20 7 -20 15 0 13 4 14 20 5 11
-6 20 -13 20 -15z m-22 -108 c7 -38 -4 -47 -37 -31 -46 23 -40 58 9 52 14 -2
26 -10 28 -21z m-17 -57 c25 -14 25 -50 -1 -57 -23 -6 -27 -23 -6 -23 15 0 31
-18 24 -25 -10 -10 -61 13 -64 28 -1 9 2 17 7 17 6 0 5 9 -1 21 -9 15 -8 24 1
35 14 17 15 17 40 4z m-3 -226 c16 -5 22 -14 22 -36 0 -27 -3 -30 -22 -24 -13
3 -26 6 -29 6 -11 0 -19 29 -13 45 7 17 9 17 42 9z m3 -114 c26 -14 24 -49 -3
-59 l-22 -8 22 -12 c30 -16 28 -28 -5 -34 -37 -7 -50 3 -28 20 11 7 14 13 6
13 -7 0 -11 6 -8 13 2 6 0 20 -5 30 -6 12 -5 23 3 33 14 17 15 17 40 4z m17
-159 c4 -26 -17 -55 -25 -33 -3 6 -11 12 -18 12 -18 0 -28 17 -21 36 10 25 60
14 64 -15z"/>
<path d="M1690 4364 c-177 -27 -470 -121 -470 -150 0 -8 26 -1 70 17 212 89
382 124 610 124 152 -1 185 -4 255 -23 201 -58 321 -159 354 -299 l9 -38 1 35
c1 30 3 32 12 17 6 -11 9 -54 7 -102 -3 -74 -8 -92 -45 -166 -23 -46 -35 -75
-27 -64 31 39 75 143 85 203 31 177 -90 341 -305 411 -152 50 -366 63 -556 35z"/>
<path d="M1931 4325 c-4 -5 -39 -97 -77 -202 l-69 -193 -6 73 c-4 39 -7 130
-8 200 l-1 128 -57 -7 c-32 -3 -61 -8 -65 -11 -5 -2 -7 -230 -6 -506 l3 -502
2 488 c3 421 5 487 18 487 13 0 15 -67 18 -492 3 -469 12 -799 22 -861 8 -47
-18 -27 -40 31 -21 55 -35 66 -35 30 0 -35 -16 -56 -31 -41 -7 7 -14 18 -15
25 -2 7 -9 38 -17 68 -8 30 -17 78 -20 105 -3 28 -11 74 -17 103 -11 49 -14
53 -38 50 -16 -2 -31 -12 -37 -25 -8 -18 -23 -24 -83 -34 l-74 -12 7 -36 c4
-20 9 -71 12 -113 l4 -77 86 -20 c134 -31 138 -62 13 -98 -184 -53 -268 -96
-515 -267 -44 -31 -86 -56 -94 -56 -8 0 -36 14 -63 31 l-48 31 0 77 c0 42 3
86 6 98 3 12 49 55 103 96 53 40 137 104 186 142 50 38 94 72 99 76 4 4 -18
12 -50 19 -202 40 -356 128 -435 249 -14 23 -16 -58 -15 -972 1 -994 1 -997
21 -997 11 0 64 11 118 25 100 25 242 40 492 50 77 3 162 8 189 11 47 4 117
-14 203 -52 17 -8 37 -14 45 -14 13 0 38 -43 38 -66 0 -7 5 -14 11 -16 14 -5
30 -78 16 -75 -6 1 -15 -10 -20 -25 -14 -36 1 -52 71 -78 91 -34 153 -17 236
65 60 61 73 102 57 196 -6 39 -18 84 -26 100 -8 15 -15 30 -15 33 0 2 19 7 41
11 23 4 86 22 140 40 154 51 399 198 420 252 5 14 9 432 9 1046 l-1 1022 -27
-80 c-43 -125 -121 -234 -250 -347 -65 -57 -199 -148 -284 -193 -32 -17 -58
-32 -57 -35 0 -3 106 -57 235 -120 129 -63 241 -121 248 -130 7 -8 19 -49 26
-91 l12 -76 -28 -41 c-16 -23 -37 -41 -46 -42 -10 0 -86 25 -169 55 -84 30
-180 62 -213 71 -50 13 -255 42 -303 44 -7 0 -13 9 -13 20 0 15 20 30 81 60
65 33 79 44 74 58 -4 9 -10 61 -13 115 l-5 98 -69 -3 c-57 -2 -72 1 -79 15 -6
9 -20 17 -32 17 -20 1 -18 4 15 35 l37 35 3 121 3 122 93 -132 c52 -72 98
-131 104 -131 23 0 119 63 115 75 -3 6 -55 83 -116 169 l-111 156 110 267 c60
147 108 269 105 271 -11 11 -146 17 -154 7z m29 -43 c0 -5 -39 -100 -86 -213
-47 -112 -90 -215 -95 -228 -5 -13 -12 -22 -14 -19 -3 3 126 353 165 446 9 21
30 31 30 14z m-67 -724 c91 -119 109 -148 89 -148 -10 0 -212 284 -212 297 0
4 6 1 13 -8 7 -8 56 -72 110 -141z m-423 -693 c0 -8 -61 -37 -67 -32 -3 3 8
12 24 21 29 16 43 19 43 11z m-180 -89 c0 -2 -7 -7 -16 -10 -8 -3 -12 -2 -9 4
6 10 25 14 25 6z m-310 -322 c0 -8 -9 -14 -20 -14 -24 0 -32 -28 -28 -96 2
-40 7 -51 26 -59 29 -13 28 -35 -2 -35 -39 0 -56 35 -56 113 0 59 3 71 24 92
26 26 56 25 56 -1z m260 -25 c3 -30 7 -39 12 -26 4 9 14 17 23 17 13 0 13 -4
0 -38 -14 -34 -14 -42 0 -81 18 -53 18 -51 0 -51 -8 0 -18 12 -22 28 l-7 27
-6 -24 c-3 -14 -11 -26 -18 -29 -9 -3 -12 26 -12 113 0 89 3 116 13 113 6 -3
14 -24 17 -49z m90 31 c0 -11 -7 -20 -15 -20 -15 0 -21 21 -8 33 12 13 23 7
23 -13z m334 4 c20 -19 20 -37 2 -73 -9 -17 -11 -32 -5 -42 6 -10 9 -10 9 -1
0 6 6 12 13 12 9 0 13 -16 13 -53 l0 -53 -42 -2 c-53 -2 -68 15 -60 65 4 21 8
62 9 91 1 34 7 56 17 62 21 13 26 12 44 -6z m186 -10 c0 -8 -9 -14 -19 -14
-24 0 -31 -19 -31 -80 0 -62 7 -80 32 -80 26 0 18 -24 -9 -28 -35 -5 -53 33
-53 111 0 59 3 71 24 92 26 26 56 25 56 -1z m-780 -53 c5 -11 10 -41 10 -66 0
-55 -14 -85 -40 -85 -27 0 -50 38 -50 85 0 70 54 114 80 66z m104 -3 c34 -48
10 -148 -34 -148 -26 0 -40 30 -40 85 0 25 5 55 10 66 14 26 45 24 64 -3z
m156 -63 c0 -69 -3 -85 -15 -85 -12 0 -15 16 -15 85 0 69 3 85 15 85 12 0 15
-16 15 -85z m98 60 c7 -14 12 -37 12 -50 0 -21 -5 -25 -31 -25 -24 0 -30 -4
-27 -17 2 -11 13 -18 28 -18 34 0 33 -29 -2 -33 -34 -4 -58 29 -58 80 0 52 18
88 45 88 14 0 26 -10 33 -25z m92 10 c0 -8 -9 -15 -20 -15 -25 0 -25 -11 1
-44 13 -17 19 -37 17 -58 -3 -29 -7 -33 -35 -36 -28 -3 -33 0 -33 18 0 12 4
18 10 15 6 -4 18 -4 26 -1 12 5 11 12 -11 43 -28 41 -31 63 -13 81 17 17 58
15 58 -3z m400 4 c0 -6 -7 -17 -15 -25 -10 -10 -15 -35 -15 -75 0 -46 -3 -59
-15 -59 -12 0 -15 16 -15 85 l0 85 30 0 c17 0 30 -5 30 -11z m84 -11 c9 -12
16 -35 16 -50 0 -25 -4 -28 -31 -28 -24 0 -30 -4 -27 -17 2 -11 13 -18 26 -18
12 0 22 -4 22 -8 0 -4 0 -11 0 -17 0 -19 -49 -10 -64 12 -18 25 -21 100 -6
129 14 26 45 24 64 -3z m106 -4 c6 -14 10 -52 10 -85 l0 -59 -33 0 c-41 0 -57
15 -57 55 0 35 15 55 43 55 25 0 16 24 -11 28 -34 5 -27 32 8 32 24 0 33 -6
40 -26z m158 14 c7 -7 12 -37 12 -84 0 -59 -3 -74 -15 -74 -12 0 -15 15 -15
71 0 52 -3 70 -12 67 -8 -3 -14 -29 -16 -71 -2 -51 -6 -67 -17 -67 -12 0 -15
15 -15 70 0 89 -18 92 -22 3 -2 -42 -8 -68 -15 -71 -10 -3 -13 18 -13 82 l0
86 58 -1 c31 -1 63 -6 70 -11z m-1320 -244 c23 -16 32 -77 12 -89 -6 -4 -3
-16 7 -31 20 -31 6 -68 -31 -85 -49 -23 -56 -9 -56 104 0 57 3 107 7 110 11
12 37 8 61 -9z m72 -4 c0 -11 -7 -20 -15 -20 -8 0 -15 9 -15 20 0 11 7 20 15
20 8 0 15 -9 15 -20z m325 0 c0 -7 -6 -15 -12 -17 -8 -3 -13 4 -13 17 0 13 5
20 13 18 6 -3 12 -11 12 -18z m669 -40 c33 -72 31 -94 -7 -98 -35 -4 -34 -37
1 -36 16 0 22 -4 20 -15 -5 -23 -36 -26 -59 -5 -24 22 -26 109 -3 142 12 18
13 26 4 37 -11 14 -6 35 9 35 4 0 19 -27 35 -60z m-614 32 c0 -10 5 -23 12
-30 9 -9 9 -15 0 -24 -14 -14 -16 -118 -2 -118 6 0 10 -7 10 -15 0 -18 -24
-20 -38 -2 -9 11 -16 106 -13 180 1 30 31 39 31 9z m310 0 c0 -10 5 -23 12
-30 9 -9 9 -15 0 -24 -14 -14 -16 -118 -2 -118 6 0 10 -7 10 -16 0 -10 -7 -14
-22 -12 -21 3 -23 10 -29 83 -3 44 -3 92 -1 108 5 30 32 38 32 9z m-690 -118
c0 -68 -3 -84 -15 -84 -12 0 -15 16 -15 83 0 46 3 87 6 90 17 16 24 -11 24
-89z m79 83 c13 -16 5 -28 -14 -21 -24 10 -24 -13 0 -46 28 -38 32 -72 10 -90
-19 -16 -49 -9 -53 12 -2 12 2 15 17 11 27 -7 27 14 1 47 -11 14 -20 36 -20
51 0 42 35 64 59 36z m89 -10 c2 -10 -3 -17 -11 -17 -17 0 -27 -21 -27 -58 0
-34 14 -57 29 -48 7 5 11 -1 11 -13 0 -25 -31 -29 -49 -7 -16 19 -25 79 -17
110 12 49 57 72 64 33z m52 -58 c0 -39 4 -69 10 -69 6 0 10 6 11 13 0 6 1 37
2 67 2 41 6 55 17 55 12 0 15 -16 15 -80 l0 -80 -28 -3 c-46 -6 -57 12 -57 93
0 39 3 75 6 78 16 16 24 -9 24 -74z m258 57 c3 -14 0 -17 -12 -13 -27 10 -27
-10 -1 -49 29 -43 31 -57 9 -79 -21 -21 -58 -16 -62 8 -3 15 0 18 16 13 32
-11 36 12 8 45 -30 35 -33 61 -10 84 21 20 48 16 52 -9z m146 2 c9 -12 16 -37
16 -55 0 -30 -3 -33 -30 -33 -16 0 -30 -4 -30 -9 0 -16 27 -31 45 -25 13 5 16
2 13 -12 -5 -30 -59 -26 -75 6 -23 46 -12 120 21 142 17 12 24 10 40 -14z
m224 -1 c2 -12 -3 -17 -18 -17 -19 0 -21 -5 -18 -52 2 -44 6 -53 21 -52 12 1
17 -4 15 -14 -4 -23 -32 -26 -52 -7 -21 22 -22 113 0 143 18 26 47 26 52 -1z
m72 3 c0 -10 -7 -20 -15 -24 -11 -4 -15 -22 -15 -71 0 -51 -3 -65 -15 -65 -12
0 -15 16 -15 83 0 46 2 86 4 88 2 2 16 5 30 5 19 1 26 -3 26 -16z m246 -5 c19
-25 15 -146 -3 -153 -10 -3 -13 13 -13 56 0 33 -3 67 -6 76 -13 33 -24 2 -24
-65 0 -54 -3 -69 -15 -69 -11 0 -15 17 -17 73 -2 39 -7 72 -13 72 -5 0 -11
-33 -13 -73 -2 -52 -6 -72 -15 -69 -12 3 -23 137 -14 161 3 7 29 11 62 11 45
-1 60 -5 71 -20z m98 3 c9 -12 16 -37 16 -55 0 -30 -3 -33 -30 -33 -16 0 -30
-4 -30 -9 0 -16 27 -31 45 -25 13 5 16 2 13 -12 -4 -25 -41 -30 -62 -9 -32 33
-33 117 0 150 21 20 30 19 48 -7z m-939 -73 c0 -54 -4 -80 -12 -82 -10 -4 -13
17 -13 82 0 65 3 86 13 83 8 -3 12 -29 12 -83z"/>
<path d="M1630 2419 c0 -11 5 -17 10 -14 6 3 10 13 10 21 0 8 -4 14 -10 14 -5
0 -10 -9 -10 -21z"/>
<path d="M1620 2310 c0 -20 5 -30 15 -30 16 0 19 17 9 44 -10 26 -24 18 -24
-14z"/>
<path d="M1024 2376 c-9 -24 0 -89 14 -94 8 -3 12 12 12 52 0 53 -14 74 -26
42z"/>
<path d="M1130 2335 c0 -41 3 -56 13 -52 7 2 12 22 12 52 0 30 -5 50 -12 53
-10 3 -13 -12 -13 -53z"/>
<path d="M1386 2383 c-12 -12 -6 -33 9 -33 8 0 15 6 15 14 0 17 -14 28 -24 19z"/>
<path d="M1966 2383 c-12 -12 -6 -33 9 -33 8 0 15 6 15 14 0 17 -14 28 -24 19z"/>
<path d="M2060 2304 c0 -31 23 -28 28 4 2 15 -2 22 -12 22 -11 0 -16 -9 -16
-26z"/>
<path d="M910 2109 c0 -38 24 -35 28 4 2 19 -1 27 -12 27 -11 0 -16 -10 -16
-31z"/>
<path d="M917 2044 c-10 -11 -9 -52 2 -59 17 -10 32 30 18 49 -7 9 -16 14 -20
10z"/>
<path d="M1987 2093 c-13 -12 -7 -43 8 -43 8 0 15 6 15 13 0 18 -15 38 -23 30z"/>
<path d="M1607 2083 c-13 -12 -7 -33 8 -33 8 0 15 9 15 20 0 20 -11 26 -23 13z"/>
<path d="M2247 2083 c-13 -12 -7 -33 8 -33 8 0 15 9 15 20 0 20 -11 26 -23 13z"/>
<path d="M779 4317 c-53 -20 -95 -53 -128 -100 -39 -58 -55 -111 -54 -187 0
-70 17 -116 61 -162 l25 -28 35 37 c46 47 135 88 257 118 116 29 165 58 194
117 22 45 30 169 13 195 -4 7 -40 15 -79 19 -68 6 -72 5 -98 -20 l-26 -26 -39
20 c-53 27 -116 33 -161 17z m250 -34 c-23 -21 -36 -39 -30 -41 6 -2 11 -10
11 -18 0 -8 5 -14 10 -14 6 0 10 9 10 20 0 11 5 20 10 20 6 0 10 -14 10 -32 0
-29 1 -30 18 -15 25 23 59 21 72 -4 10 -18 8 -22 -19 -32 -17 -6 -31 -15 -31
-19 0 -12 14 -10 28 4 6 6 15 8 19 4 5 -4 -3 -16 -15 -27 -18 -14 -28 -16 -43
-8 -15 7 -23 6 -36 -6 -10 -10 -26 -15 -41 -12 -15 3 -32 -1 -41 -10 -9 -10
-26 -13 -47 -10 -23 4 -34 1 -38 -9 -7 -17 -66 -19 -67 -1 0 6 -5 2 -11 -10
-17 -36 -43 -28 -64 19 l-19 43 -5 -49 c-8 -74 -30 -72 -30 3 0 68 -11 83 -30
43 -12 -23 -14 -24 -18 -8 -2 10 9 44 25 75 37 72 105 121 167 120 l41 0 -40
-15 c-22 -8 -56 -31 -77 -51 l-37 -36 25 -48 c13 -27 26 -49 27 -49 1 0 1 17
-1 38 -2 24 1 42 10 49 14 11 127 33 171 33 49 0 28 -17 -35 -29 -35 -6 -75
-14 -89 -17 -20 -4 -26 -10 -22 -24 5 -18 5 -18 24 1 24 24 48 24 65 2 12 -17
13 -17 14 -1 0 16 28 31 60 32 10 1 15 11 14 31 -1 22 8 39 34 63 19 17 41 32
48 32 8 0 -4 -17 -27 -37z m111 -33 c0 -11 -68 -25 -77 -16 -7 7 34 24 60 25
9 1 17 -3 17 -9z m-10 -148 c0 -19 -81 -51 -155 -62 -136 -19 -245 -60 -270
-100 -11 -18 -25 -11 -25 15 0 19 10 30 48 49 66 33 112 45 226 56 64 6 112
17 135 29 43 24 41 23 41 13z"/>
<path d="M1090 4190 c0 -5 7 -7 15 -4 8 4 15 8 15 10 0 2 -7 4 -15 4 -8 0 -15
-4 -15 -10z"/>
<path d="M1010 4150 c0 -16 5 -30 10 -30 6 0 10 14 10 30 0 17 -4 30 -10 30
-5 0 -10 -13 -10 -30z"/>
<path d="M930 4159 c0 -5 4 -9 9 -9 5 0 16 -3 25 -6 10 -4 16 -1 16 7 0 8 -11
15 -25 15 -14 1 -25 -2 -25 -7z"/>
<path d="M835 4140 c-3 -5 1 -10 9 -10 9 0 16 5 16 10 0 6 -4 10 -9 10 -6 0
-13 -4 -16 -10z"/>
<path d="M886 4122 c-3 -5 8 -12 25 -14 16 -3 32 -1 35 4 3 4 -1 8 -10 8 -8 0
-21 3 -29 6 -8 3 -18 1 -21 -4z"/>
<path d="M835 4101 c-10 -17 12 -21 25 -6 10 12 10 15 -3 15 -9 0 -18 -4 -22
-9z"/>
<path d="M1375 4240 c-27 -10 -71 -27 -96 -38 l-46 -20 -61 -144 c-33 -78 -73
-174 -89 -212 l-28 -70 -5 110 -5 109 -35 -3 c-19 -2 -50 -10 -67 -17 l-33
-14 0 -321 0 -321 44 -19 c24 -11 54 -21 67 -22 24 -3 24 -2 29 115 l5 118 98
-131 c54 -72 102 -128 107 -125 5 3 -41 71 -102 151 -60 80 -108 147 -106 150
4 3 224 -265 234 -284 0 -1 15 1 33 4 29 6 30 8 16 24 -20 22 -10 31 21 20 13
-5 24 -8 24 -7 0 2 -54 77 -119 167 -66 91 -117 168 -115 172 18 29 291 628
286 627 -4 0 -29 -9 -57 -19z m-108 -92 c-34 -85 -222 -488 -224 -481 -3 9
169 420 197 473 12 22 35 28 27 8z m-317 -528 c0 -193 -4 -300 -10 -300 -5 0
-10 3 -10 8 -5 65 -7 562 -4 575 3 9 10 17 15 17 5 0 9 -121 9 -300z"/>
<path d="M2308 4153 c-39 -48 -108 -153 -108 -168 0 -10 7 -15 18 -13 15 3 18
-9 22 -105 5 -99 7 -111 29 -128 13 -10 36 -19 52 -19 39 0 87 46 96 90 l6 35
-27 -19 c-39 -25 -50 -10 -49 67 1 121 0 116 36 125 28 7 32 13 35 46 l3 37
-35 -7 -36 -6 0 41 c0 45 -16 54 -42 24z m-28 -83 c-23 -34 -44 -59 -47 -56
-6 6 13 39 54 94 43 57 37 27 -7 -38z m-8 -193 c3 -101 -2 -128 -16 -91 -3 9
-6 61 -6 117 0 135 17 115 22 -26z m63 -77 c4 -6 16 -8 27 -4 14 4 18 2 14 -5
-10 -16 -41 -14 -56 4 -8 9 -9 15 -2 15 6 0 14 -5 17 -10z"/>
<path d="M2063 4038 c-31 -8 -103 -69 -103 -87 0 -5 20 11 44 35 41 41 76 57
76 34 0 -5 -7 -10 -15 -10 -20 0 -85 -59 -85 -77 0 -8 -4 -11 -10 -8 -6 4 -10
-7 -10 -26 l0 -32 45 42 c43 40 85 54 85 29 0 -7 -31 -42 -70 -78 -67 -63 -70
-67 -70 -111 0 -89 63 -125 137 -79 18 11 39 17 48 14 31 -12 66 6 81 41 19
45 18 55 -5 55 -18 0 -20 10 -23 110 -3 119 -9 133 -63 148 -17 5 -45 5 -62 0z
m-16 -189 c-56 -46 -87 -125 -57 -144 6 -3 10 -11 10 -17 0 -6 -9 -3 -20 7
-41 38 -16 110 58 168 48 37 56 24 9 -14z m73 -16 c0 -41 -12 -103 -19 -103
-3 0 -4 29 -3 65 2 36 8 65 13 65 5 0 9 -12 9 -27z m-30 -47 c0 -35 -21 -63
-40 -51 -15 9 -12 32 6 60 22 34 34 31 34 -9z m95 -26 c3 -5 -1 -10 -9 -10 -9
0 -16 5 -16 10 0 6 4 10 9 10 6 0 13 -4 16 -10z"/>
<path d="M1506 3961 c-13 -14 -14 -20 -5 -23 8 -3 1 -21 -22 -53 -19 -27 -37
-54 -41 -59 -4 -6 -10 -7 -14 -4 -3 4 7 24 23 45 35 44 46 63 39 63 -3 0 -23
-25 -45 -57 -42 -58 -52 -93 -26 -93 12 0 15 -17 15 -91 0 -120 21 -158 88
-159 45 0 92 46 92 89 0 31 -1 31 -24 16 -37 -25 -47 -2 -44 96 l3 83 33 10
c29 8 32 13 32 47 0 38 0 38 -35 32 l-35 -6 0 42 c0 45 -8 51 -34 22z m-32
-376 c6 -17 4 -16 -14 4 -18 21 -21 35 -19 115 2 128 13 131 19 6 3 -58 9
-114 14 -125z m88 20 c18 6 20 4 12 -5 -15 -15 -56 -9 -62 10 -4 13 -3 13 11
2 10 -8 25 -11 39 -7z"/>
<path d="M1296 3888 c-29 -40 -11 -98 30 -98 40 0 71 79 42 108 -19 19 -55 14
-72 -10z m35 -4 c-18 -13 -22 -23 -17 -46 4 -21 2 -28 -7 -26 -33 12 -12 88
26 88 l21 0 -23 -16z"/>
<path d="M772 3885 c-31 -23 -98 -140 -118 -209 -57 -200 63 -382 304 -460 77
-26 204 -46 222 -36 19 11 18 11 -105 34 -169 32 -308 124 -361 240 -26 58
-35 146 -22 221 l8 40 -16 -40 c-9 -24 -14 -63 -12 -98 2 -31 0 -57 -4 -57
-12 0 -21 68 -14 114 7 46 83 213 92 203 3 -3 1 -15 -6 -26 -20 -39 -3 -21 34
34 37 57 37 67 -2 40z m-2 -29 c0 -3 -4 -8 -10 -11 -5 -3 -10 -1 -10 4 0 6 5
11 10 11 6 0 10 -2 10 -4z"/>
<path d="M591 3795 c-2 -60 8 -65 29 -15 12 28 11 34 -7 51 -20 20 -20 20 -22
-36z"/>
<path d="M1328 3753 l-48 -26 0 -130 c0 -108 2 -128 14 -124 8 3 31 9 50 13
l36 6 0 144 c0 79 -1 144 -2 144 -2 0 -24 -12 -50 -27z m-18 -143 c0 -60 -4
-100 -10 -100 -6 0 -10 40 -10 100 0 60 4 100 10 100 6 0 10 -40 10 -100z"/>
<path d="M2417 3660 c-14 -16 -30 -30 -34 -30 -5 0 -22 -14 -39 -31 -55 -58
-209 -167 -312 -222 -114 -60 -126 -86 -16 -33 147 71 325 206 405 307 36 46
32 53 -4 9z"/>
<path d="M2670 3560 c0 -5 5 -10 11 -10 5 0 7 5 4 10 -3 6 -8 10 -11 10 -2 0
-4 -4 -4 -10z"/>
<path d="M2675 3522 c-2 -3 -2 -9 1 -13 7 -12 64 -12 64 0 0 9 -57 21 -65 13z"/>
<path d="M1766 3351 c-4 -7 -5 -15 -2 -18 9 -9 19 4 14 18 -4 11 -6 11 -12 0z"/>
<path d="M2700 2626 c0 -2 7 -6 15 -10 8 -3 15 -1 15 4 0 6 -7 10 -15 10 -8 0
-15 -2 -15 -4z"/>
<path d="M2660 2199 c0 -5 9 -9 20 -9 11 0 20 2 20 4 0 2 -9 6 -20 9 -11 3
-20 1 -20 -4z"/>
<path d="M702 1388 c5 -15 28 -23 28 -10 0 5 -7 13 -16 16 -10 4 -14 1 -12 -6z"/>
<path d="M780 1376 c0 -9 7 -12 20 -9 31 8 34 23 6 23 -16 0 -26 -6 -26 -14z"/>
<path d="M840 1382 c0 -5 7 -9 15 -9 8 0 15 4 15 9 0 4 -7 8 -15 8 -8 0 -15
-4 -15 -8z"/>
<path d="M1460 1383 c-94 -12 -174 -47 -219 -95 -59 -63 -41 -82 102 -107 122
-21 142 -16 197 43 19 21 54 49 78 63 51 30 54 55 10 76 -34 15 -123 26 -168
20z"/>
<path d="M2208 1285 c3 -57 1 -75 -9 -75 -10 0 -10 -3 -2 -11 7 -7 19 -9 29
-5 13 5 15 9 6 18 -7 7 -12 42 -12 80 0 37 -3 68 -8 68 -4 0 -6 -34 -4 -75z"/>
<path d="M2263 1353 c21 -5 21 -30 3 -100 -8 -29 -11 -53 -7 -53 6 0 41 131
41 153 0 4 -12 6 -27 6 -17 -1 -21 -3 -10 -6z"/>
<path d="M2324 1348 c-4 -6 -8 -37 -8 -69 -1 -44 4 -63 17 -76 17 -17 19 -17
33 1 16 23 19 108 4 137 -12 21 -35 25 -46 7z m40 -73 c0 -57 -5 -71 -23 -60
-12 7 -15 93 -5 120 12 31 28 -3 28 -60z"/>
<path d="M2441 1306 c-5 -6 -11 -39 -13 -74 -3 -68 10 -89 44 -71 26 14 22 37
-7 51 -24 11 -24 12 -6 24 26 19 33 71 10 77 -10 3 -22 0 -28 -7z m24 -31 c0
-10 -6 -20 -12 -22 -8 -3 -13 5 -13 22 0 17 5 25 13 23 6 -3 12 -13 12 -23z
m5 -90 c0 -8 -7 -15 -15 -15 -8 0 -15 7 -15 15 0 8 7 15 15 15 8 0 15 -7 15
-15z"/>
<path d="M800 1299 c0 -5 5 -7 10 -4 6 3 10 8 10 11 0 2 -4 4 -10 4 -5 0 -10
-5 -10 -11z"/>
<path d="M708 1255 c-28 -16 -28 -16 -28 -125 l0 -109 33 -17 c41 -22 108 -22
141 0 25 16 26 19 26 125 0 87 -3 111 -16 122 -24 20 -124 22 -156 4z m147
-15 c12 -10 15 -35 15 -115 0 -99 -1 -102 -25 -113 -32 -15 -85 -15 -119 -2
-26 9 -26 11 -26 118 0 103 1 110 23 120 27 15 111 9 132 -8z"/>
<path d="M794 1159 c-3 -6 -1 -16 5 -22 8 -8 11 -5 11 11 0 24 -5 28 -16 11z"/>
<path d="M727 1145 c-5 -11 0 -15 16 -15 12 0 18 4 12 8 -5 4 -13 11 -16 15
-4 4 -9 1 -12 -8z"/>
<path d="M821 1144 c0 -11 3 -14 6 -6 3 7 2 16 -1 19 -3 4 -6 -2 -5 -13z"/>
<path d="M760 1087 c0 -7 11 -13 25 -13 28 -2 25 11 -5 19 -11 3 -20 0 -20 -6z"/>
<path d="M1554 1165 c-19 -29 -12 -93 15 -126 16 -20 21 -21 68 -10 28 7 66
25 84 40 30 26 33 31 24 57 -8 23 -19 31 -50 37 -22 5 -48 13 -57 18 -32 17
-67 10 -84 -16z"/>
<path d="M2292 1100 c0 -14 2 -19 5 -12 2 6 2 18 0 25 -3 6 -5 1 -5 -13z"/>
<path d="M2330 1100 c0 -11 4 -20 8 -20 4 0 8 9 8 20 0 11 -4 20 -8 20 -4 0
-8 -9 -8 -20z"/>
<path d="M2400 1116 c0 -2 7 -7 16 -10 8 -3 12 -2 9 4 -6 10 -25 14 -25 6z"/>
<path d="M2171 1105 c1 -19 18 -51 18 -35 0 8 -4 22 -9 30 -5 8 -9 11 -9 5z"/>
<path d="M2410 1081 c13 -10 13 -12 0 -22 -13 -9 -13 -10 0 -6 8 2 15 10 15
17 0 7 -7 15 -15 17 -13 4 -13 3 0 -6z"/>
<path d="M2210 1072 c0 -5 7 -9 15 -9 8 0 12 4 9 9 -3 4 -9 8 -15 8 -5 0 -9
-4 -9 -8z"/>
<path d="M2211 1004 c0 -11 3 -14 6 -6 3 7 2 16 -1 19 -3 4 -6 -2 -5 -13z"/>
<path d="M2423 985 c0 -22 2 -30 4 -17 2 12 2 30 0 40 -3 9 -5 -1 -4 -23z"/>
<path d="M2330 980 c0 -5 5 -10 10 -10 6 0 10 5 10 10 0 6 -4 10 -10 10 -5 0
-10 -4 -10 -10z"/>
<path d="M2205 970 c-3 -5 1 -10 9 -10 9 0 16 5 16 10 0 6 -4 10 -9 10 -6 0
-13 -4 -16 -10z"/>
<path d="M650 954 c0 -10 6 -14 14 -11 8 3 17 1 20 -6 2 -7 5 -5 5 4 1 9 -6
20 -15 23 -22 9 -24 8 -24 -10z"/>
<path d="M760 950 c0 -5 7 -10 15 -10 8 0 15 5 15 10 0 6 -7 10 -15 10 -8 0
-15 -4 -15 -10z"/>
<path d="M805 950 c4 -6 11 -8 16 -5 14 9 11 15 -7 15 -8 0 -12 -5 -9 -10z"/>
<path d="M744 886 c-14 -11 -16 -18 -8 -26 15 -15 44 -2 44 21 0 23 -9 24 -36
5z"/>
<path d="M790 881 c0 -5 3 -17 6 -25 5 -13 9 -14 20 -5 21 17 17 39 -6 39 -11
0 -20 -4 -20 -9z"/>
<path d="M388 443 c7 -3 16 -2 19 1 4 3 -2 6 -13 5 -11 0 -14 -3 -6 -6z"/>
<path d="M448 443 c7 -3 16 -2 19 1 4 3 -2 6 -13 5 -11 0 -14 -3 -6 -6z"/>
<path d="M518 443 c7 -3 16 -2 19 1 4 3 -2 6 -13 5 -11 0 -14 -3 -6 -6z"/>
<path d="M578 443 c7 -3 16 -2 19 1 4 3 -2 6 -13 5 -11 0 -14 -3 -6 -6z"/>
<path d="M708 443 c7 -3 16 -2 19 1 4 3 -2 6 -13 5 -11 0 -14 -3 -6 -6z"/>
<path d="M898 443 c7 -3 16 -2 19 1 4 3 -2 6 -13 5 -11 0 -14 -3 -6 -6z"/>
<path d="M968 443 c7 -3 16 -2 19 1 4 3 -2 6 -13 5 -11 0 -14 -3 -6 -6z"/>
<path d="M1028 443 c7 -3 16 -2 19 1 4 3 -2 6 -13 5 -11 0 -14 -3 -6 -6z"/>
<path d="M1088 443 c7 -3 16 -2 19 1 4 3 -2 6 -13 5 -11 0 -14 -3 -6 -6z"/>
<path d="M1218 443 c7 -3 16 -2 19 1 4 3 -2 6 -13 5 -11 0 -14 -3 -6 -6z"/>
<path d="M1278 443 c7 -3 16 -2 19 1 4 3 -2 6 -13 5 -11 0 -14 -3 -6 -6z"/>
<path d="M1348 443 c7 -3 16 -2 19 1 4 3 -2 6 -13 5 -11 0 -14 -3 -6 -6z"/>
<path d="M1408 443 c7 -3 16 -2 19 1 4 3 -2 6 -13 5 -11 0 -14 -3 -6 -6z"/>
<path d="M1538 443 c7 -3 16 -2 19 1 4 3 -2 6 -13 5 -11 0 -14 -3 -6 -6z"/>
<path d="M1598 443 c7 -3 16 -2 19 1 4 3 -2 6 -13 5 -11 0 -14 -3 -6 -6z"/>
<path d="M1788 443 c7 -3 16 -2 19 1 4 3 -2 6 -13 5 -11 0 -14 -3 -6 -6z"/>
<path d="M1918 443 c7 -3 16 -2 19 1 4 3 -2 6 -13 5 -11 0 -14 -3 -6 -6z"/>
<path d="M1978 443 c7 -3 16 -2 19 1 4 3 -2 6 -13 5 -11 0 -14 -3 -6 -6z"/>
<path d="M2108 443 c7 -3 16 -2 19 1 4 3 -2 6 -13 5 -11 0 -14 -3 -6 -6z"/>
<path d="M2298 443 c7 -3 16 -2 19 1 4 3 -2 6 -13 5 -11 0 -14 -3 -6 -6z"/>
<path d="M2358 443 c7 -3 16 -2 19 1 4 3 -2 6 -13 5 -11 0 -14 -3 -6 -6z"/>
</g>
</svg>
