<?xml version="1.0" standalone="no"?>
<!DOCTYPE svg PUBLIC "-//W3C//DTD SVG 20010904//EN"
 "http://www.w3.org/TR/2001/REC-SVG-20010904/DTD/svg10.dtd">
<svg version="1.0" xmlns="http://www.w3.org/2000/svg"
 width="490.000000pt" height="492.000000pt" viewBox="0 0 490.000000 492.000000"
 preserveAspectRatio="xMidYMid meet">

<g transform="translate(0.000000,492.000000) scale(0.100000,-0.100000)"
fill="#000000" stroke="none">
<path d="M2411 4613 c-26 -13 -37 -14 -52 -5 -26 17 -74 15 -89 -3 -14 -17
-46 -20 -55 -4 -8 12 -64 2 -85 -16 -10 -8 -32 -11 -65 -8 -41 4 -53 2 -68
-15 -15 -16 -27 -19 -53 -15 -27 5 -43 0 -67 -17 -22 -17 -43 -23 -69 -21 -27
1 -43 -4 -60 -21 -12 -12 -34 -23 -48 -24 -14 -2 -31 -3 -38 -3 -7 -1 -26 -14
-43 -31 -24 -22 -38 -28 -56 -24 -18 5 -31 -2 -58 -30 -18 -20 -43 -36 -55
-36 -28 0 -80 -37 -80 -56 0 -8 -6 -15 -12 -16 -7 0 -18 -2 -24 -2 -25 -3 -60
-28 -76 -56 -10 -18 -25 -30 -37 -30 -27 0 -61 -30 -61 -53 0 -12 -13 -24 -41
-35 -29 -11 -45 -26 -57 -51 -9 -19 -30 -42 -47 -51 -16 -9 -38 -32 -47 -51
-10 -18 -30 -41 -45 -50 -24 -14 -34 -31 -49 -87 -2 -7 -14 -16 -26 -21 -25
-9 -43 -38 -52 -83 -4 -16 -13 -28 -21 -28 -18 0 -45 -50 -45 -84 0 -15 -7
-27 -18 -31 -23 -7 -42 -46 -42 -85 0 -19 -7 -33 -19 -39 -22 -12 -43 -65 -34
-87 3 -8 -5 -26 -18 -40 -17 -18 -23 -37 -25 -75 -1 -35 -7 -54 -20 -63 -14
-10 -18 -26 -17 -67 0 -34 -4 -58 -14 -68 -12 -11 -14 -28 -9 -70 4 -41 2 -61
-9 -75 -18 -24 -19 -50 -3 -76 10 -16 9 -25 -5 -49 -19 -32 -22 -67 -7 -76 13
-8 13 -52 0 -60 -15 -10 -12 -58 6 -84 13 -18 14 -28 5 -47 -16 -36 -14 -58
10 -88 16 -20 19 -30 10 -39 -16 -16 -14 -72 3 -86 10 -8 14 -31 13 -68 -1
-44 3 -58 18 -69 14 -10 19 -27 20 -65 1 -38 6 -55 20 -65 13 -10 19 -28 20
-61 2 -37 7 -51 29 -68 19 -15 26 -30 26 -56 0 -26 8 -43 30 -64 19 -18 30
-39 30 -56 0 -19 12 -39 35 -62 19 -19 35 -43 35 -53 0 -27 27 -64 56 -74 16
-6 24 -17 24 -33 0 -31 36 -77 60 -77 13 0 22 -10 28 -32 6 -22 22 -42 50 -61
23 -16 42 -34 42 -40 1 -21 36 -55 60 -59 16 -2 31 -16 44 -41 15 -28 29 -40
57 -47 25 -7 40 -18 45 -33 9 -28 33 -46 61 -47 12 0 28 -7 35 -16 40 -50 59
-64 85 -64 19 0 36 -10 54 -32 22 -26 34 -32 63 -31 28 1 40 -4 52 -21 18 -29
56 -46 83 -39 15 4 29 -3 46 -21 20 -22 33 -26 65 -24 29 1 46 -4 63 -20 24
-22 60 -30 88 -18 9 4 25 -2 39 -14 18 -16 35 -20 75 -18 38 2 57 -2 69 -15
19 -19 61 -23 71 -7 9 15 41 12 55 -5 15 -18 59 -19 95 -3 19 9 28 9 37 0 16
-16 73 -15 98 0 16 10 24 10 40 0 27 -17 75 -15 90 3 14 17 46 20 55 5 10 -17
50 -11 75 10 18 15 31 18 65 13 35 -4 49 -1 69 15 20 15 36 18 69 15 38 -5 47
-2 60 17 13 18 26 23 68 24 42 2 55 7 67 24 11 16 24 22 54 22 30 0 45 6 64
27 19 20 36 28 62 29 27 1 42 9 62 33 16 19 36 31 51 31 28 0 62 25 78 57 8
15 21 23 39 23 31 1 62 21 62 42 0 20 21 38 45 38 29 0 63 26 67 52 2 11 10
24 18 28 68 31 75 37 78 64 3 20 12 31 36 41 38 16 51 30 60 68 3 15 13 27 22
27 24 0 64 47 64 75 0 15 7 28 18 32 31 11 52 36 52 62 0 18 13 39 41 65 32
31 39 44 34 63 -4 18 2 30 23 51 40 37 54 66 40 80 -8 8 -4 17 14 34 36 33 49
64 42 94 -5 21 -2 31 17 45 19 14 24 27 24 67 0 34 6 54 19 67 14 15 17 28 13
64 -4 35 0 51 15 72 20 26 21 50 4 90 -5 11 0 24 15 37 19 18 21 27 15 75 -5
35 -3 57 3 62 15 8 14 61 -1 84 -9 15 -9 25 0 46 16 34 15 50 -4 91 -13 27
-14 37 -5 48 14 16 5 86 -11 86 -5 0 -6 24 -2 58 5 45 3 62 -9 74 -10 10 -15
32 -14 66 2 40 -2 55 -20 71 -17 16 -20 28 -16 59 4 32 1 43 -21 67 -19 21
-25 36 -21 52 6 27 -17 78 -40 87 -10 3 -15 15 -13 28 4 33 -21 85 -43 91 -14
4 -19 14 -19 39 0 32 -11 50 -55 86 -8 7 -15 23 -15 35 0 28 -26 67 -45 67
-16 0 -39 36 -31 49 7 11 -32 61 -48 61 -17 0 -48 35 -39 43 10 10 -35 54 -63
61 -16 4 -26 17 -32 39 -8 30 -16 36 -82 67 -8 4 -17 16 -19 26 -4 26 -36 54
-60 54 -11 0 -28 12 -38 28 -23 35 -43 51 -67 52 -10 0 -36 18 -57 40 -29 30
-47 40 -70 40 -21 0 -32 6 -36 18 -6 24 -64 55 -87 46 -12 -5 -25 3 -45 27
-23 27 -34 33 -66 32 -28 -1 -43 5 -55 20 -12 14 -31 21 -66 23 -33 2 -53 9
-62 21 -10 13 -26 18 -67 18 -39 0 -58 5 -67 17 -15 19 -53 25 -86 14 -16 -5
-29 -3 -40 7 -20 17 -68 24 -96 12 -11 -5 -28 -2 -46 9 -33 19 -63 21 -89 4
-15 -9 -26 -8 -54 5 -42 20 -34 20 -76 0z m-67 -58 c3 -9 0 -15 -9 -15 -9 0
-12 6 -9 15 4 8 7 15 9 15 2 0 5 -7 9 -15z m406 2 c0 -8 -3 -17 -7 -20 -9 -9
-34 13 -27 24 8 14 34 11 34 -4z m-532 -15 c6 -18 -15 -14 -22 4 -4 10 -1 14
6 12 6 -2 14 -10 16 -16z m392 -2 c0 -5 -5 -10 -11 -10 -5 0 -7 5 -4 10 3 6 8
10 11 10 2 0 4 -4 4 -10z m272 1 c8 -1 -2 -40 -12 -46 -22 -14 -45 24 -31 52
1 1 9 0 19 -2 9 -2 20 -4 24 -4z m-792 -32 c0 -11 -4 -17 -10 -14 -5 3 -10 13
-10 21 0 8 5 14 10 14 6 0 10 -9 10 -21z m920 -13 c-1 -19 -28 -48 -39 -41
-15 9 -14 52 2 58 17 6 37 -3 37 -17z m-1040 -32 c0 -8 -4 -12 -10 -9 -5 3
-10 10 -10 16 0 5 5 9 10 9 6 0 10 -7 10 -16z m1165 6 c8 -14 -13 -50 -29 -50
-16 0 -28 24 -20 43 5 15 41 20 49 7z m113 -42 c17 -17 15 -29 -5 -26 -13 2
-17 -3 -15 -16 2 -11 -1 -15 -8 -11 -8 5 -9 39 -1 63 2 6 18 1 29 -10z m132
-77 c0 -9 -35 -51 -43 -51 -11 0 -15 44 -6 62 8 14 14 16 29 8 11 -6 20 -14
20 -19z m-1785 -11 c3 -5 1 -10 -4 -10 -6 0 -11 5 -11 10 0 6 2 10 4 10 3 0 8
-4 11 -10z m1806 -53 c-10 -9 -11 -8 -5 6 3 10 9 15 12 12 3 -3 0 -11 -7 -18z
m85 8 c7 -17 -21 -49 -36 -40 -11 7 -13 38 -3 48 11 12 33 8 39 -8z m-846 -59
c0 -11 -19 -15 -25 -6 -3 5 1 10 9 10 9 0 16 -2 16 -4z m954 -30 c-3 -9 -12
-16 -20 -16 -20 0 -17 28 4 32 22 5 24 4 16 -16z m46 -50 c0 -3 -4 -8 -10 -11
-5 -3 -10 -1 -10 4 0 6 5 11 10 11 6 0 10 -2 10 -4z m-497 -42 c73 -43 75 -44
55 -44 -8 0 -32 11 -52 25 -20 14 -43 25 -50 25 -6 0 -21 7 -32 15 -41 31 16
16 79 -21z m557 22 c0 -8 -13 -21 -29 -29 -27 -14 -29 -13 -26 4 2 11 7 24 10
29 9 15 45 12 45 -4z m40 -66 c0 -5 -5 -10 -11 -10 -5 0 -7 5 -4 10 3 6 8 10
11 10 2 0 4 -4 4 -10z m58 -18 c2 -7 -2 -10 -12 -6 -9 3 -16 11 -16 16 0 13
23 5 28 -10z m-537 -8 c12 -14 11 -16 -5 -13 -11 2 -21 10 -24 17 -5 17 13 15
29 -4z m49 -36 c0 -6 -6 -5 -15 2 -8 7 -15 14 -15 16 0 2 7 1 15 -2 8 -4 15
-11 15 -16z m-840 2 c0 -5 -4 -10 -10 -10 -5 0 -10 5 -10 10 0 6 5 10 10 10 6
0 10 -4 10 -10z m910 -45 c13 -14 19 -25 13 -25 -5 0 -20 11 -33 25 -13 14
-19 25 -13 25 5 0 20 -11 33 -25z m-745 5 c3 -5 1 -10 -4 -10 -6 0 -11 5 -11
10 0 6 2 10 4 10 3 0 8 -4 11 -10z m1245 -24 c0 -14 -29 -31 -38 -22 -2 3 -2
12 1 21 8 19 37 20 37 1z m-1205 -26 c10 -11 14 -20 9 -20 -5 0 -15 9 -22 20
-7 11 -11 20 -9 20 2 0 12 -9 22 -20z m1362 -176 c-3 -3 -12 -4 -19 -1 -8 3
-5 6 6 6 11 1 17 -2 13 -5z m-1807 -60 c0 -2 -9 0 -20 6 -11 6 -20 13 -20 16
0 2 9 0 20 -6 11 -6 20 -13 20 -16z m1500 -28 c0 -3 -4 -8 -10 -11 -5 -3 -10
-1 -10 4 0 6 5 11 10 11 6 0 10 -2 10 -4z m370 -26 c0 -5 -5 -10 -11 -10 -5 0
-7 5 -4 10 3 6 8 10 11 10 2 0 4 -4 4 -10z m-2323 -36 c-3 -3 -12 -4 -19 -1
-8 3 -5 6 6 6 11 1 17 -2 13 -5z m1740 0 c-3 -3 -12 -4 -19 -1 -8 3 -5 6 6 6
11 1 17 -2 13 -5z m653 -218 c0 -3 -4 -8 -10 -11 -5 -3 -10 -1 -10 4 0 6 5 11
10 11 6 0 10 -2 10 -4z m117 -242 c-3 -3 -12 -4 -19 -1 -8 3 -5 6 6 6 11 1 17
-2 13 -5z m-1397 -24 c18 -12 2 -12 -25 0 -13 6 -15 9 -5 9 8 0 22 -4 30 -9z"/>
</g>
</svg>
