<?xml version="1.0" standalone="no"?>
<!DOCTYPE svg PUBLIC "-//W3C//DTD SVG 20010904//EN"
 "http://www.w3.org/TR/2001/REC-SVG-20010904/DTD/svg10.dtd">
<svg version="1.0" xmlns="http://www.w3.org/2000/svg"
 width="600.000000pt" height="600.000000pt" viewBox="0 0 600.000000 600.000000"
 preserveAspectRatio="xMidYMid meet">

<g transform="translate(0.000000,600.000000) scale(0.100000,-0.100000)"
fill="#000000" stroke="none">
<path d="M2420 4705 c0 -12 16 -15 85 -15 50 0 85 -4 85 -10 0 -5 11 -10 25
-10 16 0 25 -6 25 -15 0 -11 11 -15 40 -15 22 0 40 3 40 8 -1 19 -30 42 -54
42 -16 0 -26 5 -26 15 0 12 -19 15 -110 15 -91 0 -110 -3 -110 -15z"/>
<path d="M2315 4625 c-33 -35 -66 -64 -72 -65 -8 0 -13 -13 -13 -29 0 -17 -6
-31 -15 -35 -22 -8 -20 -205 1 -213 8 -3 14 -16 14 -29 0 -15 6 -24 15 -24 8
0 15 -7 15 -15 0 -11 11 -15 40 -15 29 0 40 4 40 15 0 8 7 15 15 15 10 0 15
11 15 35 0 39 28 75 60 75 13 0 20 7 20 19 0 11 15 36 34 55 26 28 41 36 70
36 34 0 36 1 36 35 0 41 26 75 57 75 18 0 23 6 23 25 0 16 -6 25 -15 25 -8 0
-15 7 -15 15 0 9 -9 15 -24 15 -13 0 -26 5 -28 12 -3 7 -31 11 -81 10 -60 -1
-79 2 -84 13 -11 31 -48 14 -108 -50z"/>
<path d="M2940 4570 c0 -5 7 -10 15 -10 8 0 15 5 15 10 0 6 -7 10 -15 10 -8 0
-15 -4 -15 -10z"/>
<path d="M3068 4399 c-22 -23 -23 -59 -3 -59 8 0 15 -7 15 -15 0 -25 61 -19
88 9 25 27 29 56 7 56 -8 0 -15 7 -15 15 0 23 -70 18 -92 -6z"/>
<path d="M2830 4380 c0 -5 7 -10 15 -10 8 0 15 5 15 10 0 6 -7 10 -15 10 -8 0
-15 -4 -15 -10z"/>
<path d="M2530 4325 c0 -8 -4 -15 -10 -15 -5 0 -10 -11 -10 -25 0 -14 5 -25
10 -25 6 0 10 -7 10 -15 0 -23 66 -19 90 5 11 11 20 27 20 35 0 8 -9 24 -20
35 -24 24 -90 28 -90 5z"/>
<path d="M3132 4219 c2 -6 8 -10 13 -10 5 0 11 4 13 10 2 6 -4 11 -13 11 -9 0
-15 -5 -13 -11z"/>
<path d="M3288 4189 c-2 -5 -11 -11 -20 -12 -24 -4 -108 -95 -108 -117 0 -11
-7 -20 -15 -20 -12 0 -15 -19 -15 -110 0 -91 3 -110 15 -110 8 0 15 -4 15 -10
0 -6 33 -10 80 -10 64 0 80 -3 80 -15 0 -11 11 -15 39 -15 25 0 41 -5 45 -15
4 -11 20 -15 55 -15 34 0 51 -4 55 -15 3 -9 19 -15 41 -15 19 0 35 -4 35 -10
0 -15 80 -12 96 4 8 8 14 24 14 36 0 11 7 23 15 26 12 5 15 27 15 109 0 82 -3
104 -15 109 -8 3 -15 15 -15 26 0 24 -142 170 -165 170 -9 0 -18 -7 -21 -15
-5 -12 -24 -15 -85 -15 -64 0 -79 -3 -79 -15 0 -10 -10 -15 -31 -15 -37 0 -35
23 2 28 13 2 28 10 32 18 6 10 29 14 82 14 43 0 75 4 75 10 0 14 -217 13 -222
-1z m6 -77 c2 -4 -15 -25 -40 -47 -28 -25 -44 -48 -44 -62 0 -13 -4 -23 -10
-23 -5 0 -10 -35 -12 -77 -2 -50 -7 -78 -15 -81 -10 -3 -13 20 -13 92 0 53 4
96 9 96 5 0 12 12 15 26 13 51 91 106 110 76z"/>
<path d="M2726 4173 c-11 -11 -6 -23 9 -23 8 0 15 4 15 9 0 13 -16 22 -24 14z"/>
<path d="M2260 4080 c0 -5 7 -10 15 -10 8 0 15 5 15 10 0 6 -7 10 -15 10 -8 0
-15 -4 -15 -10z"/>
<path d="M2750 3835 c0 -9 5 -15 11 -13 6 2 11 8 11 13 0 5 -5 11 -11 13 -6 2
-11 -4 -11 -13z"/>
<path d="M2236 3763 c-11 -11 -6 -23 9 -23 8 0 15 4 15 9 0 13 -16 22 -24 14z"/>
<path d="M2603 3695 c-32 -36 1 -95 52 -95 18 0 37 8 48 20 21 25 23 70 2 70
-8 0 -15 5 -15 10 0 15 -73 11 -87 -5z"/>
<path d="M3105 3700 c-3 -5 1 -10 9 -10 9 0 16 5 16 10 0 6 -4 10 -9 10 -6 0
-13 -4 -16 -10z"/>
<path d="M3490 3645 c0 -8 5 -15 10 -15 6 0 10 7 10 15 0 8 -4 15 -10 15 -5 0
-10 -7 -10 -15z"/>
<path d="M2612 3509 c2 -6 8 -10 13 -10 5 0 11 4 13 10 2 6 -4 11 -13 11 -9 0
-15 -5 -13 -11z"/>
<path d="M3732 3509 c2 -6 8 -10 13 -10 5 0 11 4 13 10 2 6 -4 11 -13 11 -9 0
-15 -5 -13 -11z"/>
<path d="M2150 3480 c0 -5 7 -10 15 -10 8 0 15 5 15 10 0 6 -7 10 -15 10 -8 0
-15 -4 -15 -10z"/>
<path d="M3322 3429 c2 -6 8 -10 13 -10 5 0 11 4 13 10 2 6 -4 11 -13 11 -9 0
-15 -5 -13 -11z"/>
<path d="M3056 3383 c-11 -11 -6 -23 9 -23 8 0 15 4 15 9 0 13 -16 22 -24 14z"/>
<path d="M2480 3345 c0 -10 -10 -15 -30 -15 -16 0 -30 -5 -30 -11 0 -14 -25
-39 -39 -39 -16 0 -13 -17 6 -40 11 -12 30 -20 49 -20 19 0 34 -6 38 -15 3 -8
16 -15 30 -15 13 0 26 -6 29 -14 4 -10 15 -13 31 -10 14 2 31 -2 40 -11 8 -8
30 -15 49 -15 22 0 37 -6 41 -15 3 -8 14 -15 24 -15 11 0 25 -7 32 -15 7 -8
21 -15 31 -15 14 0 19 7 19 30 0 17 -4 30 -10 30 -5 0 -10 10 -10 23 0 22 -31
57 -50 57 -6 0 -10 6 -10 14 0 8 -7 17 -16 20 -22 8 -7 26 22 26 15 0 24 -6
24 -15 0 -8 6 -15 13 -15 14 0 54 -60 40 -60 -4 0 0 -6 9 -13 11 -9 18 -31 20
-65 4 -76 22 -69 26 11 2 53 0 68 -13 73 -8 3 -15 17 -15 30 0 15 -6 24 -15
24 -8 0 -15 5 -15 10 0 18 -60 70 -79 70 -10 0 -21 7 -25 15 -4 12 -26 15
-111 15 -87 0 -105 -3 -105 -15z m160 -24 c0 -5 12 -11 27 -13 39 -4 42 -28 4
-28 -17 0 -31 5 -31 10 0 6 -33 10 -80 10 -64 0 -80 3 -80 15 0 12 16 15 80
15 44 0 80 -4 80 -9z"/>
<path d="M3240 3345 c0 -8 -7 -15 -15 -15 -9 0 -15 -9 -15 -25 0 -16 6 -25 15
-25 8 0 15 -7 15 -15 0 -11 11 -15 40 -15 29 0 40 4 40 15 0 8 7 15 15 15 9 0
15 9 15 25 0 16 -6 25 -15 25 -8 0 -15 7 -15 15 0 11 -11 15 -40 15 -29 0 -40
-4 -40 -15z"/>
<path d="M3702 3319 c2 -6 8 -10 13 -10 5 0 11 4 13 10 2 6 -4 11 -13 11 -9 0
-15 -5 -13 -11z"/>
<path d="M3160 3125 c0 -9 5 -15 11 -13 6 2 11 8 11 13 0 5 -5 11 -11 13 -6 2
-11 -4 -11 -13z"/>
<path d="M2946 3083 c-11 -11 -6 -23 9 -23 8 0 15 4 15 9 0 13 -16 22 -24 14z"/>
</g>
</svg>
