<?xml version="1.0" standalone="no"?>
<!DOCTYPE svg PUBLIC "-//W3C//DTD SVG 20010904//EN"
 "http://www.w3.org/TR/2001/REC-SVG-20010904/DTD/svg10.dtd">
<svg version="1.0" xmlns="http://www.w3.org/2000/svg"
 width="600.000000pt" height="600.000000pt" viewBox="0 0 600.000000 600.000000"
 preserveAspectRatio="xMidYMid meet">

<g transform="translate(0.000000,600.000000) scale(0.100000,-0.100000)"
fill="#000000" stroke="none">
<path d="M2654 5280 c21 -31 20 -37 -4 -50 -15 -8 -27 -7 -49 5 -53 27 -72 1
-87 -112 -6 -45 -11 -55 -35 -67 -16 -8 -31 -10 -34 -5 -4 5 -16 14 -28 20
-18 10 -16 6 7 -17 54 -55 57 -63 46 -149 -6 -44 -12 -87 -15 -96 -4 -10 4
-22 18 -32 18 -12 26 -28 30 -64 6 -55 -15 -338 -37 -493 -9 -58 -16 -126 -16
-152 0 -55 -5 -57 -85 -32 -34 10 -67 13 -103 9 l-53 -7 5 44 c11 87 27 350
22 356 -3 3 -6 -3 -6 -14 0 -96 -33 -409 -44 -427 -30 -47 -48 -140 -67 -342
-10 -115 -19 -215 -19 -221 0 -7 -17 -10 -47 -7 -27 2 -73 1 -102 -4 -97 -14
-94 1 -151 -718 -95 -1199 -150 -1884 -156 -1940 -4 -39 -3 -57 3 -50 6 6 20
134 31 285 12 151 51 639 87 1084 36 444 65 820 65 834 0 20 3 23 12 14 7 -7
41 -12 83 -12 38 0 100 -7 137 -16 l67 -17 55 -111 c30 -61 64 -135 76 -163
17 -40 28 -53 44 -53 11 0 34 -7 50 -15 27 -14 31 -14 38 0 16 28 33 15 61
-47 24 -56 25 -63 11 -71 -31 -17 -55 -48 -61 -77 -3 -17 -9 -30 -13 -30 -4 0
-17 26 -29 58 -27 73 -80 181 -81 164 0 -7 11 -35 25 -62 14 -27 35 -76 46
-107 12 -32 26 -63 31 -69 5 -7 17 -101 28 -210 24 -244 27 -261 51 -300 38
-63 136 -82 213 -44 60 30 80 63 80 132 1 36 6 59 14 63 16 6 15 20 -3 39 -11
11 -20 62 -31 178 -18 190 -36 240 -96 270 -35 18 -37 22 -52 106 -23 123 -22
136 9 128 18 -5 33 1 58 24 l34 29 10 -22 c14 -28 38 -138 35 -154 -2 -7 5
-24 14 -38 10 -16 14 -34 10 -50 -5 -18 -2 -27 9 -31 9 -4 15 -19 16 -38 1
-26 2 -24 10 14 7 37 5 52 -10 85 -11 22 -27 69 -36 105 -9 36 -23 83 -31 105
-8 23 -14 59 -13 80 l1 40 15 -42 c8 -23 28 -54 45 -68 25 -21 32 -36 39 -88
11 -80 31 -398 26 -404 -3 -2 -11 22 -20 54 -8 32 -15 49 -16 37 -1 -11 5 -41
13 -67 7 -25 11 -56 9 -70 -3 -14 0 -28 6 -31 13 -9 31 34 25 60 -2 11 -8 98
-14 194 -5 96 -15 215 -20 264 -5 48 -7 92 -4 98 3 5 19 -2 34 -17 34 -33 60
-28 60 11 0 15 3 24 7 21 7 -8 19 -72 33 -188 15 -123 30 -165 25 -69 -2 41
-2 66 1 55 4 -11 12 -27 19 -35 7 -8 15 -32 19 -52 10 -58 23 -45 19 20 -1 31
-4 116 -6 187 l-4 131 26 -2 c14 -2 34 -3 44 -3 16 -1 17 -15 14 -198 -3 -203
6 -165 19 77 l6 115 49 0 c27 0 49 -3 49 -7 0 -30 -26 -148 -32 -148 -4 0 -8
5 -8 11 0 5 -5 7 -11 3 -6 -3 -15 -1 -19 6 -5 8 -10 9 -14 1 -4 -5 7 -17 24
-26 30 -15 31 -19 25 -58 -4 -23 -12 -50 -17 -60 -5 -9 -6 -22 -3 -27 3 -6 -1
-20 -9 -32 -22 -31 -21 -60 1 -33 15 19 15 18 9 -14 -3 -18 -6 -37 -6 -42 0
-5 -21 3 -46 16 -80 43 -168 28 -210 -34 -20 -31 -28 -62 -39 -152 -31 -261
-38 -304 -48 -311 -8 -5 -7 -14 2 -31 7 -14 10 -30 7 -36 -9 -15 43 -71 81
-87 18 -8 57 -14 87 -14 47 0 60 4 89 30 18 16 39 46 45 67 12 41 26 176 16
156 -3 -7 -14 -13 -25 -13 -15 0 -19 8 -20 33 l-1 32 -9 -30 c-5 -18 -6 9 -2
70 3 55 7 102 8 104 2 1 9 0 15 -4 7 -4 9 -20 5 -38 l-6 -32 15 31 c7 17 24
34 36 37 20 5 21 11 19 89 -2 82 10 152 51 298 10 36 26 103 36 150 10 47 19
87 20 88 7 9 63 -34 73 -55 15 -34 16 -33 -33 -156 -24 -62 -47 -130 -50 -152
-5 -31 -2 -27 13 20 10 33 37 105 61 160 23 55 45 116 49 135 5 28 12 35 29
34 105 -3 112 -4 112 -20 0 -9 -9 -28 -19 -43 -11 -15 -25 -50 -32 -77 -18
-74 -35 -97 -70 -92 -32 5 -31 8 -64 -137 -9 -38 -52 -214 -96 -389 -43 -176
-78 -320 -76 -321 17 -10 91 -24 97 -18 4 4 24 79 45 166 21 86 42 160 46 163
5 3 10 -52 10 -123 1 -70 3 -146 4 -168 2 -22 4 -47 4 -56 1 -10 13 -19 30
-22 16 -3 41 -9 56 -13 l26 -7 -7 154 -7 154 26 30 c33 38 187 275 218 335 25
48 100 160 202 301 34 47 67 95 73 105 10 17 23 19 118 18 58 -1 109 -3 111
-6 3 -3 -24 -375 -60 -827 -36 -452 -65 -828 -65 -835 0 -9 -21 -15 -72 -18
-40 -3 -100 -16 -133 -28 -102 -39 -211 -168 -239 -282 l-6 -28 218 0 218 0
83 1060 c46 583 87 1077 92 1098 5 20 12 107 15 192 3 85 17 238 31 339 19
136 23 189 15 206 -8 16 -7 57 2 138 16 154 15 201 -8 226 -16 18 -17 31 -11
111 8 105 -2 132 -62 157 -34 14 -38 13 -64 -6 -35 -26 -37 -26 -42 2 -2 12
-5 -3 -6 -33 0 -31 -8 -82 -16 -114 -18 -70 -45 -242 -45 -291 0 -38 -13 -46
-29 -17 -6 9 -11 12 -11 5 0 -14 -29 -7 -45 11 -5 6 -27 11 -47 12 -21 0 -40
3 -43 6 -3 3 4 57 15 119 44 236 53 296 57 368 3 53 8 70 15 60 7 -10 8 -8 3
9 -4 13 -1 30 7 40 10 14 9 14 -9 -1 -18 -16 -22 -32 -26 -95 -4 -84 -48 -343
-55 -324 -4 12 37 300 63 449 19 106 19 125 -4 154 -10 13 -22 35 -26 48 -6
20 -12 22 -38 17 -59 -12 -74 -43 -113 -226 -9 -47 -20 -88 -23 -92 -3 -4 -6
46 -6 112 0 137 -5 146 -69 143 l-43 -1 13 71 c21 117 18 147 -17 196 -33 44
-63 62 -102 60 -15 -1 -11 -4 13 -11 45 -13 72 -37 65 -58 -3 -10 1 -23 10
-30 12 -10 15 -10 16 1 0 8 5 1 10 -16 6 -21 1 -78 -16 -190 -13 -88 -27 -185
-31 -215 -3 -30 -14 -89 -24 -130 -21 -85 -36 -188 -46 -307 l-6 -83 -49 0
c-50 0 -58 6 -36 29 10 11 9 13 -6 7 -10 -3 -21 -6 -23 -6 -2 0 -4 -7 -4 -16
0 -11 -5 -14 -16 -10 -9 3 -42 6 -75 6 l-60 0 7 78 c3 42 21 135 40 207 19 71
39 176 46 234 9 82 16 108 32 123 14 12 17 21 10 26 -6 4 -13 14 -16 22 -3 8
-9 -3 -13 -25 -10 -52 -11 -54 -36 -48 -19 5 -20 11 -14 67 3 33 8 84 10 111
4 45 3 47 -5 15 -5 -19 -14 -84 -19 -145 -6 -60 -22 -198 -36 -305 -14 -107
-25 -212 -25 -233 0 -20 -6 -55 -12 -77 l-13 -40 -72 0 c-102 0 -101 -1 -91
73 4 34 17 148 29 252 12 105 25 195 29 200 4 6 11 33 15 62 5 39 10 50 21 46
8 -3 14 0 14 6 0 6 -7 11 -16 11 -13 0 -15 10 -9 68 4 37 13 87 20 112 7 25
16 59 20 75 10 43 33 65 71 65 38 0 74 -37 75 -79 0 -14 3 -20 6 -13 8 20 -5
60 -27 82 -22 22 -70 26 -101 10 -17 -10 -19 -7 -19 29 0 57 -32 91 -91 98
-39 4 -49 2 -61 -15 -9 -14 -24 -20 -46 -20 -27 1 -32 5 -32 26 0 56 -11 10
-15 -64 -2 -43 -11 -107 -19 -141 -8 -35 -17 -111 -21 -170 -4 -60 -14 -151
-23 -203 -13 -81 -17 -151 -13 -250 2 -35 -3 -59 -10 -54 -4 2 -10 -18 -14
-46 -4 -27 -11 -53 -16 -56 -6 -4 -6 -10 0 -18 5 -6 6 -18 2 -25 -7 -10 -22
-10 -85 0 -42 7 -81 16 -86 19 -7 5 -6 45 4 126 25 197 26 224 6 119 -11 -55
-22 -121 -26 -148 -3 -27 -9 -45 -15 -41 -6 3 -7 -4 -3 -20 5 -23 3 -26 -19
-26 -32 0 -118 18 -134 28 -10 6 -10 28 -2 97 21 185 41 322 55 382 8 34 14
72 14 83 0 12 5 18 10 15 6 -3 10 -2 10 4 0 5 -5 11 -12 13 -9 3 -9 21 1 74
27 150 30 179 19 221 -5 24 -7 51 -4 60 6 14 5 15 -5 6 -9 -9 -10 -24 -2 -58
8 -36 6 -70 -8 -158 -10 -61 -19 -132 -19 -157 -1 -25 -5 -54 -10 -65 -6 -13
-7 15 -4 75 4 62 1 111 -7 140 -15 54 -12 209 4 229 10 12 9 13 -2 7 -10 -6
-12 -4 -8 10 3 11 11 60 18 110 11 80 16 94 38 108 l26 17 -24 -5 c-18 -4 -21
-2 -12 7 15 15 67 -4 63 -24 -2 -8 -9 -41 -14 -74 -6 -33 -16 -63 -22 -67 -7
-5 -6 -8 5 -8 11 0 18 19 28 75 10 62 17 78 39 93 15 11 32 21 37 23 6 2 -3
18 -19 34 -23 24 -25 25 -12 5z m-154 -262 l0 -32 -21 21 c-22 22 -19 43 7 43
9 0 14 -11 14 -32z m640 -55 c14 -9 28 -21 32 -27 11 -16 -2 -141 -22 -223
-11 -42 -20 -93 -20 -115 0 -21 -4 -38 -10 -38 -5 0 -10 -5 -10 -11 0 -5 5 -7
11 -4 11 8 5 -65 -11 -120 -5 -16 -17 -88 -26 -160 -9 -71 -20 -134 -24 -139
-5 -4 -6 -24 -3 -44 4 -20 2 -33 -3 -30 -5 4 -9 -26 -9 -67 0 -40 -3 -77 -7
-81 -4 -3 -36 -1 -70 6 -35 6 -71 14 -82 16 -10 2 -20 5 -21 6 -2 2 1 37 6 78
5 41 13 109 18 150 5 41 13 86 19 100 18 39 42 174 42 231 0 28 8 94 19 147
10 54 24 129 30 167 7 39 15 82 17 97 13 69 71 97 124 61z m-135 -60 c-4 -21
-10 -60 -15 -88 -23 -126 -50 -297 -59 -375 -14 -111 -25 -166 -45 -215 l-16
-40 4 60 c3 33 9 85 15 115 6 30 15 111 21 180 12 154 29 272 40 285 5 6 10
31 11 55 3 55 5 60 30 60 17 0 19 -5 14 -37z m-518 -30 c-3 -10 -5 -4 -5 12 0
17 2 24 5 18 2 -7 2 -21 0 -30z m-10 -70 c-3 -10 -5 -4 -5 12 0 17 2 24 5 18
2 -7 2 -21 0 -30z m1460 -180 c3 -10 15 -30 25 -45 27 -39 21 -125 -9 -114 -8
3 -12 2 -8 -3 3 -5 -1 -12 -7 -14 -8 -3 -6 -6 5 -6 9 -1 17 -7 17 -14 0 -12
-27 -205 -50 -362 -6 -38 -9 -88 -6 -110 4 -28 3 -33 -3 -15 -6 19 -9 7 -15
-52 l-8 -78 -31 0 c-58 1 -142 26 -138 41 6 26 30 183 44 294 12 94 44 258 79
399 17 68 89 122 105 79z m-184 -123 c5 -37 4 -99 -2 -145 -6 -44 -13 -111
-16 -148 -4 -37 -11 -82 -17 -100 -5 -18 -17 -84 -27 -147 l-17 -115 -35 2
c-78 6 -79 7 -79 78 0 53 3 63 15 59 8 -4 15 -1 15 5 0 6 -7 11 -15 11 -19 0
-14 50 17 200 11 52 28 150 38 218 10 68 24 130 31 138 8 10 25 14 48 12 l36
-3 8 -65z m-393 -43 c0 -29 -15 -51 -29 -43 -6 4 -11 3 -11 -2 0 -6 7 -13 16
-16 19 -7 17 -20 -29 -210 -17 -71 -33 -124 -35 -118 -2 7 4 74 13 149 25 217
41 283 66 267 5 -3 9 -15 9 -27z m403 -167 c-3 -12 -8 -19 -11 -16 -5 6 5 36
12 36 2 0 2 -9 -1 -20z m530 -101 c22 -27 21 -37 -4 -249 -12 -96 -23 -194
-24 -218 -2 -24 -5 -45 -8 -48 -6 -7 -131 55 -135 67 -2 5 -10 9 -18 9 -8 0
-14 10 -14 21 0 37 30 231 45 295 8 33 15 73 15 90 0 42 50 75 93 63 18 -5 40
-18 50 -30z m-574 -201 c-9 -81 -19 -131 -25 -125 -4 4 14 162 21 185 10 28
11 8 4 -60z m-1308 16 c65 -19 569 -124 600 -124 4 0 9 -9 12 -20 7 -28 35
-36 55 -16 16 16 15 17 -10 11 -22 -6 -28 -4 -28 9 0 25 38 19 64 -9 28 -30
42 -31 58 -5 15 23 28 26 28 6 0 -7 7 -19 15 -26 13 -11 21 -9 47 10 17 12 28
18 24 11 -4 -6 -3 -11 3 -11 5 0 13 5 16 10 3 6 19 10 36 10 25 0 29 -4 29
-27 0 -29 15 -22 23 12 4 15 5 13 6 -7 1 -21 7 -29 26 -34 14 -4 29 -3 33 0 3
4 -4 9 -16 13 -12 3 -22 9 -22 13 0 13 62 21 76 9 22 -18 16 -31 -8 -23 -20 6
-21 5 -9 -10 23 -27 51 -20 51 13 0 25 3 28 23 24 46 -10 46 -10 26 -50 -10
-20 -19 -47 -19 -60 0 -30 73 -99 127 -119 69 -27 120 5 138 84 6 30 3 37 -36
74 -40 38 -41 41 -16 35 14 -4 59 -14 99 -21 216 -42 458 -163 458 -227 0 -11
-11 -98 -25 -192 -13 -95 -29 -266 -35 -382 -6 -115 -13 -218 -16 -227 -4 -15
-17 -18 -73 -18 -67 0 -68 0 -87 35 -10 19 -20 35 -22 35 -15 0 -102 -36 -102
-42 0 -5 -41 -8 -91 -8 l-91 0 -11 30 c-13 35 -18 36 -76 10 -54 -25 -53 -25
-46 3 5 18 1 26 -20 35 -24 11 -27 10 -36 -18 -10 -26 -16 -30 -50 -30 l-39 0
20 40 20 39 -21 11 c-24 13 -42 2 -65 -42 -24 -46 -35 -32 -15 20 10 26 22 66
26 89 6 40 5 43 -20 49 -15 4 -30 3 -34 -2 -4 -5 -18 -44 -31 -86 -13 -43 -29
-78 -36 -78 -7 0 -20 -3 -29 -6 -13 -5 -15 -2 -9 20 15 60 -48 119 -107 101
-26 -9 -59 -62 -59 -97 0 -16 -4 -28 -8 -28 -15 0 -50 45 -57 73 -8 32 -40 57
-73 57 -30 0 -71 -41 -78 -80 -4 -16 -9 -30 -13 -30 -3 0 -22 28 -41 61 -41
72 -73 93 -120 79 -43 -12 -62 -29 -55 -50 4 -13 -5 -24 -30 -39 -46 -27 -117
-28 -190 -2 -46 16 -73 18 -197 14 -143 -6 -143 -6 -174 20 -24 21 -30 32 -27
59 2 18 19 215 38 438 19 223 42 434 51 470 18 70 40 120 58 132 22 15 105 7
187 -18z m1918 -214 c-12 -152 -14 -163 -38 -150 -16 8 -18 18 -14 77 4 46 10
72 22 81 13 11 14 14 2 21 -13 9 -10 72 6 126 6 18 8 17 18 -10 9 -22 10 -60
4 -145z m-1072 113 c-3 -10 -5 -4 -5 12 0 17 2 24 5 18 2 -7 2 -21 0 -30z
m-107 -43 c0 -5 -4 -10 -9 -10 -6 0 -13 5 -16 10 -3 6 1 10 9 10 9 0 16 -4 16
-10z m90 -5 c-7 -8 -16 -15 -21 -15 -5 0 -9 7 -9 15 0 9 9 15 21 15 18 0 19
-2 9 -15z m401 -132 c37 -34 96 -55 133 -48 l31 7 -25 -26 c-25 -26 -27 -26
-72 -12 -86 25 -148 90 -132 138 5 18 7 18 24 -8 9 -16 28 -39 41 -51z m-1557
-400 c-19 -262 -32 -366 -45 -374 -8 -5 -42 -9 -76 -9 -75 0 -71 -21 -43 210
11 91 20 180 20 198 0 50 -22 34 -26 -18 -10 -144 -39 -390 -46 -390 -23 0
-25 45 -13 208 19 248 26 258 173 261 l63 1 -7 -87z m11 -403 c7 -12 -22 -12
-50 0 -17 7 -15 9 12 9 17 1 35 -3 38 -9z m648 -35 c19 -26 16 -30 -28 -39
-19 -4 -37 -2 -49 7 -18 13 -17 15 15 34 43 27 41 27 62 -2z m-335 8 c-10 -2
-26 -2 -35 0 -10 3 -2 5 17 5 19 0 27 -2 18 -5z m400 -5 c7 -7 12 -21 12 -32
-1 -20 -1 -20 -20 3 -29 34 -22 59 8 29z m434 -33 c3 -29 1 -35 -15 -35 -15 0
-18 5 -13 23 3 12 6 28 6 35 0 28 18 9 22 -23z m-832 -9 c6 -19 13 -54 15 -78
3 -49 40 -205 54 -228 10 -19 25 -100 18 -100 -8 0 -37 61 -37 76 0 6 -15 30
-34 53 -19 22 -48 75 -66 118 -17 43 -45 102 -61 130 -16 29 -29 55 -29 58 0
3 29 5 64 5 l64 0 12 -34z m608 22 c-3 -7 -12 -14 -21 -16 -12 -2 -15 1 -11
12 7 19 38 22 32 4z m62 -23 c11 -13 6 -15 -34 -15 -51 0 -58 6 -23 20 32 13
43 12 57 -5z m-525 -92 c7 -37 11 -82 8 -100 -5 -28 7 -122 23 -180 6 -21 3
-23 -35 -23 -37 0 -41 3 -41 24 0 13 -7 40 -15 60 -8 20 -22 67 -30 104 -7 37
-19 80 -25 96 -13 36 -1 47 46 39 29 -5 32 -3 39 27 9 42 15 34 30 -47z m135
47 c0 -16 -2 -30 -4 -30 -2 0 -6 14 -8 30 -3 17 -1 30 4 30 4 0 8 -13 8 -30z
m255 8 c6 -20 8 -20 12 -5 8 31 29 18 41 -28 14 -54 15 -78 3 -70 -16 9 -25
-17 -9 -29 16 -12 20 -96 4 -96 -19 0 -45 45 -51 88 -4 26 -9 59 -11 75 -4 18
-1 27 8 27 9 1 7 5 -4 14 -19 14 -25 46 -9 46 5 0 12 -10 16 -22z m459 7 c6
-16 -5 -18 -43 -8 -23 6 -23 7 -5 14 30 12 41 10 48 -6z m-140 -52 c-10 -54
-64 -266 -69 -272 -9 -8 -5 54 5 89 6 19 15 69 21 110 13 97 17 110 35 110 12
0 13 -8 8 -37z m490 21 c9 -24 2 -27 -46 -18 l-43 7 30 13 c40 18 52 17 59 -2z
m316 -15 c7 -11 10 -22 8 -24 -14 -13 -108 -1 -108 14 0 7 52 27 77 30 7 0 17
-8 23 -20z m-206 -31 c-4 -7 -15 -24 -25 -38 -9 -14 -42 -64 -74 -112 -32 -49
-59 -88 -61 -88 -12 0 14 78 52 158 43 91 44 92 80 92 25 0 33 -3 28 -12z
m-276 -34 c7 -15 17 -22 24 -18 13 8 15 14 -36 -106 -38 -89 -116 -197 -97
-135 22 71 22 83 0 90 -15 5 -17 10 -10 19 6 7 20 42 31 79 30 95 65 124 88
71z m106 -171 c-9 -39 -20 -57 -55 -95 -17 -18 -37 -46 -45 -63 -14 -27 -12
-26 20 10 19 22 35 43 36 48 0 16 51 6 71 -14 42 -42 21 -90 -157 -359 l-69
-105 -3 40 c-2 34 6 55 52 131 30 50 66 108 80 129 14 21 26 41 26 45 0 6 -82
40 -96 40 -1 0 -35 -55 -75 -122 -58 -97 -75 -118 -77 -99 -4 25 47 243 58
251 4 3 22 28 39 57 23 37 42 55 70 67 22 8 45 24 53 34 14 20 33 30 61 31 14
1 16 -4 11 -26z m-1108 -181 c22 -14 32 -48 39 -132 4 -47 13 -142 20 -211 15
-142 13 -162 -19 -177 -21 -9 -26 -6 -44 27 -12 21 -23 47 -25 58 -1 11 -10
31 -18 44 -14 21 -39 218 -41 328 -2 50 51 88 88 63z m484 -42 c22 -22 22 -61
-1 -250 -28 -227 -33 -242 -83 -242 -38 0 -56 19 -56 61 0 32 32 301 46 388 9
61 56 81 94 43z m-486 -490 c-3 -3 -17 8 -30 23 -16 19 -24 40 -24 65 l0 37
30 -60 c16 -33 26 -62 24 -65z"/>
<path d="M3102 4610 c0 -14 2 -19 5 -12 2 6 2 18 0 25 -3 6 -5 1 -5 -13z"/>
<path d="M2987 4577 c-4 -10 -7 -21 -7 -23 0 -9 49 -3 56 7 4 7 0 9 -14 5 -15
-5 -21 -2 -24 11 -3 17 -4 17 -11 0z"/>
<path d="M2956 4415 c-3 -8 -1 -15 4 -15 6 0 10 7 10 15 0 8 -2 15 -4 15 -2 0
-6 -7 -10 -15z"/>
<path d="M2966 4815 c-3 -8 -1 -15 4 -15 6 0 10 7 10 15 0 8 -2 15 -4 15 -2 0
-6 -7 -10 -15z"/>
<path d="M3840 4470 c0 -5 5 -10 10 -10 6 0 10 5 10 10 0 6 -4 10 -10 10 -5 0
-10 -4 -10 -10z"/>
<path d="M3856 4227 c3 -10 9 -15 12 -12 3 3 0 11 -7 18 -10 9 -11 8 -5 -6z"/>
<path d="M3325 3820 c-3 -5 -1 -10 4 -10 6 0 11 5 11 10 0 6 -2 10 -4 10 -3 0
-8 -4 -11 -10z"/>
<path d="M3234 3753 c1 -14 -6 -18 -26 -16 -26 2 -28 -1 -27 -35 1 -32 2 -34
8 -12 10 36 39 38 44 3 4 -27 4 -27 6 4 1 40 21 54 22 16 0 -15 3 -22 6 -15 2
6 16 12 29 12 14 0 23 4 19 10 -3 5 -12 7 -20 3 -9 -3 -15 1 -15 11 0 11 9 16
26 16 14 0 23 4 19 10 -9 14 -55 12 -55 -2 0 -9 -3 -9 -12 0 -17 17 -26 15
-24 -5z"/>
<path d="M2992 3748 c-18 -18 -15 -48 6 -54 9 -3 24 -9 33 -14 12 -6 15 -1 16
25 1 25 -3 32 -13 28 -8 -3 -14 1 -14 11 0 19 -11 21 -28 4z"/>
<path d="M3374 3749 c-21 -26 -46 -81 -39 -87 3 -4 10 -1 14 7 6 10 12 9 25
-4 24 -24 27 -16 19 45 -6 42 -10 50 -19 39z m6 -49 c0 -5 -5 -10 -11 -10 -5
0 -7 5 -4 10 3 6 8 10 11 10 2 0 4 -4 4 -10z"/>
<path d="M3425 3723 c-4 -16 -8 -36 -10 -45 -2 -10 1 -18 6 -18 5 0 9 6 10 13
0 6 5 1 10 -12 7 -18 12 -21 23 -12 11 9 15 9 19 -1 7 -22 15 -5 23 50 8 60
-5 68 -28 20 l-15 -33 -7 33 c-9 39 -24 42 -31 5z"/>
<path d="M3098 3714 c-4 -6 -2 -19 6 -29 15 -22 56 -12 55 13 0 11 -3 12 -6 5
-7 -19 -41 -16 -45 5 -2 11 -6 13 -10 6z"/>
<path d="M3285 3670 c3 -5 13 -10 21 -10 8 0 12 5 9 10 -3 6 -13 10 -21 10 -8
0 -12 -4 -9 -10z"/>
<path d="M2974 3360 c-12 -4 -31 -21 -43 -36 -48 -62 -7 -153 65 -140 40 8 45
-5 10 -24 -32 -16 -41 -40 -23 -58 19 -19 54 -1 63 32 7 30 80 62 101 45 7 -7
30 -9 53 -6 24 3 40 1 40 -5 0 -6 12 -8 30 -5 16 4 32 2 35 -3 8 -12 55 -13
74 -1 9 6 20 2 32 -10 23 -23 39 -24 64 -5 13 10 36 12 77 8 73 -6 79 13 8 23
-44 6 -50 10 -50 30 0 38 -57 48 -89 16 -40 -40 -70 -54 -86 -41 -19 16 -2 40
27 40 29 0 16 24 -15 28 -19 2 -30 -4 -44 -25 -34 -54 -58 -58 -49 -8 7 37
-12 52 -21 16 -4 -15 -41 -41 -58 -41 -12 0 -3 25 20 52 34 40 33 85 -1 100
-24 11 -29 9 -51 -17 -21 -24 -24 -36 -20 -73 5 -43 4 -44 -30 -59 -19 -8 -38
-12 -41 -9 -3 3 0 23 6 45 15 47 15 61 2 61 -5 0 -10 -6 -10 -14 0 -22 -49
-76 -69 -76 -27 0 -51 33 -51 69 0 53 71 107 86 66 8 -19 34 -20 34 0 0 14
-30 36 -47 34 -4 0 -18 -4 -29 -9z m226 -59 c0 -11 -11 -33 -25 -48 l-24 -28
-1 32 c0 44 9 63 31 63 12 0 19 -7 19 -19z m288 -100 c3 -8 -1 -12 -9 -9 -7 2
-15 10 -17 17 -3 8 1 12 9 9 7 -2 15 -10 17 -17z m-38 -16 c10 -12 10 -15 -4
-15 -9 0 -16 7 -16 15 0 8 2 15 4 15 2 0 9 -7 16 -15z m-430 -55 c0 -5 -5 -10
-11 -10 -5 0 -7 5 -4 10 3 6 8 10 11 10 2 0 4 -4 4 -10z"/>
<path d="M3247 3314 c-14 -14 -7 -35 11 -32 9 2 17 10 17 17 0 16 -18 25 -28
15z"/>
<path d="M2540 2313 c0 -6 10 -28 22 -48 17 -29 18 -39 8 -45 -16 -10 -5 -43
13 -37 24 8 12 72 -23 117 -11 14 -20 20 -20 13z"/>
<path d="M2582 2125 c0 -16 2 -22 5 -12 2 9 2 23 0 30 -3 6 -5 -1 -5 -18z"/>
<path d="M3010 2280 c-2 -25 -4 -65 -5 -90 -1 -25 -10 -62 -20 -83 -20 -43
-16 -54 14 -37 20 10 21 8 21 -54 0 -36 4 -67 8 -70 9 -5 6 124 -6 274 -6 73
-10 91 -12 60z"/>
<path d="M3040 2147 c0 -17 5 -27 14 -27 17 0 15 25 -2 42 -9 9 -12 6 -12 -15z"/>
<path d="M2760 5230 c21 -21 22 -27 15 -129 -3 -58 -13 -144 -20 -191 -8 -47
-19 -136 -25 -199 -6 -63 -15 -135 -21 -159 -5 -25 -11 -86 -13 -136 -3 -78
-3 -82 3 -26 4 36 15 121 25 190 80 583 80 586 59 627 -10 20 -24 39 -32 41
-7 3 -3 -6 9 -18z"/>
<path d="M2810 5200 c-8 -5 -12 -11 -10 -14 3 -2 14 2 24 10 22 15 10 19 -14
4z"/>
<path d="M2892 5193 c15 -2 37 -16 48 -30 11 -14 20 -21 20 -16 0 19 -47 53
-71 52 -22 -2 -22 -2 3 -6z"/>
<path d="M2730 5180 c0 -5 5 -10 10 -10 6 0 10 5 10 10 0 6 -4 10 -10 10 -5 0
-10 -4 -10 -10z"/>
<path d="M2963 5070 c0 -36 2 -50 4 -32 2 17 2 47 0 65 -2 17 -4 3 -4 -33z"/>
<path d="M2339 5041 c-16 -16 -29 -38 -29 -48 1 -11 6 -6 15 14 7 17 26 38 42
47 15 8 22 15 15 16 -8 0 -27 -13 -43 -29z"/>
<path d="M2581 5028 c0 -9 -4 -25 -7 -35 -5 -17 -5 -17 6 0 6 10 9 25 7 35 -4
15 -5 15 -6 0z"/>
<path d="M2301 4954 c0 -11 3 -14 6 -6 3 7 2 16 -1 19 -3 4 -6 -2 -5 -13z"/>
<path d="M2885 4930 c-3 -6 1 -7 9 -4 18 7 21 14 7 14 -6 0 -13 -4 -16 -10z"/>
<path d="M2805 4910 c3 -5 8 -10 11 -10 2 0 4 5 4 10 0 6 -5 10 -11 10 -5 0
-7 -4 -4 -10z"/>
<path d="M2291 4894 c0 -11 3 -14 6 -6 3 7 2 16 -1 19 -3 4 -6 -2 -5 -13z"/>
<path d="M3472 4864 c-31 -37 -72 -156 -78 -227 l-3 -42 9 45 c25 114 55 193
85 226 18 19 29 34 24 34 -4 0 -21 -16 -37 -36z"/>
<path d="M2420 4850 c0 -5 5 -10 10 -10 6 0 10 5 10 10 0 6 -4 10 -10 10 -5 0
-10 -4 -10 -10z"/>
<path d="M3470 4794 c0 -8 5 -12 10 -9 6 4 8 11 5 16 -9 14 -15 11 -15 -7z"/>
<path d="M2418 4783 c7 -3 16 -2 19 1 4 3 -2 6 -13 5 -11 0 -14 -3 -6 -6z"/>
<path d="M2265 4650 c-4 -28 -5 -53 -2 -56 2 -3 7 19 11 47 4 28 5 53 3 56 -3
2 -8 -19 -12 -47z"/>
<path d="M3600 4684 c0 -3 7 -12 15 -20 13 -14 15 -13 15 5 0 12 -6 21 -15 21
-8 0 -15 -3 -15 -6z"/>
<path d="M3475 4640 c3 -5 11 -10 16 -10 6 0 7 5 4 10 -3 6 -11 10 -16 10 -6
0 -7 -4 -4 -10z"/>
<path d="M2341 4594 c0 -11 3 -14 6 -6 3 7 2 16 -1 19 -3 4 -6 -2 -5 -13z"/>
<path d="M2253 4545 c0 -22 2 -30 4 -17 2 12 2 30 0 40 -3 9 -5 -1 -4 -23z"/>
<path d="M2331 4524 c0 -11 3 -14 6 -6 3 7 2 16 -1 19 -3 4 -6 -2 -5 -13z"/>
<path d="M4039 4463 c-21 -32 -24 -42 -10 -29 11 10 23 27 26 37 4 11 11 17
16 14 5 -4 9 -2 9 4 0 6 8 8 18 5 14 -5 15 -4 2 5 -23 16 -26 14 -61 -36z"/>
<path d="M2242 4480 c0 -14 2 -19 5 -12 2 6 2 18 0 25 -3 6 -5 1 -5 -13z"/>
<path d="M2321 4474 c0 -11 3 -14 6 -6 3 7 2 16 -1 19 -3 4 -6 -2 -5 -13z"/>
<path d="M4131 4454 c15 -16 29 -36 32 -44 4 -11 5 -9 6 5 0 11 -14 31 -32 44
l-32 25 26 -30z"/>
<path d="M4155 4325 c-4 -37 -5 -69 -2 -71 2 -3 8 25 12 61 4 37 5 69 2 71 -2
3 -8 -25 -12 -61z"/>
<path d="M2291 4244 c0 -11 3 -14 6 -6 3 7 2 16 -1 19 -3 4 -6 -2 -5 -13z"/>
<path d="M3470 4090 c-12 -7 -12 -12 -2 -22 10 -10 15 -10 22 2 19 29 9 39
-20 20z"/>
<path d="M2700 4063 c1 -18 18 -35 24 -24 4 6 2 11 -4 11 -6 0 -8 5 -5 10 3 6
1 10 -4 10 -6 0 -11 -3 -11 -7z"/>
<path d="M3085 4030 c-3 -5 -1 -10 4 -10 6 0 11 5 11 10 0 6 -2 10 -4 10 -3 0
-8 -4 -11 -10z"/>
<path d="M3950 4030 c0 -5 5 -10 10 -10 6 0 10 5 10 10 0 6 -4 10 -10 10 -5 0
-10 -4 -10 -10z"/>
<path d="M3290 3970 c0 -5 5 -10 11 -10 5 0 7 5 4 10 -3 6 -8 10 -11 10 -2 0
-4 -4 -4 -10z"/>
<path d="M2890 2620 c-13 -8 -13 -10 2 -10 9 0 20 5 23 10 8 13 -5 13 -25 0z"/>
<path d="M2902 2498 c7 -19 38 -22 38 -4 0 10 -9 16 -21 16 -12 0 -19 -5 -17
-12z"/>
<path d="M2054 2474 c-123 -33 -139 -40 -136 -60 2 -10 14 -53 27 -94 13 -41
65 -214 115 -385 51 -170 96 -314 100 -318 9 -10 90 12 90 24 0 4 -11 43 -24
86 -46 149 -66 221 -66 235 0 7 24 22 52 33 101 39 122 119 72 277 -58 185
-113 233 -230 202z m90 -119 c19 -20 66 -165 66 -206 0 -25 -6 -33 -35 -45
-19 -7 -40 -14 -47 -14 -11 0 -83 221 -83 255 0 9 36 22 67 24 9 1 24 -6 32
-14z"/>
<path d="M2910 2424 c0 -8 5 -12 10 -9 6 3 10 10 10 16 0 5 -4 9 -10 9 -5 0
-10 -7 -10 -16z"/>
<path d="M3261 2364 c0 -11 3 -14 6 -6 3 7 2 16 -1 19 -3 4 -6 -2 -5 -13z"/>
<path d="M3252 2310 c0 -14 2 -19 5 -12 2 6 2 18 0 25 -3 6 -5 1 -5 -13z"/>
<path d="M2764 2287 c3 -14 1 -29 -4 -32 -6 -4 -8 -11 -4 -16 3 -5 10 -7 15
-4 13 9 11 62 -2 71 -8 5 -10 -1 -5 -19z"/>
<path d="M3241 2264 c0 -11 3 -14 6 -6 3 7 2 16 -1 19 -3 4 -6 -2 -5 -13z"/>
<path d="M3222 2215 c-17 -37 -14 -45 4 -12 9 16 14 31 11 33 -2 2 -9 -7 -15
-21z"/>
<path d="M3786 2188 c-8 -29 -36 -132 -61 -228 -26 -96 -61 -222 -79 -280
l-32 -105 -36 0 c-43 0 -43 0 -63 -48 l-15 -36 30 -16 c41 -21 91 -22 126 -1
19 11 56 61 98 129 38 62 91 144 118 182 58 82 208 317 208 326 0 11 -94 43
-97 33 -11 -30 -185 -304 -194 -304 -8 0 -7 3 41 155 27 83 59 194 60 202 0 1
-17 10 -37 19 -21 10 -41 19 -45 21 -4 2 -14 -20 -22 -49z"/>
<path d="M3192 2145 c-17 -37 -14 -45 4 -12 9 16 14 31 11 33 -2 2 -9 -7 -15
-21z"/>
<path d="M3161 2054 c0 -11 3 -14 6 -6 3 7 2 16 -1 19 -3 4 -6 -2 -5 -13z"/>
<path d="M3151 2014 c0 -11 3 -14 6 -6 3 7 2 16 -1 19 -3 4 -6 -2 -5 -13z"/>
<path d="M3125 1719 c-27 -39 -56 -82 -63 -96 -20 -37 -23 -23 -6 32 8 27 13
54 11 59 -2 5 -14 -29 -27 -77 -33 -123 -42 -110 -11 15 5 21 5 36 1 33 -5 -3
-11 -23 -15 -45 -4 -25 -12 -40 -21 -40 -8 0 -14 -7 -14 -15 0 -8 5 -15 10
-15 13 0 13 -12 0 -46 -6 -15 -13 -24 -16 -21 -3 3 -19 54 -34 114 -16 59 -29
100 -29 89 -1 -10 11 -64 25 -121 l25 -102 -25 -38 c-14 -21 -26 -42 -26 -48
0 -12 61 69 129 173 28 41 70 102 94 135 53 72 61 85 50 85 -4 -1 -30 -33 -58
-71z"/>
<path d="M3325 1714 c-21 -37 -55 -87 -75 -113 -54 -69 -81 -117 -75 -133 3
-8 1 -27 -4 -41 -6 -15 -7 -27 -2 -27 5 0 14 21 21 48 17 58 40 116 45 110 2
-2 -5 -32 -16 -67 -10 -35 -18 -66 -15 -68 2 -2 16 36 32 84 16 48 38 101 49
118 37 53 87 146 83 150 -2 3 -21 -25 -43 -61z"/>
<path d="M2734 1705 c9 -67 69 -292 74 -277 2 7 -3 36 -12 65 -9 28 -25 97
-36 151 -22 107 -37 143 -26 61z"/>
<path d="M2675 1644 c21 -38 49 -103 61 -144 13 -41 23 -69 23 -62 3 46 -83
251 -112 269 -6 3 7 -25 28 -63z"/>
<path d="M2872 1628 c6 -18 28 -21 28 -4 0 9 -7 16 -16 16 -9 0 -14 -5 -12
-12z"/>
<path d="M3173 1583 c-15 -30 -12 -36 10 -27 18 6 30 32 21 45 -9 15 -18 10
-31 -18z"/>
<path d="M3120 1590 c0 -5 5 -10 11 -10 5 0 7 5 4 10 -3 6 -8 10 -11 10 -2 0
-4 -4 -4 -10z"/>
<path d="M3140 1437 l-23 -32 29 27 c15 15 26 30 23 33 -3 2 -16 -10 -29 -28z"/>
<path d="M2190 1453 c-39 -14 -54 -78 -24 -107 22 -23 71 -20 84 4 9 16 8 20
-5 20 -8 0 -15 -4 -15 -10 0 -19 -48 -11 -55 10 -15 47 23 84 56 54 17 -16 19
-16 19 -1 0 13 -30 39 -42 36 -2 0 -10 -3 -18 -6z"/>
<path d="M2975 1450 c-3 -5 -1 -10 4 -10 6 0 11 5 11 10 0 6 -2 10 -4 10 -3 0
-8 -4 -11 -10z"/>
<path d="M2285 1424 c-25 -26 -16 -85 16 -103 24 -13 29 -13 53 2 20 14 26 26
26 55 0 21 -5 43 -12 50 -17 17 -64 15 -83 -4z m70 -43 c0 -41 -25 -62 -49
-42 -16 14 -22 62 -9 75 4 4 19 6 33 4 21 -3 25 -8 25 -37z"/>
<path d="M2410 1411 c-14 -26 -13 -74 2 -89 7 -7 26 -12 43 -12 17 0 36 5 43
12 16 16 16 80 0 96 -20 20 -76 15 -88 -7z m68 -3 c17 -17 15 -63 -2 -77 -38
-32 -76 38 -40 73 19 19 26 20 42 4z"/>
<path d="M2538 1420 c-11 -25 -16 -120 -7 -120 5 0 9 8 9 19 0 10 6 24 14 30
11 9 18 4 35 -24 11 -19 25 -35 31 -35 12 0 3 19 -24 55 -13 18 -12 22 12 48
32 34 14 36 -27 2 l-30 -26 -3 33 c-3 21 -6 27 -10 18z"/>
<path d="M2648 1358 c-5 -63 -3 -77 8 -65 11 11 17 127 7 127 -6 0 -13 -28
-15 -62z"/>
<path d="M2694 1387 c-3 -13 -4 -41 -2 -63 3 -39 3 -39 48 -40 25 -1 58 -7 74
-13 23 -9 33 -9 53 4 32 21 26 46 -15 67 -45 22 -49 27 -32 38 21 13 26 12 45
-6 20 -20 33 -11 15 11 -16 19 -64 20 -79 1 -17 -21 -3 -44 35 -56 24 -8 34
-17 32 -28 -5 -25 -34 -26 -56 -2 -13 14 -22 18 -27 11 -3 -6 -22 -11 -41 -11
-27 0 -34 4 -34 20 0 16 7 20 36 20 21 0 33 4 29 10 -3 6 -20 10 -36 10 -24 0
-30 4 -27 18 3 13 12 16 35 14 17 -2 34 2 38 7 4 7 -10 11 -39 11 -40 0 -46
-3 -52 -23z"/>
<path d="M2966 1371 c-4 -5 -3 -16 0 -24 3 -8 1 -18 -5 -22 -15 -9 -14 -55 2
-56 50 -5 77 9 77 40 0 11 -3 11 -15 1 -12 -10 -16 -9 -21 4 -3 9 -1 23 6 31
6 8 9 19 5 25 -8 12 -42 13 -49 1z m34 -11 c0 -5 -4 -10 -10 -10 -5 0 -10 5
-10 10 0 6 5 10 10 10 6 0 10 -4 10 -10z m-10 -65 c0 -8 -4 -15 -9 -15 -13 0
-22 16 -14 24 11 11 23 6 23 -9z"/>
<path d="M3128 1368 c-30 -23 -41 -67 -23 -94 18 -28 65 -33 85 -9 18 21 6 29
-20 13 -18 -11 -23 -11 -35 5 -9 12 -11 27 -6 40 10 26 40 35 52 16 4 -7 11
-10 16 -6 11 12 -11 42 -33 45 -11 1 -27 -3 -36 -10z"/>
<path d="M3226 1340 c-9 -47 -7 -100 3 -100 5 0 11 10 13 23 2 14 10 22 23 22
13 0 21 -8 23 -22 2 -13 10 -23 17 -23 10 0 12 7 5 30 -5 18 -5 32 1 35 11 7
12 42 1 49 -4 2 -23 7 -43 11 -35 6 -36 5 -43 -25z m72 -17 c2 -8 -6 -13 -22
-13 -17 0 -26 5 -26 16 0 19 41 16 48 -3z"/>
<path d="M3340 1297 l0 -65 58 -4 c42 -4 59 -2 65 8 12 21 45 17 57 -6 16 -30
33 -25 26 8 -30 121 -42 129 -81 52 -24 -47 -27 -49 -58 -43 -17 3 -36 9 -41
13 -15 14 5 32 30 27 36 -6 39 10 4 18 -40 9 -38 23 3 27 49 5 38 23 -15 26
l-48 3 0 -64z m170 -7 c0 -11 -6 -20 -14 -20 -9 0 -12 7 -9 20 3 11 9 20 14
20 5 0 9 -9 9 -20z"/>
<path d="M3568 1278 c-2 -35 -2 -65 0 -68 6 -9 22 25 22 50 0 20 2 22 10 10 5
-8 10 -25 10 -37 0 -33 18 -28 34 10 l14 32 1 -32 c1 -18 5 -33 10 -33 10 0
26 109 17 117 -12 12 -35 -8 -41 -36 -10 -47 -23 -46 -32 1 -5 27 -15 44 -25
46 -13 3 -17 -8 -20 -60z"/>
<path d="M2460 1259 c-22 -18 -22 -19 -3 -10 12 6 25 16 28 21 9 15 3 12 -25
-11z"/>
<path d="M3072 1232 c-25 -50 -25 -57 -3 -29 12 15 21 34 19 42 -2 10 -8 5
-16 -13z"/>
<path d="M2790 1235 c-7 -9 -11 -18 -8 -20 3 -3 11 1 18 10 7 9 11 18 8 20 -3
3 -11 -1 -18 -10z"/>
<path d="M2972 1209 c-7 -11 -11 -23 -9 -25 7 -7 29 24 25 36 -2 6 -9 1 -16
-11z"/>
<path d="M3170 1213 c0 -12 5 -25 10 -28 13 -8 13 15 0 35 -8 12 -10 11 -10
-7z"/>
<path d="M2286 1205 c-3 -9 -6 -36 -6 -60 0 -34 5 -47 19 -55 29 -15 69 28 42
45 -6 3 -14 -3 -20 -12 -15 -27 -22 -10 -15 36 6 39 24 58 24 26 0 -8 5 -15
11 -15 6 0 9 10 7 23 -4 28 -52 37 -62 12z"/>
<path d="M2376 1207 c-13 -10 -17 -24 -14 -67 3 -49 5 -55 27 -58 31 -5 41 12
41 74 0 38 -4 53 -16 58 -20 8 -17 8 -38 -7z m34 -31 c0 -29 -13 -76 -21 -76
-10 0 -12 34 -3 68 7 24 24 30 24 8z"/>
<path d="M3107 1207 c-11 -29 -9 -43 4 -30 6 6 9 19 7 29 -3 18 -4 18 -11 1z"/>
<path d="M2450 1191 c-5 -11 -10 -40 -10 -65 0 -37 4 -46 21 -51 13 -4 27 -2
35 6 14 15 22 98 10 117 -11 19 -44 14 -56 -7z m40 -44 c0 -43 -6 -60 -19 -53
-10 6 0 96 10 96 5 0 9 -19 9 -43z"/>
<path d="M2530 1173 c0 -15 -3 -45 -6 -65 -5 -31 -4 -38 10 -38 11 0 16 9 17
28 l1 27 9 -31 c7 -25 14 -31 38 -31 29 0 30 3 37 54 3 29 3 61 -1 70 -7 17
-8 16 -15 -2 -5 -11 -9 -39 -9 -62 -1 -24 -5 -43 -10 -43 -15 0 -23 68 -11 91
17 31 2 37 -21 9 -16 -21 -19 -22 -17 -6 2 10 -3 21 -9 23 -9 3 -13 -5 -13
-24z"/>
<path d="M2650 1126 c0 -57 2 -64 22 -70 29 -7 47 10 19 19 -28 8 -27 31 2 39
21 6 21 7 5 20 -24 18 -23 36 2 36 11 0 20 5 20 10 0 6 -16 10 -35 10 l-35 0
0 -64z"/>
<path d="M2743 1183 c-18 -7 -16 -58 2 -73 16 -14 20 -40 6 -40 -5 0 -11 6
-14 13 -2 6 -8 9 -12 5 -14 -13 4 -38 29 -38 36 0 44 35 16 72 -23 32 -20 49
5 28 13 -10 15 -9 15 8 0 15 -22 36 -33 31 -1 0 -8 -3 -14 -6z"/>
<path d="M2856 1172 c-2 -4 -9 -27 -16 -52 -6 -25 -13 -53 -16 -62 -6 -21 22
-25 29 -5 3 8 10 7 26 -7 l21 -19 0 49 c0 27 -3 59 -6 71 -6 22 -30 38 -38 25z"/>
<path d="M2920 1122 c0 -28 -3 -57 -6 -66 -4 -11 -1 -16 10 -16 11 0 16 10 17
33 l1 32 10 -38 c13 -47 31 -43 39 9 l6 39 2 -40 c1 -32 6 -42 26 -51 32 -15
46 1 53 61 5 51 -8 75 -44 75 -18 0 -24 -6 -25 -22 l-1 -23 -6 23 c-4 13 -11
23 -17 23 -5 0 -13 -10 -16 -23 l-6 -23 -4 25 c-2 14 -12 26 -21 28 -15 3 -18
-4 -18 -46z m121 -65 c-8 -8 -11 1 -11 29 0 53 14 67 18 19 2 -21 -1 -42 -7
-48z"/>
<path d="M3127 1144 c-4 -4 -7 -33 -7 -65 0 -50 3 -59 22 -65 15 -4 25 -1 35
12 12 16 13 16 13 1 0 -9 7 -17 15 -17 9 0 15 9 15 24 0 14 5 28 10 31 6 4 10
-7 10 -24 0 -33 16 -42 23 -13 3 9 4 37 3 62 -1 43 -2 45 -33 48 -33 3 -33 3
-33 -44 0 -39 -2 -45 -14 -35 -11 10 -16 8 -24 -6 -16 -28 -23 -10 -16 37 6
37 9 41 19 27 17 -24 27 -21 23 6 -2 15 -11 23 -28 25 -14 2 -29 0 -33 -4z
m123 -39 c0 -8 -4 -15 -10 -15 -5 0 -10 7 -10 15 0 8 5 15 10 15 6 0 10 -7 10
-15z"/>
<path d="M3286 1109 c-3 -17 -6 -49 -6 -70 0 -37 2 -39 30 -39 34 0 40 15 10
23 -11 3 -20 10 -20 17 0 7 9 14 20 17 23 6 27 23 5 23 -9 0 -15 9 -15 21 0
14 5 19 15 16 8 -4 17 -2 20 2 5 9 -17 21 -40 21 -7 0 -15 -14 -19 -31z"/>
<path d="M2175 1069 l-65 -61 -33 26 c-86 70 -103 78 -149 69 -50 -10 -59 -32
-33 -82 20 -39 116 -154 209 -248 l70 -73 133 0 c73 0 133 4 133 9 0 5 8 11
19 14 26 7 37 106 13 125 -30 23 -46 10 -55 -45 l-8 -52 -143 125 -143 125 66
64 c84 82 73 85 -14 4z m285 -254 c0 -8 -4 -15 -10 -15 -5 0 -10 7 -10 15 0 8
5 15 10 15 6 0 10 -7 10 -15z m0 -61 c0 -8 -4 -14 -10 -14 -5 0 -10 9 -10 21
0 11 5 17 10 14 6 -3 10 -13 10 -21z"/>
<path d="M3371 1093 c-22 -84 -23 -93 -12 -93 6 0 11 5 11 10 0 16 22 12 36
-7 12 -16 13 -12 14 32 0 96 -30 131 -49 58z m25 -50 c-11 -11 -19 6 -11 24 8
17 8 17 12 0 3 -10 2 -21 -1 -24z"/>
<path d="M3440 1053 c0 -65 13 -78 23 -23 3 20 5 19 6 -8 1 -39 22 -39 32 -1
6 21 7 19 8 -10 2 -55 19 -24 27 48 6 58 5 63 -11 59 -11 -2 -23 -17 -29 -38
l-10 -35 -4 38 c-2 29 -7 37 -23 37 -17 0 -19 -7 -19 -67z"/>
<path d="M2535 963 c-25 -37 -45 -75 -45 -83 0 -13 58 70 89 129 24 44 0 18
-44 -46z"/>
<path d="M2330 960 c-48 -71 -47 -81 2 -12 43 59 51 72 44 72 -3 0 -24 -27
-46 -60z"/>
<path d="M2616 1005 c-3 -9 -6 -38 -6 -65 0 -46 10 -60 40 -60 17 0 33 41 21
53 -7 7 -13 4 -19 -13 -13 -35 -24 -8 -16 39 6 39 24 58 24 26 0 -8 5 -15 11
-15 6 0 9 10 7 23 -4 28 -52 37 -62 12z"/>
<path d="M2700 1000 c-6 -12 -10 -42 -8 -68 3 -45 4 -47 33 -47 29 0 30 2 36
55 5 43 3 58 -9 68 -23 18 -40 15 -52 -8z m40 -42 c0 -34 -15 -67 -25 -57 -8
9 6 89 16 89 5 0 9 -15 9 -32z"/>
<path d="M1794 975 c-21 -52 -18 -64 39 -145 95 -138 84 -130 172 -130 l78 0
-84 88 c-91 94 -154 196 -131 211 8 5 0 8 -23 9 -32 1 -38 -2 -51 -33z"/>
<path d="M2780 943 c4 -51 9 -69 21 -71 11 -2 20 13 32 57 20 70 21 81 7 81
-5 0 -15 -19 -22 -42 l-13 -43 -3 43 c-2 24 -8 42 -15 42 -9 0 -11 -19 -7 -67z"/>
<path d="M2856 940 c-4 -33 -4 -65 -1 -70 8 -13 55 -13 55 0 0 6 -7 10 -15 10
-8 0 -15 9 -15 20 0 11 7 20 15 20 8 0 15 4 15 9 0 5 -7 11 -15 15 -22 8 -18
36 5 36 11 0 20 5 20 10 0 6 -13 10 -29 10 -27 0 -29 -2 -35 -60z"/>
<path d="M2936 976 c-10 -35 -7 -116 4 -116 6 0 10 11 10 25 0 33 18 32 22 0
6 -52 23 -28 25 36 3 67 3 67 -27 71 -22 3 -30 0 -34 -16z m44 -21 c0 -8 -4
-15 -10 -15 -5 0 -10 7 -10 15 0 8 5 15 10 15 6 0 10 -7 10 -15z"/>
<path d="M3015 925 c-4 -37 -5 -69 -2 -71 3 -3 20 -4 39 -1 30 4 31 5 11 12
-26 8 -32 45 -8 45 8 0 15 5 15 10 0 6 -7 10 -15 10 -24 0 -17 28 8 32 33 5
27 23 -9 26 l-32 3 -7 -66z"/>
<path d="M3226 958 c17 -102 26 -138 36 -144 8 -5 9 1 5 17 -4 13 -12 54 -18
92 -7 37 -16 67 -20 67 -5 0 -6 -15 -3 -32z"/>
<path d="M3096 964 c-3 -9 -6 -40 -6 -70 l0 -55 32 3 c30 3 33 7 40 48 12 66
4 90 -31 90 -17 0 -31 -6 -35 -16z m39 -71 c-3 -19 -9 -32 -13 -28 -8 7 -3 75
6 90 10 16 15 -23 7 -62z"/>
<path d="M2563 918 c-6 -7 -16 -24 -22 -38 -12 -24 -12 -24 4 -5 20 24 37 55
32 55 -3 0 -9 -6 -14 -12z"/>
<path d="M2500 812 c0 -22 -3 -54 -6 -71 -5 -24 -3 -31 10 -31 13 0 16 11 16
60 0 33 0 63 1 67 0 4 -4 9 -10 11 -7 2 -11 -12 -11 -36z"/>
<path d="M2553 843 c-18 -7 -16 -58 2 -73 16 -14 20 -40 6 -40 -5 0 -11 6 -14
13 -2 6 -8 9 -12 5 -14 -13 4 -38 29 -38 36 0 42 32 15 70 -13 16 -19 33 -14
37 4 5 10 2 12 -4 7 -20 23 -15 23 6 0 15 -23 35 -33 30 -1 0 -8 -3 -14 -6z"/>
<path d="M2615 817 c-4 -13 -5 -43 -3 -68 3 -39 6 -44 28 -44 18 0 26 6 28 23
2 12 -1 22 -7 22 -6 0 -11 -7 -11 -15 0 -8 -4 -15 -10 -15 -11 0 -14 83 -3 93
3 4 12 -1 19 -11 16 -21 32 -7 18 16 -18 28 -52 27 -59 -1z"/>
<path d="M2686 781 c-8 -61 0 -81 30 -81 28 0 30 4 39 78 5 43 3 52 -10 52
-12 0 -15 -12 -15 -55 0 -30 -4 -55 -10 -55 -5 0 -10 25 -10 55 0 68 -15 72
-24 6z"/>
<path d="M2770 781 c0 -27 -3 -56 -6 -65 -4 -11 -1 -16 10 -16 13 0 16 12 16
65 0 37 -4 65 -10 65 -5 0 -10 -22 -10 -49z"/>
<path d="M2806 821 c-4 -5 -1 -11 6 -13 8 -3 11 -22 9 -56 -1 -29 2 -52 7 -52
11 0 22 34 22 72 0 14 6 29 13 31 9 4 8 8 -3 16 -19 13 -47 14 -54 2z"/>
<path d="M2916 812 c-10 -17 -10 -106 1 -109 6 -2 13 6 16 19 l4 23 8 -22 c4
-13 11 -23 16 -23 16 0 10 31 -11 57 -11 14 -17 30 -13 36 5 8 8 7 11 -1 4
-13 32 -17 32 -4 0 24 -52 43 -64 24z"/>
<path d="M2984 809 c-2 -4 0 -10 6 -14 5 -3 10 -26 10 -51 0 -24 4 -44 9 -44
10 0 21 34 21 68 0 12 5 22 10 22 6 0 10 4 10 9 0 11 -59 20 -66 10z"/>
<path d="M3058 760 c-3 -45 5 -71 17 -59 9 10 8 103 -2 106 -7 3 -12 -15 -15
-47z"/>
<path d="M3114 802 c-6 -4 -14 -28 -18 -54 -6 -40 -5 -48 8 -48 12 0 16 10 16
40 0 22 5 40 10 40 6 0 10 -4 10 -10 0 -5 5 -10 10 -10 16 0 11 37 -6 44 -19
7 -16 7 -30 -2z"/>
<path d="M3177 793 c-4 -3 -7 -25 -7 -48 0 -40 1 -42 31 -42 27 0 30 3 26 24
-2 12 2 31 9 40 17 23 17 33 1 33 -8 0 -19 -10 -25 -22 l-11 -23 0 23 c-1 22
-11 28 -24 15z"/>
<path d="M3262 788 c-7 -7 -12 -19 -12 -27 1 -20 34 -61 49 -61 15 0 14 6 -5
36 -9 13 -14 28 -10 32 4 3 11 0 15 -7 7 -10 10 -11 16 -1 5 8 1 18 -10 27
-23 16 -28 16 -43 1z"/>
<path d="M3140 710 c0 -5 5 -10 10 -10 6 0 10 5 10 10 0 6 -4 10 -10 10 -5 0
-10 -4 -10 -10z"/>
</g>
</svg>
