<?xml version="1.0" standalone="no"?>
<!DOCTYPE svg PUBLIC "-//W3C//DTD SVG 20010904//EN"
 "http://www.w3.org/TR/2001/REC-SVG-20010904/DTD/svg10.dtd">
<svg version="1.0" xmlns="http://www.w3.org/2000/svg"
 width="612.000000pt" height="612.000000pt" viewBox="0 0 612.000000 612.000000"
 preserveAspectRatio="xMidYMid meet">
<metadata>
Created by potrace 1.16, written by Peter Selinger 2001-2019
</metadata>
<g transform="translate(0.000000,612.000000) scale(0.100000,-0.100000)"
fill="#000000" stroke="none">
<path d="M808 5031 l-177 -156 -1 -1786 0 -1785 35 -34 c19 -19 35 -41 35 -49
1 -9 11 -28 23 -42 31 -36 126 -109 143 -109 7 0 23 -13 35 -30 12 -16 26 -27
31 -24 5 4 20 -4 33 -16 13 -12 27 -20 32 -17 4 2 266 13 581 23 563 18 572
19 572 39 0 11 -14 67 -30 124 -20 69 -30 126 -30 170 0 37 -5 72 -10 77 -12
12 -43 90 -71 179 -14 45 -17 76 -13 125 4 46 1 84 -11 130 -9 36 -17 76 -17
90 0 14 -4 32 -9 41 -11 21 2 32 57 47 32 9 46 20 58 47 23 47 31 50 76 26 22
-11 47 -18 55 -14 9 3 21 -2 28 -11 7 -10 25 -19 41 -20 16 -2 31 -9 35 -15 8
-13 41 -4 41 10 0 5 12 6 26 3 23 -6 25 -4 20 14 -4 12 -2 30 3 41 10 17 16
18 47 9 49 -13 68 -4 60 27 -9 35 3 31 16 -5 8 -25 13 -28 24 -19 11 9 12 15
3 26 -9 10 -8 17 3 31 8 9 18 23 22 29 11 19 -26 3 -41 -18 -7 -9 -20 -16 -28
-15 -19 3 -32 16 -15 16 7 0 11 2 8 5 -10 11 -60 -15 -55 -29 4 -9 -2 -12 -18
-9 -14 3 -30 -3 -41 -14 -33 -34 -91 -44 -158 -28 -33 8 -63 12 -68 9 -4 -3
-16 0 -26 5 -14 7 -27 5 -49 -9 -17 -10 -34 -16 -37 -13 -3 4 -27 -4 -53 -17
-40 -20 -50 -21 -78 -11 -17 6 -39 11 -48 11 -23 0 -22 42 2 71 17 21 27 24
75 22 31 -2 56 2 56 7 0 5 7 7 15 4 8 -4 15 -1 15 5 0 7 8 8 25 1 32 -12 55
-3 55 21 0 10 9 23 21 29 27 15 139 22 139 10 0 -26 102 2 108 30 2 8 9 21 14
28 9 11 13 11 20 0 5 -9 11 -10 16 -3 26 37 63 53 117 50 48 -2 61 2 92 26 20
16 40 29 44 29 5 0 9 8 10 18 0 9 3 12 5 5 4 -9 11 -9 30 -1 18 8 31 8 50 -1
16 -7 44 -9 70 -5 28 4 49 2 58 -5 14 -11 33 -10 119 5 27 6 27 5 27 -50 l0
-55 -39 -11 c-27 -7 -42 -18 -47 -33 -7 -26 -43 -67 -57 -67 -22 0 -86 36 -87
48 0 6 -7 12 -15 12 -8 0 -15 4 -15 9 0 12 -49 20 -56 10 -3 -5 -17 -9 -32 -9
-35 -1 -112 -35 -112 -51 0 -9 3 -9 14 0 22 18 88 19 109 1 11 -8 28 -28 38
-45 14 -22 27 -30 51 -31 44 -2 87 -10 95 -17 3 -4 18 0 34 9 20 10 29 22 29
39 0 13 5 27 10 30 6 3 10 14 10 24 0 10 7 24 15 31 20 17 38 1 55 -50 12 -37
12 -40 -11 -59 -20 -17 -21 -22 -10 -30 8 -5 20 -7 28 -4 20 8 18 -86 -3 -101
-14 -10 -13 -14 5 -38 27 -33 29 -86 4 -84 -12 1 -19 -7 -21 -23 -3 -20 0 -23
17 -18 27 7 33 -25 7 -38 -26 -13 -27 -57 -2 -61 10 -1 21 -5 24 -9 10 -9 10
-145 0 -151 -13 -8 -9 -36 8 -55 11 -12 18 -41 20 -86 1 -37 5 -101 8 -141 5
-67 4 -72 -14 -72 -15 0 -20 7 -20 25 0 18 -4 23 -15 19 -9 -4 -15 -19 -15
-35 0 -22 5 -29 20 -29 12 0 20 -7 20 -16 0 -14 3 -14 15 -4 13 11 15 8 16
-21 0 -19 2 -47 4 -63 4 -26 3 -27 -10 -10 -13 18 -14 18 -20 2 -4 -9 -4 -21
-1 -27 4 -5 2 -12 -4 -16 -28 -17 -4 -26 68 -23 54 2 76 7 75 15 -14 70 -20
248 -13 358 2 22 -3 67 -10 100 -7 33 -14 98 -16 145 -1 47 -6 132 -9 190 -4
58 -3 123 2 144 6 29 4 58 -10 110 -27 104 -32 200 -14 271 10 41 13 95 11
173 -2 61 0 113 4 113 4 1 27 3 51 4 36 3 48 9 73 39 32 39 46 38 88 -4 10
-10 27 -16 37 -14 12 3 21 -3 28 -18 6 -13 15 -23 22 -23 7 0 20 -7 30 -15 21
-17 53 -22 53 -9 0 5 12 6 26 3 23 -6 25 -4 20 13 -3 10 0 27 8 38 13 18 14
18 52 -4 34 -21 39 -21 50 -7 11 15 12 15 18 1 8 -22 29 -7 23 16 -4 13 3 25
19 35 28 19 32 37 7 27 -26 -10 -53 -36 -47 -45 3 -4 1 -8 -4 -8 -12 0 -24 29
-16 41 3 5 -6 9 -20 9 -14 0 -26 -4 -26 -10 0 -5 -13 -10 -29 -10 -16 0 -34
-7 -41 -15 -17 -21 -95 -19 -145 3 -78 35 -126 46 -143 35 -10 -6 -31 -8 -48
-6 -18 3 -35 0 -38 -6 -11 -18 -54 -13 -96 12 -46 25 -50 44 -17 75 27 25 40
27 102 10 34 -9 48 -9 56 -1 9 9 18 8 36 -4 23 -15 25 -15 54 17 22 24 35 31
52 26 12 -3 41 -6 64 -6 29 0 42 -4 40 -12 -4 -22 90 -15 107 8 8 10 12 22 9
27 -6 10 20 4 28 -6 3 -5 22 0 41 10 34 18 75 21 130 7 19 -4 36 -1 53 10 13
9 31 16 39 16 7 0 16 7 20 15 3 8 11 15 18 15 9 0 8 -3 -2 -10 -10 -6 -4 -8
21 -4 24 4 40 1 50 -8 8 -8 36 -17 63 -20 27 -3 52 -11 56 -18 8 -13 169 -10
201 4 10 4 29 -5 54 -24 44 -35 68 -37 113 -10 18 11 39 20 47 20 8 0 25 12
39 26 20 23 29 26 60 20 20 -4 36 -11 36 -16 0 -5 15 -17 33 -26 55 -28 68
-43 54 -65 -6 -10 -17 -19 -23 -19 -6 0 -17 -7 -24 -15 -7 -8 -16 -12 -22 -9
-5 3 -16 0 -25 -8 -17 -14 -25 -14 -246 -24 -83 -3 -143 -2 -150 4 -36 29
-117 20 -117 -12 0 -22 -49 -48 -76 -42 -14 4 -22 11 -19 17 4 5 3 9 -2 8 -17
-4 -43 14 -43 30 0 30 -49 49 -114 46 -59 -4 -116 -21 -116 -35 0 -4 17 -2 37
5 26 9 40 10 44 3 4 -6 15 -8 25 -4 10 4 15 4 11 0 -3 -4 5 -20 18 -36 14 -16
25 -37 25 -47 0 -25 11 -33 27 -20 9 8 13 8 13 1 0 -9 26 -23 50 -27 3 0 15
-6 27 -13 26 -14 73 -1 73 21 0 8 14 33 31 56 28 39 32 42 47 27 10 -8 19 -27
20 -42 3 -35 2 -35 49 -37 30 -1 52 7 88 31 50 33 85 39 131 22 18 -7 44 -7
85 1 81 16 89 8 89 -86 0 -95 -15 -169 -44 -225 -64 -121 -65 -124 -75 -249
-9 -93 -16 -132 -31 -157 -45 -72 -80 -195 -94 -330 -8 -72 -21 -144 -29 -160
-36 -69 -80 -222 -85 -294 -3 -43 -12 -85 -20 -99 l-16 -23 130 6 c71 4 338
13 594 21 256 8 511 17 568 21 l102 6 0 1935 c0 1064 -3 1932 -7 1930 -7 -4
-364 7 -898 28 -230 8 -1166 42 -1795 65 -311 11 -609 22 -664 25 l-99 5 8
-182 c17 -413 20 -591 10 -594 -5 -1 -100 -8 -210 -14 -110 -6 -382 -22 -605
-35 -223 -14 -417 -25 -432 -25 l-28 0 -2 449 -3 449 -177 -157z m2699 -235
c36 -17 63 -39 87 -73 42 -57 56 -109 56 -200 0 -151 -71 -271 -170 -288 -23
-4 -40 -12 -40 -20 0 -16 -59 -26 -82 -14 -9 5 -37 9 -63 9 -54 0 -110 31
-151 86 l-28 36 29 51 c42 75 41 152 -4 241 l-33 65 20 26 c55 70 138 104 252
105 59 0 86 -5 127 -24z m286 8 c60 -7 65 -12 47 -59 l-10 -26 33 24 c68 52
179 61 235 20 85 -62 79 -211 -13 -321 -74 -88 -223 -97 -282 -16 l-20 27 -12
-64 c-31 -160 -31 -159 -56 -159 -13 0 -28 7 -33 17 -7 12 -18 15 -45 10 l-35
-5 29 47 c54 86 75 229 48 326 -9 30 -8 57 1 110 15 83 17 87 38 81 10 -3 43
-8 75 -12z m-2854 -101 l1 -58 -49 -32 -49 -32 -4 56 c-3 50 -1 57 20 66 12 6
22 14 22 18 0 4 12 14 28 22 15 8 28 15 28 16 1 1 2 -25 3 -56z m2099 -6 c22
-16 52 -51 68 -80 53 -97 33 -204 -50 -271 -33 -27 -46 -31 -97 -31 -32 0 -59
-1 -59 -3 0 -1 22 -38 50 -82 l49 -80 -55 -41 c-31 -22 -56 -39 -58 -37 -20
34 -115 167 -208 290 l-118 158 42 26 c24 14 52 32 63 39 18 11 23 9 45 -17
l25 -30 2 34 c3 46 50 107 103 136 61 32 141 28 198 -11z m-2276 -163 c-3 -23
-14 -36 -48 -57 l-44 -27 0 53 c1 49 3 54 43 84 l42 32 5 -27 c3 -15 4 -41 2
-58z m3512 40 c37 -37 7 -114 -45 -114 -58 0 -65 89 -9 117 32 16 35 16 54 -3z
m-3364 -43 c0 -33 -5 -51 -14 -54 -26 -10 -37 68 -14 91 21 21 28 13 28 -37z
m-146 -246 c-3 -27 -6 -50 -7 -50 -1 0 -21 -11 -44 -23 l-43 -23 0 65 c0 66 0
66 40 92 45 30 47 32 23 30 -11 -1 -20 9 -24 29 -8 30 -8 30 -6 -5 0 -19 -2
-41 -7 -48 -15 -24 -26 -11 -26 32 0 41 3 47 43 74 l42 30 7 -77 c4 -42 5 -98
2 -126z m45 146 c16 -49 14 -132 -6 -201 -29 -106 -34 -45 -7 94 4 24 3 37 -2
33 -6 -3 -11 23 -12 61 -3 70 6 75 27 13z m138 7 c-3 -7 -5 -2 -5 12 0 14 2
19 5 13 2 -7 2 -19 0 -25z m-33 -13 c-4 -8 -10 -15 -15 -15 -5 0 -9 -4 -9 -10
0 -5 7 -7 15 -4 8 4 15 1 15 -6 0 -6 -4 -9 -9 -6 -5 3 -11 -3 -14 -14 -3 -12
1 -20 11 -22 11 -2 7 -7 -13 -16 -26 -12 -27 -12 -15 4 13 14 12 16 -5 12 -15
-2 -19 -10 -17 -28 2 -14 0 -21 -5 -17 -4 5 -9 13 -9 18 -1 5 -2 10 -3 12 -1
1 -4 16 -5 33 -3 26 2 33 33 51 45 26 52 27 45 8z m20 -180 c6 -48 5 -51 -24
-67 -28 -16 -30 -16 -31 0 0 13 -2 12 -9 -4 -19 -47 -30 -36 -30 30 0 50 3 66
14 66 8 0 17 -6 19 -12 3 -7 6 -3 6 10 1 12 7 22 16 22 8 0 15 5 15 12 0 31
18 -12 24 -57z m2726 -45 c0 -35 -3 -40 -27 -46 -59 -14 -63 -25 -63 -164 l0
-128 -41 -4 c-22 -2 -42 -1 -44 2 -2 3 -6 66 -10 140 -3 74 -8 154 -11 176
l-5 42 46 4 c31 2 45 -1 45 -9 0 -18 7 -16 30 7 11 11 33 20 50 20 28 0 30 -2
30 -40z m368 5 c28 -9 54 -19 56 -24 3 -5 -1 -23 -10 -40 -13 -26 -20 -30 -37
-24 -42 14 -91 9 -95 -9 -2 -11 3 -18 11 -18 8 0 33 -14 55 -30 35 -25 42 -36
42 -65 0 -24 -9 -44 -29 -67 -24 -27 -36 -32 -88 -36 -46 -3 -71 1 -111 18
-29 12 -52 27 -52 32 0 10 29 68 34 68 2 0 17 -7 32 -15 16 -8 44 -15 62 -15
42 0 43 25 0 48 -50 27 -68 49 -68 85 0 41 23 75 64 93 41 17 71 17 134 -1z
m-3269 -52 c-1 -55 -16 -129 -18 -91 -1 15 -5 16 -27 8 -14 -6 -30 -10 -35
-10 -13 0 -7 110 6 111 6 1 21 10 34 20 13 11 28 19 32 19 5 0 9 -26 8 -57z
m2989 42 c22 -6 23 -11 18 -50 -7 -42 -6 -43 24 -50 31 -7 34 -14 24 -53 -6
-19 -11 -22 -35 -17 -33 7 -42 -7 -54 -88 -6 -36 -4 -47 6 -47 29 0 41 -17 35
-47 -7 -29 -8 -29 -49 -23 -91 14 -106 41 -81 151 17 74 13 88 -25 89 -8 0
-11 6 -7 16 3 9 6 22 6 30 0 9 11 14 29 14 26 0 30 5 40 46 9 35 15 44 29 40
9 -2 28 -7 40 -11z m-372 -24 c17 -10 35 -32 41 -47 11 -28 53 -201 53 -216 0
-4 -19 -12 -41 -18 -33 -9 -44 -9 -50 1 -6 10 -14 8 -33 -10 -30 -28 -88 -41
-134 -29 -37 10 -72 58 -72 99 0 53 83 118 153 119 29 0 34 9 15 28 -18 18
-59 15 -103 -8 -22 -11 -42 -20 -45 -20 -4 0 -12 16 -18 36 l-11 36 52 24 c65
30 148 32 193 5z m-2379 -38 c-3 -10 -5 -2 -5 17 0 19 2 27 5 18 2 -10 2 -26
0 -35z m2039 -45 c9 -18 18 -34 19 -36 2 -2 17 4 34 12 16 9 32 16 35 16 7 0
39 -61 34 -65 -2 -1 -18 -10 -35 -19 -18 -9 -33 -20 -33 -24 0 -4 17 -38 38
-77 35 -66 39 -70 71 -70 26 0 36 -6 44 -23 9 -20 7 -27 -14 -43 -36 -28 -84
-34 -114 -15 -15 10 -44 54 -68 104 -29 59 -48 86 -58 83 -7 -2 -22 -6 -31 -8
-11 -3 -22 5 -32 26 -16 30 -16 31 14 46 29 15 30 16 15 45 -21 41 -20 45 23
63 20 8 38 15 39 16 1 1 10 -14 19 -31z m-2039 -125 c-3 -10 -5 -4 -5 12 0 17
2 24 5 18 2 -7 2 -21 0 -30z m2 -299 l-2 -253 -51 -10 c-56 -10 -287 -33 -291
-29 -1 2 -5 96 -8 210 -4 154 -2 209 6 217 11 8 116 50 277 109 30 11 59 17
63 15 5 -3 7 -119 6 -259z m4136 -51 c-4 -164 -10 -379 -14 -478 l-6 -180
-165 -14 c-121 -10 -165 -11 -168 -2 -2 6 -12 11 -22 11 -10 0 -22 5 -25 10
-3 6 -15 10 -26 10 -10 0 -19 7 -19 15 0 17 -21 20 -36 6 -5 -6 -20 -11 -34
-13 -26 -4 -73 -31 -102 -60 -22 -22 -42 -23 -58 -3 -7 8 -21 15 -32 15 -11 0
-33 9 -50 21 -25 19 -34 20 -71 11 -34 -9 -45 -8 -58 4 -12 11 -27 13 -50 9
-21 -4 -51 0 -77 9 -23 8 -45 15 -47 15 -3 -1 -23 2 -44 6 -41 7 -77 -5 -97
-33 -8 -10 -17 -13 -30 -7 -32 14 -84 17 -84 5 0 -7 -6 -8 -19 0 -11 5 -28 10
-38 10 -27 0 -103 -32 -98 -41 7 -11 -52 -25 -95 -23 -42 2 -72 13 -83 30 -18
31 -160 1 -158 -32 1 -14 -49 -24 -93 -19 -23 3 -60 7 -83 9 -37 5 -45 2 -59
-19 -9 -14 -22 -25 -29 -25 -21 0 -45 -29 -45 -55 0 -29 11 -27 -345 -55 -143
-12 -415 -34 -605 -50 -190 -17 -348 -30 -352 -30 -5 0 -8 70 -8 155 0 128 2
155 14 155 8 0 21 -8 28 -19 7 -10 35 -29 62 -42 41 -19 65 -23 143 -22 57 0
99 5 106 12 6 6 27 11 46 11 20 0 47 9 61 20 14 11 33 20 42 20 9 0 24 10 32
21 8 12 28 30 45 40 17 10 31 25 31 32 0 7 11 24 24 36 28 26 38 65 36 136 -1
51 -20 91 -20 45 -1 -71 -98 -194 -189 -239 -110 -56 -233 -76 -336 -58 -70
13 -179 100 -173 138 2 13 10 24 18 26 13 4 13 3 0 -6 -13 -9 -9 -16 23 -47
25 -25 43 -35 57 -31 10 3 21 0 23 -6 5 -17 113 -17 187 0 93 21 146 40 198
70 51 30 132 104 132 120 0 5 9 18 19 27 11 10 17 24 14 32 -3 8 0 21 6 28 32
39 -49 176 -104 176 -12 0 -28 6 -34 14 -14 17 -196 15 -228 -2 -12 -7 -32
-12 -45 -12 -13 0 -34 -9 -48 -20 -14 -11 -32 -20 -41 -20 -9 0 -22 -7 -30
-16 -15 -19 -69 -47 -76 -40 -6 6 -4 289 3 295 2 3 248 19 547 37 298 18 577
35 620 38 l78 5 30 -47 c54 -85 130 -111 214 -73 54 24 105 69 105 91 0 39 71
59 101 29 17 -17 29 -18 89 -13 56 6 76 3 107 -12 46 -22 141 -35 166 -22 10
5 25 25 33 43 l13 33 59 -5 c47 -4 68 -1 108 17 45 20 94 25 579 55 292 18
536 33 543 34 12 1 13 -50 7 -296z m-3185 -213 c0 -5 -5 -10 -11 -10 -5 0 -7
5 -4 10 3 6 8 10 11 10 2 0 4 -4 4 -10z m344 -13 c-3 -8 -12 -18 -20 -21 -11
-4 -10 0 3 18 20 26 27 28 17 3z m-1294 -768 c0 -476 -4 -750 -10 -754 -12 -8
-40 8 -123 70 l-66 50 -3 175 -3 175 -2 -177 c-2 -98 -5 -178 -7 -178 -2 0
-33 13 -68 30 l-66 29 -4 59 c-7 104 -10 1110 -3 1177 8 76 10 76 130 81 44 2
103 7 130 12 28 4 60 6 73 4 l22 -4 0 -749z m1210 727 c0 -3 -4 -8 -10 -11 -5
-3 -10 -1 -10 4 0 6 5 11 10 11 6 0 10 -2 10 -4z m-185 -34 c0 -8 -14 -20 -32
-27 -26 -11 -35 -11 -49 0 -16 11 -16 15 -4 29 16 21 85 18 85 -2z m110 -92
c-3 -5 -11 -10 -16 -10 -6 0 -7 5 -4 10 3 6 11 10 16 10 6 0 7 -4 4 -10z
m-340 -30 c3 -5 -1 -10 -10 -10 -9 0 -13 5 -10 10 3 6 8 10 10 10 2 0 7 -4 10
-10z m140 -40 c-3 -5 -11 -10 -16 -10 -6 0 -7 5 -4 10 3 6 11 10 16 10 6 0 7
-4 4 -10z m-158 -72 c-3 -8 -6 -5 -6 6 -1 11 2 17 5 13 3 -3 4 -12 1 -19z
m3619 -973 c7 -19 14 -36 14 -39 0 -2 -25 -18 -55 -35 -30 -17 -59 -40 -65
-51 -10 -19 -9 -20 27 -15 77 12 139 -58 131 -145 -11 -113 -123 -175 -209
-117 -54 36 -71 79 -66 167 4 87 26 137 84 192 31 29 106 78 121 78 2 0 10
-16 18 -35z m-281 -205 l0 -215 -47 -3 -48 -3 0 151 c0 151 0 151 -22 149 -31
-4 -48 8 -48 35 0 35 95 108 134 104 l31 -3 0 -215z m-4355 37 c52 -27 100
-53 106 -58 7 -5 39 -23 73 -39 l61 -30 -1 -320 c-1 -176 -4 -320 -7 -320 -3
0 -23 17 -44 37 -33 32 -38 43 -40 88 -1 50 -2 50 -5 8 -2 -24 -8 -43 -12 -43
-4 0 -60 45 -124 101 l-117 101 -1 156 c0 87 -2 202 -4 256 -4 96 -1 121 13
114 4 -2 50 -25 102 -51z m4838 -333 c25 -17 28 -42 8 -69 -12 -17 -12 -24 0
-47 14 -27 14 -28 -10 -28 -17 0 -27 9 -37 33 l-14 32 -5 -35 c-3 -22 -10 -35
-20 -35 -12 0 -16 16 -18 77 l-3 77 28 4 c15 2 33 5 38 6 6 0 21 -6 33 -15z
m-454 -65 c19 -39 37 -66 40 -60 4 6 18 8 32 5 34 -9 30 12 -6 31 -52 27 -37
95 20 95 14 0 31 -5 38 -12 9 -9 12 -9 12 0 0 8 18 12 50 12 43 0 50 -3 50
-20 0 -11 -7 -20 -15 -20 -12 0 -15 -13 -15 -60 0 -53 -2 -60 -20 -60 -18 0
-20 7 -20 59 0 50 -3 59 -20 64 -11 3 -22 1 -25 -3 -3 -4 -14 -6 -25 -3 -30 8
-24 -10 10 -29 37 -21 41 -61 8 -82 -30 -18 -108 -18 -115 0 -7 19 -59 18 -67
-1 -6 -17 -36 -21 -36 -5 0 13 61 160 67 160 2 0 19 -32 37 -71z m346 51 c0
-16 -7 -20 -30 -20 -16 0 -30 -4 -30 -10 0 -5 12 -10 26 -10 33 0 30 -33 -4
-38 -33 -5 -27 -22 8 -22 23 0 30 -4 30 -20 0 -17 -7 -20 -50 -20 l-50 0 0 80
0 80 50 0 c43 0 50 -3 50 -20z m-592 -8 c2 -7 -5 -16 -16 -19 -18 -4 -22 -14
-24 -67 -2 -46 -7 -61 -18 -61 -11 0 -16 15 -18 63 -2 46 -7 62 -17 62 -8 0
-15 9 -15 21 0 18 5 20 52 17 31 -2 53 -8 56 -16z m132 -9 c16 -21 20 -37 16
-62 -8 -48 -32 -71 -77 -71 -51 0 -83 39 -75 90 11 70 94 96 136 43z m579
-182 c24 -15 5 -42 -24 -35 -34 8 -31 -7 5 -28 63 -36 21 -120 -45 -90 -15 7
-27 8 -30 2 -4 -6 -26 -10 -51 -10 l-44 0 0 80 0 80 50 0 c28 0 50 -5 50 -11
0 -5 10 -3 22 5 25 18 46 20 67 7z m-278 -11 c21 -12 26 -59 7 -78 -9 -9 -9
-18 0 -37 16 -34 15 -35 -8 -35 -13 0 -24 10 -30 25 -13 34 -30 32 -30 -4 0
-22 -4 -29 -17 -27 -15 2 -18 12 -17 52 3 120 0 114 40 114 19 0 44 -5 55 -10z
m69 -70 c0 -73 -2 -80 -20 -80 -18 0 -20 7 -20 73 0 76 4 87 27 87 10 0 13
-20 13 -80z m-416 6 c25 -58 30 -63 56 -62 42 2 45 11 11 36 -33 23 -41 59
-18 78 6 6 54 11 105 11 77 1 92 -2 92 -15 0 -9 -8 -18 -18 -21 -15 -4 -19
-15 -20 -60 -1 -61 -4 -68 -27 -59 -13 5 -16 17 -14 56 2 27 0 52 -2 55 -9 8
-89 14 -89 6 0 -4 14 -17 30 -29 32 -24 40 -61 17 -80 -16 -13 -127 -14 -127
-1 0 15 -57 10 -64 -6 -6 -17 -36 -21 -36 -5 0 18 62 160 70 160 4 0 19 -29
34 -64z m-96 42 c27 -27 0 -88 -40 -88 -13 0 -18 -8 -18 -30 0 -23 -4 -30 -20
-30 -18 0 -20 7 -20 80 l0 80 43 0 c24 0 48 -5 55 -12z m-4037 -265 c13 -17
13 -17 -6 -3 -11 8 -22 16 -24 17 -2 2 0 3 6 3 6 0 17 -8 24 -17z"/>
<path d="M3298 4627 c-64 -60 -37 -214 43 -247 41 -17 96 -3 122 31 40 55 32
159 -18 213 -33 36 -110 37 -147 3z"/>
<path d="M3871 4674 c-77 -64 -61 -204 23 -204 63 0 106 55 106 135 0 85 -68
121 -129 69z"/>
<path d="M2845 4599 c-33 -19 -45 -41 -45 -81 0 -123 142 -192 179 -87 30 86
-66 206 -134 168z"/>
<path d="M870 4379 c0 -11 4 -18 10 -14 5 3 7 12 3 20 -7 21 -13 19 -13 -6z"/>
<path d="M3262 3998 c-31 -31 3 -76 43 -56 25 13 35 28 35 51 0 13 -8 17 -33
17 -18 0 -38 -5 -45 -12z"/>
<path d="M915 3800 c-3 -5 -1 -10 4 -10 6 0 11 5 11 10 0 6 -2 10 -4 10 -3 0
-8 -4 -11 -10z"/>
<path d="M846 3765 c4 -8 8 -15 10 -15 2 0 4 7 4 15 0 8 -4 15 -10 15 -5 0 -7
-7 -4 -15z"/>
<path d="M775 3750 c3 -5 8 -10 11 -10 2 0 4 5 4 10 0 6 -5 10 -11 10 -5 0 -7
-4 -4 -10z"/>
<path d="M903 3738 c-2 -16 1 -18 10 -9 7 7 8 14 1 21 -6 6 -10 2 -11 -12z"/>
<path d="M824 3720 c0 -10 6 -16 13 -13 17 7 17 19 0 26 -7 3 -13 -3 -13 -13z"/>
<path d="M744 3701 c0 -13 6 -16 24 -13 25 5 25 5 -3 20 -17 9 -21 7 -21 -7z"/>
<path d="M705 3680 c-3 -5 1 -10 9 -10 9 0 16 5 16 10 0 6 -4 10 -9 10 -6 0
-13 -4 -16 -10z"/>
<path d="M875 3670 c3 -5 8 -10 11 -10 2 0 4 5 4 10 0 6 -5 10 -11 10 -5 0 -7
-4 -4 -10z"/>
<path d="M853 3635 c0 -22 2 -30 4 -17 2 12 2 30 0 40 -3 9 -5 -1 -4 -23z"/>
<path d="M790 3650 c0 -13 11 -13 30 0 12 8 11 10 -7 10 -13 0 -23 -4 -23 -10z"/>
<path d="M891 3633 c-1 -16 4 -21 19 -20 23 1 28 17 6 17 -8 0 -17 6 -19 13
-3 6 -6 2 -6 -10z"/>
<path d="M702 3600 c0 -19 2 -27 5 -17 2 9 2 25 0 35 -3 9 -5 1 -5 -18z"/>
<path d="M795 3620 c-3 -6 1 -7 9 -4 18 7 21 14 7 14 -6 0 -13 -4 -16 -10z"/>
<path d="M723 3590 c1 -20 12 -26 20 -12 3 4 -1 13 -8 19 -11 10 -13 9 -12 -7z"/>
<path d="M810 3600 c-13 -8 -12 -10 3 -10 9 0 17 5 17 10 0 12 -1 12 -20 0z"/>
<path d="M950 3470 c0 -5 5 -10 11 -10 5 0 7 5 4 10 -3 6 -8 10 -11 10 -2 0
-4 -4 -4 -10z"/>
<path d="M3948 3533 c-13 -3 -15 -14 -11 -66 3 -34 6 -63 7 -64 1 -1 19 0 39
4 42 6 50 23 12 23 -16 0 -25 6 -25 15 0 8 9 15 20 15 11 0 20 5 20 10 0 6 -9
10 -20 10 -11 0 -20 7 -20 15 0 8 9 15 20 15 11 0 20 7 20 15 0 15 -25 18 -62
8z"/>
<path d="M4040 3513 c0 -16 3 -45 7 -67 6 -38 6 -38 46 -33 50 7 61 18 61 61
0 49 -18 66 -70 66 -41 0 -44 -2 -44 -27z m78 -41 c-4 -40 -34 -41 -42 -1 -8
40 0 52 25 38 14 -7 19 -18 17 -37z"/>
<path d="M3736 3514 c-23 -22 -16 -46 17 -62 15 -7 27 -17 27 -22 0 -16 -21
-22 -35 -10 -15 12 -31 -3 -20 -20 9 -15 61 -12 75 5 18 21 4 63 -22 67 -30 4
-34 26 -6 30 13 2 23 8 23 13 0 17 -42 17 -59 -1z"/>
<path d="M3820 3515 c0 -8 7 -15 15 -15 10 0 15 -10 15 -27 0 -44 11 -73 27
-73 13 0 15 10 11 50 -4 38 -2 50 8 50 8 0 14 7 14 15 0 11 -12 15 -45 15 -33
0 -45 -4 -45 -15z"/>
<path d="M3355 3513 c-18 -3 -20 -10 -17 -73 3 -62 6 -70 24 -70 15 0 19 6 16
28 -2 22 1 28 20 30 31 5 28 32 -4 32 -31 0 -28 23 4 28 12 2 22 10 22 18 0
14 -21 16 -65 7z"/>
<path d="M3589 3502 c-47 -39 -16 -122 47 -122 33 0 64 34 64 70 0 60 -64 90
-111 52z m75 -34 c14 -23 -3 -52 -32 -56 -16 -2 -23 3 -28 22 -3 14 -3 33 0
42 8 20 45 15 60 -8z"/>
<path d="M3462 3501 c-17 -10 -12 -123 6 -129 7 -2 12 7 13 25 l0 28 16 -22
c8 -13 25 -23 36 -23 19 0 19 1 4 18 -19 21 -22 42 -7 42 14 0 13 43 -2 58
-14 14 -47 16 -66 3z m46 -38 c-5 -25 -28 -28 -28 -4 0 12 6 21 16 21 9 0 14
-7 12 -17z"/>
<path d="M4937 3288 c3 -51 8 -96 12 -100 3 -3 27 -4 54 -1 37 4 47 9 47 24 0
14 -7 19 -30 19 -20 0 -30 5 -30 15 0 9 9 15 24 15 28 0 39 11 30 33 -3 9 -16
15 -32 14 -18 -1 -27 4 -30 16 -3 13 3 17 27 17 24 0 31 4 31 20 0 18 -7 20
-54 20 l-55 0 6 -92z"/>
<path d="M4704 3355 c-2 -5 -7 -49 -12 -97 -8 -87 -8 -88 15 -88 21 0 23 5 23
44 0 62 16 66 32 9 9 -30 20 -49 31 -51 18 -4 22 3 32 61 6 40 25 51 25 15 0
-47 12 -68 37 -68 18 0 23 4 19 18 -2 9 -12 52 -21 95 -17 75 -18 78 -44 75
-22 -3 -27 -9 -35 -50 -4 -27 -12 -48 -16 -48 -5 0 -16 22 -25 49 -13 39 -20
49 -37 48 -11 -1 -22 -6 -24 -12z"/>
<path d="M4190 3332 c-38 -38 -47 -76 -29 -126 18 -53 68 -82 122 -72 35 6 37
9 37 43 0 29 -3 34 -12 25 -7 -7 -26 -12 -43 -12 -33 0 -55 28 -55 69 0 40 61
66 89 39 10 -11 12 -6 9 22 -3 33 -5 35 -46 38 -36 3 -47 -1 -72 -26z"/>
<path d="M4542 3352 c-13 -4 -17 -106 -6 -161 6 -30 8 -31 60 -31 49 0 54 2
54 23 0 18 -5 22 -32 22 -42 0 -46 28 -5 33 19 2 27 9 27 23 0 14 -7 19 -30
19 -19 0 -30 5 -30 14 0 7 14 16 30 20 22 4 30 11 30 26 0 18 -5 21 -43 19
-23 -2 -48 -4 -55 -7z"/>
<path d="M4386 3342 l-39 -3 7 -91 c4 -51 9 -95 12 -99 2 -4 13 -5 25 -2 16 5
19 11 14 34 -8 38 6 37 28 -1 12 -20 26 -30 43 -30 29 0 30 9 4 43 -24 30 -24
34 -5 53 30 30 12 87 -30 96 -11 2 -37 3 -59 0z m52 -66 c-4 -31 -38 -34 -38
-3 0 29 7 37 27 30 8 -3 13 -15 11 -27z"/>
<path d="M3881 3324 c-19 -14 -22 -23 -18 -53 3 -27 -1 -43 -14 -60 -38 -47
-11 -101 51 -101 21 0 41 4 45 9 3 6 29 7 58 4 l52 -6 -24 26 c-20 22 -22 29
-11 42 11 13 11 19 -3 32 -13 14 -19 14 -32 3 -25 -21 -41 2 -21 32 20 30 11
62 -20 77 -32 14 -35 14 -63 -5z m55 -35 c10 -17 -13 -36 -27 -22 -12 12 -4
33 11 33 5 0 12 -5 16 -11z m-16 -104 c10 -12 10 -19 2 -27 -15 -15 -43 8 -35
28 7 18 17 18 33 -1z"/>
<path d="M3596 3281 c-10 -11 -16 -31 -14 -48 2 -22 12 -32 46 -48 23 -11 42
-25 42 -33 0 -19 -30 -27 -53 -13 -16 10 -21 10 -28 -1 -13 -20 -11 -26 10
-38 28 -14 63 -12 89 6 16 11 22 25 22 55 0 38 -2 41 -46 59 -49 21 -52 46 -4
36 20 -4 30 -1 34 11 14 35 -69 47 -98 14z"/>
<path d="M3441 3283 c-23 -5 -24 -6 -19 -99 3 -52 7 -97 10 -100 3 -2 31 -2
62 2 46 6 56 10 56 25 0 15 -7 19 -33 19 -19 0 -37 3 -40 7 -12 11 15 33 40
33 39 0 26 34 -15 38 -37 4 -46 32 -9 32 28 0 43 11 42 30 0 16 -47 22 -94 13z"/>
<path d="M3325 3183 c4 -54 9 -101 11 -104 2 -4 14 -4 26 -2 23 4 23 6 16 96
-3 51 -7 95 -7 100 -1 4 -13 7 -27 7 l-26 0 7 -97z"/>
<path d="M3116 3262 c-2 -4 -2 -52 1 -105 l6 -98 26 3 c24 3 26 7 23 41 -4 46
5 47 41 2 21 -26 36 -35 57 -35 17 0 30 3 30 6 0 4 -16 24 -35 45 -19 22 -35
44 -35 50 0 6 12 30 26 55 l26 44 -29 0 c-24 0 -34 -8 -52 -41 -27 -48 -37
-43 -40 24 -1 17 -35 24 -45 9z"/>
<path d="M2515 3246 c-37 -16 -53 -35 -65 -76 -21 -74 30 -150 100 -150 56 0
70 8 70 41 0 33 0 33 -34 18 -40 -19 -76 10 -76 60 0 48 19 65 65 58 32 -5 35
-4 35 18 0 24 -25 45 -52 45 -7 -1 -27 -7 -43 -14z"/>
<path d="M2924 3241 c-90 -55 -48 -191 58 -191 59 0 98 42 98 105 0 40 -5 52
-31 76 -37 35 -79 38 -125 10z m96 -50 c18 -34 12 -69 -15 -87 -23 -15 -27
-15 -50 0 -45 30 -27 106 25 106 19 0 33 -7 40 -19z"/>
<path d="M2712 3238 c-36 -10 -72 -58 -72 -96 0 -36 27 -80 60 -97 46 -24 78
-19 116 19 83 83 9 206 -104 174z m72 -54 c35 -35 10 -104 -38 -104 -30 0 -46
18 -46 54 0 55 50 85 84 50z"/>
<path d="M900 3302 c0 -6 -7 -9 -15 -6 -8 4 -15 1 -15 -5 0 -6 5 -11 10 -11 6
0 10 -8 11 -17 0 -14 2 -15 6 -3 3 8 11 18 17 22 8 5 7 11 -2 20 -9 9 -12 9
-12 0z"/>
<path d="M815 3291 c-6 -11 9 -23 19 -14 9 9 7 23 -3 23 -6 0 -12 -4 -16 -9z"/>
<path d="M851 3252 c-1 -21 5 -35 14 -39 20 -7 34 5 18 15 -7 4 -16 19 -22 32
-9 24 -10 24 -10 -8z"/>
<path d="M910 3261 c0 -6 5 -13 10 -16 6 -4 8 -11 5 -16 -4 -5 0 -9 7 -9 15 0
42 39 34 48 -3 3 -6 0 -6 -6 0 -7 -7 -12 -15 -12 -8 0 -15 5 -15 10 0 6 -4 10
-10 10 -5 0 -10 -4 -10 -9z"/>
<path d="M820 3220 c0 -5 5 -10 10 -10 6 0 10 5 10 10 0 6 -4 10 -10 10 -5 0
-10 -4 -10 -10z"/>
<path d="M660 3200 c0 -5 5 -10 11 -10 5 0 7 5 4 10 -3 6 -8 10 -11 10 -2 0
-4 -4 -4 -10z"/>
<path d="M735 3200 c3 -5 13 -10 20 -10 10 0 14 -9 13 -25 -1 -14 -8 -25 -16
-25 -7 0 -11 -4 -7 -10 3 -5 12 -7 20 -3 21 7 20 69 -1 77 -23 9 -36 7 -29 -4z"/>
<path d="M660 3168 c0 -4 5 -8 10 -8 6 0 10 -7 10 -16 0 -8 -4 -12 -10 -9 -5
3 -10 2 -10 -4 0 -5 9 -9 20 -8 13 1 19 6 15 15 -3 7 -5 19 -5 26 0 7 -7 13
-15 13 -8 0 -15 -4 -15 -9z"/>
<path d="M705 3170 c3 -5 8 -10 11 -10 2 0 4 5 4 10 0 6 -5 10 -11 10 -5 0 -7
-4 -4 -10z"/>
<path d="M735 3171 c-3 -5 -1 -12 5 -16 5 -3 10 1 10 9 0 18 -6 21 -15 7z"/>
<path d="M656 3081 c-3 -5 1 -12 10 -15 13 -5 15 -15 10 -46 -4 -25 -2 -40 4
-40 11 0 14 68 4 94 -7 18 -20 21 -28 7z"/>
<path d="M703 3077 c2 -6 20 -12 40 -14 27 -3 37 0 37 11 0 10 -12 13 -40 13
-22 0 -39 -5 -37 -10z"/>
<path d="M700 3034 c0 -8 9 -14 20 -14 11 0 20 6 20 13 0 7 -9 13 -20 14 -11
1 -20 -4 -20 -13z"/>
<path d="M764 3042 c-6 -4 -14 -19 -17 -33 -5 -21 -3 -28 13 -32 13 -3 20 0
20 10 0 8 -4 11 -10 8 -5 -3 -10 0 -10 9 0 8 5 16 12 18 6 2 9 9 7 16 -2 6 -9
8 -15 4z"/>
<path d="M706 3003 c-11 -11 -6 -23 9 -23 8 0 15 4 15 9 0 13 -16 22 -24 14z"/>
<path d="M667 2916 c-5 -34 2 -116 10 -116 12 0 33 31 33 47 -1 17 -1 17 -15
-1 -12 -16 -13 -11 -10 43 4 65 -9 84 -18 27z"/>
<path d="M706 2934 c-9 -22 -8 -24 9 -24 12 0 15 -14 16 -62 1 -54 3 -58 9
-28 6 30 8 31 10 10 2 -19 4 -16 11 15 4 22 11 56 14 75 l5 35 -14 -35 -14
-35 -7 33 c-8 34 -29 43 -39 16z"/>
<path d="M771 2854 c0 -11 3 -14 6 -6 3 7 2 16 -1 19 -3 4 -6 -2 -5 -13z"/>
<path d="M772 2800 c0 -14 2 -19 5 -12 2 6 2 18 0 25 -3 6 -5 1 -5 -13z"/>
<path d="M660 2520 c0 -5 5 -10 10 -10 6 0 10 5 10 10 0 6 -4 10 -10 10 -5 0
-10 -4 -10 -10z"/>
<path d="M810 2520 c0 -5 5 -10 11 -10 8 0 10 -12 6 -35 -3 -21 -2 -33 4 -30
5 4 9 24 9 46 0 28 -4 39 -15 39 -8 0 -15 -4 -15 -10z"/>
<path d="M695 2510 c3 -5 11 -10 16 -10 6 0 7 5 4 10 -3 6 -11 10 -16 10 -6 0
-7 -4 -4 -10z"/>
<path d="M850 2510 c0 -5 9 -10 21 -10 11 0 29 -5 40 -10 13 -8 19 -7 19 0 0
11 -41 30 -66 30 -8 0 -14 -4 -14 -10z"/>
<path d="M735 2500 c3 -5 13 -10 21 -10 8 0 12 5 9 10 -3 6 -13 10 -21 10 -8
0 -12 -4 -9 -10z"/>
<path d="M672 2470 c0 -14 2 -19 5 -12 2 6 2 18 0 25 -3 6 -5 1 -5 -13z"/>
<path d="M850 2470 c0 -5 9 -10 21 -10 11 0 17 5 14 10 -3 6 -13 10 -21 10 -8
0 -14 -4 -14 -10z"/>
<path d="M745 2460 c3 -5 8 -10 11 -10 2 0 4 5 4 10 0 6 -5 10 -11 10 -5 0 -7
-4 -4 -10z"/>
<path d="M915 2451 c7 -23 -5 -27 -36 -11 -13 8 -19 7 -19 0 0 -10 40 -30 61
-30 13 0 11 47 -2 56 -8 4 -9 0 -4 -15z"/>
<path d="M706 2452 c-3 -6 1 -13 10 -16 23 -9 28 -2 10 13 -8 7 -17 8 -20 3z"/>
<path d="M792 2370 c0 -19 2 -27 5 -17 2 9 2 25 0 35 -3 9 -5 1 -5 -18z"/>
<path d="M5274 1866 c-21 -33 -15 -68 16 -83 33 -16 64 3 68 44 6 58 -53 85
-84 39z"/>
<path d="M927 1773 c-4 -3 -6 -34 -6 -67 l2 -61 8 65 c8 65 8 75 -4 63z"/>
<path d="M947 1673 c-12 -11 -8 -55 4 -48 6 4 8 13 5 21 -3 9 0 11 12 7 15 -6
15 -5 3 10 -15 19 -15 19 -24 10z"/>
<path d="M950 1606 c0 -2 7 -9 15 -16 9 -7 15 -8 15 -2 0 5 -7 12 -15 16 -8 3
-15 4 -15 2z"/>
<path d="M972 1510 c0 -14 2 -19 5 -12 2 6 2 18 0 25 -3 6 -5 1 -5 -13z"/>
<path d="M5540 1566 c0 -10 9 -16 21 -16 24 0 21 23 -4 28 -10 2 -17 -3 -17
-12z"/>
<path d="M5100 1510 c0 -5 5 -10 11 -10 5 0 7 5 4 10 -3 6 -8 10 -11 10 -2 0
-4 -4 -4 -10z"/>
<path d="M4940 1545 c-26 -32 13 -81 48 -59 34 22 22 74 -18 74 -10 0 -23 -7
-30 -15z"/>
<path d="M5488 1352 c-35 -4 -37 -22 -2 -22 33 0 30 -33 -4 -38 -34 -5 -26
-19 13 -24 19 -2 35 0 35 4 0 5 11 6 25 2 33 -8 32 9 -1 30 -14 10 -28 25 -32
34 -5 11 -16 16 -34 14z"/>
<path d="M5270 1335 c0 -8 9 -15 20 -15 11 0 20 7 20 15 0 8 -9 15 -20 15 -11
0 -20 -7 -20 -15z"/>
<path d="M4940 1279 c0 -5 5 -7 10 -4 6 3 10 8 10 11 0 2 -4 4 -10 4 -5 0 -10
-5 -10 -11z"/>
<path d="M4830 1320 c0 -5 7 -10 15 -10 8 0 15 5 15 10 0 6 -7 10 -15 10 -8 0
-15 -4 -15 -10z"/>
<path d="M1110 5032 c0 -5 20 -56 43 -113 38 -89 47 -104 69 -107 26 -3 41 22
97 166 l21 53 -37 -3 c-37 -3 -39 -5 -60 -68 -12 -36 -22 -63 -23 -60 0 3 -11
34 -23 70 -21 61 -24 65 -54 68 -18 2 -33 -1 -33 -6z"/>
<path d="M1356 4923 c-20 -59 -36 -111 -36 -116 0 -4 14 -7 31 -7 22 0 32 5
36 20 4 16 14 20 43 20 30 0 40 -5 45 -20 7 -23 65 -29 64 -7 0 6 -15 57 -33
112 l-33 100 -40 3 -41 3 -36 -108z m93 -15 c1 -12 -6 -18 -19 -18 -23 0 -24
8 -9 47 10 26 12 27 19 8 5 -11 9 -28 9 -37z"/>
<path d="M1559 5013 c-3 -32 1 -206 5 -210 2 -3 32 -7 65 -10 l61 -6 0 32 c0
29 -2 31 -35 31 l-35 0 0 85 0 85 -30 0 c-16 0 -30 -3 -31 -7z"/>
<path d="M1700 4941 c0 -44 4 -91 10 -106 20 -52 126 -69 163 -27 9 11 16 49
20 105 5 88 5 88 -21 98 -14 5 -29 6 -33 2 -5 -5 -9 -44 -11 -88 -3 -74 -5
-80 -26 -83 -28 -4 -33 9 -35 100 l-2 73 -32 3 -33 3 0 -80z"/>
<path d="M1920 4902 c0 -125 -2 -122 86 -122 54 0 55 0 52 28 -2 22 -9 28 -36
32 -43 7 -46 24 -4 28 26 3 32 8 32 27 0 19 -6 24 -32 27 -42 4 -39 21 4 28
27 4 33 9 33 30 0 24 -3 25 -67 28 l-68 3 0 -109z"/>
<path d="M1200 4646 l0 -116 30 0 c28 0 30 3 30 35 0 33 2 35 33 35 38 0 50 7
66 37 16 31 14 68 -7 93 -14 17 -32 23 -85 27 l-67 6 0 -117z m103 40 c7 -18
-1 -26 -25 -26 -11 0 -18 7 -18 20 0 23 35 28 43 6z"/>
<path d="M1428 4731 c-18 -47 -68 -195 -68 -203 0 -4 14 -8 31 -8 22 0 32 5
36 20 4 16 14 20 43 20 30 0 40 -5 45 -20 7 -23 65 -29 65 -7 0 7 -15 58 -33
112 -34 100 -34 100 -71 106 -34 5 -39 3 -48 -20z m65 -113 c-6 -11 -43 -10
-43 1 0 5 5 22 11 38 l11 28 12 -30 c7 -16 11 -33 9 -37z"/>
<path d="M1640 4734 c-41 -28 -50 -45 -50 -100 0 -64 32 -110 85 -120 52 -9
72 2 77 41 4 34 -12 49 -27 25 -18 -29 -75 13 -75 54 0 48 37 65 91 42 13 -6
15 -1 11 26 -3 18 -10 36 -16 40 -19 13 -71 9 -96 -8z"/>
<path d="M1782 4628 l3 -113 30 0 c28 0 30 2 29 38 -1 20 1 37 5 37 3 0 19
-18 34 -40 24 -33 34 -40 63 -40 19 0 34 3 34 6 0 4 -16 28 -35 54 -19 26 -35
54 -35 61 0 8 14 32 30 53 17 22 30 43 30 48 0 4 -15 8 -33 8 -27 0 -36 -7
-57 -40 -14 -22 -28 -40 -32 -40 -4 0 -6 17 -5 38 2 35 0 37 -31 40 l-33 3 3
-113z"/>
<path d="M3866 2712 c-6 -5 24 -31 37 -32 4 0 7 6 7 14 0 14 -34 28 -44 18z"/>
<path d="M4608 2649 c-26 -15 -22 -39 5 -39 28 0 47 17 40 36 -6 16 -21 17
-45 3z"/>
<path d="M3817 2643 c-13 -12 -7 -40 12 -57 18 -17 20 -17 40 3 17 17 19 25
11 41 -10 19 -49 27 -63 13z"/>
<path d="M4238 2633 c-22 -6 -23 -22 -3 -29 16 -6 45 12 45 27 0 9 -13 10 -42
2z"/>
<path d="M3247 2624 c-14 -14 -7 -25 13 -22 12 2 21 8 21 13 0 12 -24 18 -34
9z"/>
<path d="M3352 2618 c3 -7 17 -14 32 -16 20 -3 27 0 24 10 -3 7 -17 14 -32 16
-20 3 -27 0 -24 -10z"/>
<path d="M3685 2607 c-23 -17 -13 -35 17 -31 13 1 26 3 31 3 4 1 7 10 7 21 0
23 -27 27 -55 7z"/>
<path d="M3970 2605 c-12 -14 -11 -18 1 -26 27 -17 51 -11 47 13 -4 28 -30 35
-48 13z"/>
<path d="M4433 2605 c-3 -9 -3 -18 0 -22 10 -10 37 6 37 22 0 20 -29 20 -37 0z"/>
<path d="M3510 2584 c0 -9 5 -14 12 -12 18 6 21 28 4 28 -9 0 -16 -7 -16 -16z"/>
<path d="M4327 2583 c-4 -3 -2 -12 4 -19 8 -10 15 -11 30 -1 10 6 19 15 19 19
0 10 -44 11 -53 1z"/>
<path d="M4180 2570 c0 -5 7 -10 16 -10 8 0 12 5 9 10 -3 6 -10 10 -16 10 -5
0 -9 -4 -9 -10z"/>
<path d="M4470 2555 c0 -8 7 -15 15 -15 8 0 15 7 15 15 0 8 -7 15 -15 15 -8 0
-15 -7 -15 -15z"/>
<path d="M3830 2539 c0 -5 5 -7 10 -4 6 3 10 8 10 11 0 2 -4 4 -10 4 -5 0 -10
-5 -10 -11z"/>
<path d="M3270 2531 c0 -5 7 -11 15 -15 8 -3 15 -1 15 3 0 5 -7 11 -15 15 -8
3 -15 1 -15 -3z"/>
<path d="M3756 2515 c-9 -25 -8 -27 17 -23 12 2 22 10 22 18 0 21 -31 24 -39
5z"/>
<path d="M4073 2519 c-6 -6 -9 -18 -6 -25 6 -16 39 -19 48 -4 3 6 15 10 26 10
10 0 19 7 19 15 0 17 -21 20 -37 4 -8 -8 -13 -8 -17 0 -9 14 -19 14 -33 0z"/>
<path d="M4330 2510 c0 -19 11 -26 23 -14 8 8 -3 34 -14 34 -5 0 -9 -9 -9 -20z"/>
<path d="M4592 2523 c-19 -4 -21 -7 -11 -19 15 -18 45 -18 52 0 6 14 -1 27
-12 25 -3 -1 -16 -4 -29 -6z"/>
<path d="M3695 2500 c3 -5 10 -10 16 -10 5 0 9 5 9 10 0 6 -7 10 -16 10 -8 0
-12 -4 -9 -10z"/>
<path d="M4232 2478 c2 -15 11 -24 26 -26 18 -3 22 1 22 22 0 21 -5 26 -26 26
-21 0 -25 -4 -22 -22z"/>
<path d="M3240 2476 c0 -17 27 -29 35 -16 4 6 3 15 0 20 -9 15 -35 12 -35 -4z"/>
<path d="M3925 2480 c-3 -5 -1 -10 4 -10 6 0 11 5 11 10 0 6 -2 10 -4 10 -3 0
-8 -4 -11 -10z"/>
<path d="M3425 2470 c3 -5 13 -10 21 -10 8 0 12 5 9 10 -3 6 -13 10 -21 10 -8
0 -12 -4 -9 -10z"/>
<path d="M4010 2472 c0 -5 7 -13 16 -16 10 -4 14 -1 12 6 -5 15 -28 23 -28 10z"/>
<path d="M3326 2463 c-12 -12 -5 -23 14 -23 11 0 20 4 20 9 0 11 -26 22 -34
14z"/>
<path d="M3596 2461 c-8 -13 7 -46 22 -49 7 -1 22 6 33 17 l21 19 -20 11 c-25
13 -49 14 -56 2z"/>
<path d="M4297 2447 c-9 -25 7 -39 28 -24 10 8 15 19 11 25 -10 16 -33 15 -39
-1z"/>
<path d="M3211 2441 c-10 -6 -9 -10 3 -14 8 -3 18 -2 21 3 8 13 -9 20 -24 11z"/>
<path d="M3401 2443 c0 -5 4 -17 9 -28 8 -18 9 -17 9 8 1 15 -3 27 -9 27 -5 0
-10 -3 -9 -7z"/>
<path d="M3492 2438 c5 -15 28 -23 28 -10 0 5 -7 13 -16 16 -10 4 -14 1 -12
-6z"/>
<path d="M3770 2440 c0 -5 7 -10 15 -10 8 0 15 5 15 10 0 6 -7 10 -15 10 -8 0
-15 -4 -15 -10z"/>
<path d="M3960 2430 c0 -5 6 -10 14 -10 8 0 18 5 21 10 3 6 -3 10 -14 10 -12
0 -21 -4 -21 -10z"/>
<path d="M4405 2424 c-15 -11 -16 -16 -5 -29 13 -16 49 -11 62 8 16 25 -29 41
-57 21z"/>
<path d="M4610 2409 c0 -5 5 -7 10 -4 6 3 10 8 10 11 0 2 -4 4 -10 4 -5 0 -10
-5 -10 -11z"/>
<path d="M3235 2400 c-3 -5 3 -10 14 -10 12 0 21 5 21 10 0 6 -6 10 -14 10 -8
0 -18 -4 -21 -10z"/>
<path d="M4001 2401 c-9 -6 -10 -11 -2 -15 13 -8 31 1 31 15 0 11 -11 11 -29
0z"/>
<path d="M3891 2391 c-6 -4 -9 -15 -5 -24 5 -13 9 -14 25 -4 10 6 19 15 19 18
0 11 -26 18 -39 10z"/>
<path d="M3745 2370 c-4 -6 -4 -10 -1 -10 2 0 11 -3 20 -6 9 -3 16 -2 16 4 0
14 -28 23 -35 12z"/>
<path d="M4194 2369 c-3 -6 -2 -15 3 -20 13 -13 43 -1 43 17 0 16 -36 19 -46
3z"/>
<path d="M3527 2363 c-4 -3 -7 -12 -7 -20 0 -11 4 -11 20 -1 11 7 20 16 20 20
0 10 -24 10 -33 1z"/>
<path d="M3960 2360 c0 -5 5 -10 11 -10 5 0 7 5 4 10 -3 6 -8 10 -11 10 -2 0
-4 -4 -4 -10z"/>
<path d="M4533 2358 c-13 -6 -23 -15 -23 -20 0 -14 19 -9 40 12 22 22 17 24
-17 8z"/>
<path d="M3244 2346 c-20 -15 -11 -35 16 -33 22 1 34 33 15 41 -7 2 -21 -1
-31 -8z"/>
<path d="M3807 2344 c-8 -8 1 -24 14 -24 5 0 9 7 9 15 0 15 -12 20 -23 9z"/>
<path d="M4313 2333 c-33 -22 -28 -41 13 -49 42 -8 69 17 53 48 -12 22 -36 22
-66 1z"/>
<path d="M3955 2329 c4 -6 -1 -19 -11 -30 -17 -19 -17 -21 8 -46 16 -15 32
-23 40 -19 38 19 62 36 53 36 -5 0 -2 5 8 11 9 5 22 7 27 4 11 -7 26 22 17 31
-3 3 -15 1 -26 -6 -16 -8 -29 -7 -54 4 -51 22 -69 27 -62 15z"/>
<path d="M3583 2315 c-36 -15 -44 -35 -15 -35 18 0 59 36 51 44 -2 2 -19 -2
-36 -9z"/>
<path d="M3713 2319 c-15 -15 -5 -47 18 -60 14 -7 26 -5 44 7 14 9 25 18 25
20 0 5 -63 44 -70 44 -4 0 -11 -5 -17 -11z"/>
<path d="M3330 2290 c0 -11 6 -20 14 -20 24 0 28 18 6 30 -17 9 -20 8 -20 -10z"/>
<path d="M3837 2304 c-4 -4 -4 -10 -1 -15 6 -10 34 0 34 12 0 10 -24 12 -33 3z"/>
<path d="M4191 2278 c-11 -28 -6 -38 20 -38 11 0 18 -4 14 -9 -8 -14 8 -21 24
-11 16 9 6 30 -15 30 -10 0 -13 7 -8 25 8 33 -23 35 -35 3z"/>
<path d="M4400 2277 c-22 -9 -23 -11 -6 -14 10 -3 23 0 29 6 16 16 5 20 -23 8z"/>
<path d="M3220 2270 c0 -5 5 -10 11 -10 5 0 7 5 4 10 -3 6 -8 10 -11 10 -2 0
-4 -4 -4 -10z"/>
<path d="M3615 2270 c3 -5 13 -10 21 -10 8 0 14 5 14 10 0 6 -9 10 -21 10 -11
0 -17 -4 -14 -10z"/>
<path d="M3423 2248 c-18 -24 -22 -58 -7 -58 8 0 17 -7 20 -15 4 -8 12 -15 19
-15 7 0 15 7 19 15 3 8 12 15 21 15 19 0 19 14 0 30 -8 7 -12 16 -9 21 3 5 -1
6 -9 3 -8 -3 -18 -1 -22 5 -8 14 -20 14 -32 -1z"/>
<path d="M4488 2249 c-25 -14 -22 -29 6 -29 23 0 41 22 29 34 -8 8 -15 7 -35
-5z"/>
<path d="M3805 2240 c-3 -5 -2 -10 4 -10 5 0 13 5 16 10 3 6 2 10 -4 10 -5 0
-13 -4 -16 -10z"/>
<path d="M3736 2222 c-10 -16 24 -37 41 -26 9 5 15 14 15 19 -2 13 -49 19 -56
7z"/>
<path d="M3320 2175 c0 -27 10 -31 41 -14 16 8 18 13 8 25 -20 24 -49 17 -49
-11z"/>
<path d="M3960 2191 c0 -11 31 -24 39 -16 3 3 -1 10 -9 15 -19 12 -30 12 -30
1z"/>
<path d="M3917 2183 c-8 -8 -9 -43 -1 -43 12 0 35 31 29 40 -7 12 -19 13 -28
3z"/>
<path d="M2640 2171 c0 -9 24 -21 41 -21 5 0 9 7 9 15 0 9 -9 15 -25 15 -14 0
-25 -4 -25 -9z"/>
<path d="M4290 2160 c0 -5 7 -10 15 -10 8 0 15 5 15 10 0 6 -7 10 -15 10 -8 0
-15 -4 -15 -10z"/>
<path d="M3562 2153 c-15 -6 -6 -23 14 -23 8 0 14 7 14 15 0 15 -6 17 -28 8z"/>
<path d="M3662 2135 c-2 -27 -1 -28 22 -19 27 10 13 44 -18 44 -1 0 -3 -11 -4
-25z"/>
<path d="M4102 2148 c7 -19 38 -22 38 -4 0 10 -9 16 -21 16 -12 0 -19 -5 -17
-12z"/>
<path d="M3260 2116 c0 -10 9 -16 21 -16 24 0 21 23 -4 28 -10 2 -17 -3 -17
-12z"/>
<path d="M4020 2120 c0 -5 6 -10 14 -10 8 0 18 5 21 10 3 6 -3 10 -14 10 -12
0 -21 -4 -21 -10z"/>
<path d="M4211 2116 c-6 -7 -8 -16 -4 -19 3 -4 -2 -16 -12 -27 -14 -16 -15
-22 -5 -35 18 -21 33 -19 61 11 22 24 23 26 7 38 -10 7 -18 18 -18 24 0 18
-17 23 -29 8z"/>
<path d="M4320 2120 c0 -5 6 -10 14 -10 8 0 18 5 21 10 3 6 -3 10 -14 10 -12
0 -21 -4 -21 -10z"/>
<path d="M3770 2111 c0 -6 4 -12 8 -15 5 -3 9 1 9 9 0 8 -4 15 -9 15 -4 0 -8
-4 -8 -9z"/>
<path d="M3895 2112 c-3 -3 -5 -14 -5 -24 0 -12 7 -18 23 -18 22 0 47 16 47
31 0 8 -58 18 -65 11z"/>
<path d="M4430 2104 c0 -14 -2 -15 -17 -3 -15 13 -15 12 -5 -8 13 -23 34 -41
31 -26 -1 4 -1 17 0 27 1 25 13 13 15 -15 1 -26 24 -37 32 -16 6 17 -24 57
-43 57 -7 0 -13 -7 -13 -16z"/>
<path d="M2613 2104 c-19 -8 -15 -39 7 -59 20 -18 21 -18 43 3 17 18 19 26 11
40 -11 17 -39 25 -61 16z"/>
<path d="M2778 2099 c-28 -16 -22 -39 10 -39 36 0 44 8 31 31 -11 21 -17 23
-41 8z"/>
<path d="M2980 2100 c0 -5 10 -10 23 -10 18 0 19 2 7 10 -19 13 -30 13 -30 0z"/>
<path d="M3844 2095 c-17 -13 -17 -14 -2 -15 9 0 20 5 23 11 11 17 0 20 -21 4z"/>
<path d="M3410 2086 c0 -2 7 -9 15 -16 9 -7 15 -8 15 -2 0 5 -7 12 -15 16 -8
3 -15 4 -15 2z"/>
<path d="M3640 2080 c0 -5 7 -10 15 -10 8 0 15 5 15 10 0 6 -7 10 -15 10 -8 0
-15 -4 -15 -10z"/>
<path d="M3596 2072 c-3 -6 -1 -14 5 -17 15 -10 25 3 12 16 -7 7 -13 7 -17 1z"/>
<path d="M2486 2039 c-30 -24 -28 -32 8 -34 30 -1 51 28 32 44 -10 8 -20 6
-40 -10z"/>
<path d="M2945 2040 c-11 -17 5 -32 21 -19 7 6 11 15 8 20 -7 12 -21 11 -29
-1z"/>
<path d="M2891 2030 c-17 -10 -7 -40 12 -40 8 0 20 6 26 14 10 12 8 17 -6 25
-11 5 -25 6 -32 1z"/>
<path d="M3443 2034 c4 -4 2 -13 -4 -21 -13 -15 4 -43 27 -43 8 0 14 7 14 15
0 8 5 15 11 15 5 0 7 5 4 10 -3 6 2 10 11 10 31 0 5 13 -33 17 -21 2 -34 1
-30 -3z"/>
<path d="M3958 2018 c-8 -7 -18 -27 -21 -44 -5 -26 -2 -33 14 -37 12 -3 22 0
26 8 2 8 14 17 26 21 21 6 20 7 -6 30 -17 14 -22 24 -14 27 7 3 7 6 1 6 -5 1
-17 -5 -26 -11z"/>
<path d="M4137 2012 c-21 -22 -21 -32 -4 -32 18 0 49 34 40 43 -10 11 -19 8
-36 -11z"/>
<path d="M2164 2013 c5 -9 0 -13 -14 -13 -29 0 -20 -24 9 -28 35 -5 45 12 20
34 -13 10 -19 13 -15 7z"/>
<path d="M3645 2010 c3 -5 13 -10 21 -10 8 0 12 5 9 10 -3 6 -13 10 -21 10 -8
0 -12 -4 -9 -10z"/>
<path d="M4296 1994 c-21 -20 -20 -24 3 -24 10 0 29 9 42 20 l24 19 -27 1
c-15 0 -34 -7 -42 -16z"/>
<path d="M4403 2003 c-18 -6 -16 -23 1 -23 17 0 30 16 19 23 -5 2 -14 2 -20 0z"/>
<path d="M2307 1993 c-12 -11 -8 -23 8 -23 8 0 15 7 15 15 0 16 -12 20 -23 8z"/>
<path d="M3712 1974 c9 -9 21 -13 28 -9 14 9 -5 25 -30 25 -12 0 -12 -3 2 -16z"/>
<path d="M3848 1983 c7 -3 16 -2 19 1 4 3 -2 6 -13 5 -11 0 -14 -3 -6 -6z"/>
<path d="M2031 1966 c-9 -10 -9 -16 -1 -21 12 -7 40 11 40 26 0 14 -26 10 -39
-5z"/>
<path d="M2566 1963 c-4 -9 -2 -21 4 -27 13 -13 46 17 36 33 -11 16 -33 13
-40 -6z"/>
<path d="M3230 1967 c0 -9 7 -14 15 -13 20 3 20 20 1 24 -9 2 -16 -3 -16 -11z"/>
<path d="M3795 1970 c-3 -5 1 -10 9 -10 9 0 16 5 16 10 0 6 -4 10 -9 10 -6 0
-13 -4 -16 -10z"/>
<path d="M4481 1966 c-8 -10 -9 -16 -1 -21 13 -8 30 3 30 21 0 18 -14 18 -29
0z"/>
<path d="M2830 1960 c0 -5 9 -10 21 -10 11 0 17 5 14 10 -3 6 -13 10 -21 10
-8 0 -14 -4 -14 -10z"/>
<path d="M2500 1939 c0 -5 9 -9 20 -9 11 0 20 2 20 4 0 2 -9 6 -20 9 -11 3
-20 1 -20 -4z"/>
<path d="M3415 1929 c-4 -6 -5 -13 -2 -16 7 -7 27 6 27 18 0 12 -17 12 -25 -2z"/>
<path d="M4305 1930 c3 -5 10 -10 16 -10 5 0 9 5 9 10 0 6 -7 10 -16 10 -8 0
-12 -4 -9 -10z"/>
<path d="M2790 1920 c-12 -8 -11 -10 8 -10 12 0 22 5 22 10 0 13 -11 13 -30 0z"/>
<path d="M3738 1922 c-24 -5 -23 -19 1 -32 25 -13 28 -13 34 4 7 18 -12 34
-35 28z"/>
<path d="M2590 1890 c0 -5 7 -10 15 -10 8 0 15 5 15 10 0 6 -7 10 -15 10 -8 0
-15 -4 -15 -10z"/>
<path d="M2825 1890 c-3 -5 3 -10 14 -10 12 0 21 5 21 10 0 6 -6 10 -14 10 -8
0 -18 -4 -21 -10z"/>
<path d="M3602 1888 c5 -15 28 -18 29 -3 0 6 -7 12 -17 13 -10 3 -15 -1 -12
-10z"/>
<path d="M3935 1890 c4 -6 11 -8 16 -5 14 9 11 15 -7 15 -8 0 -12 -5 -9 -10z"/>
<path d="M2070 1880 c0 -5 10 -10 23 -10 18 0 19 2 7 10 -19 13 -30 13 -30 0z"/>
<path d="M2422 1882 c-20 -13 -5 -62 16 -55 19 7 56 42 50 48 -9 10 -55 14
-66 7z"/>
<path d="M3300 1880 c0 -5 5 -10 10 -10 6 0 10 5 10 10 0 6 -4 10 -10 10 -5 0
-10 -4 -10 -10z"/>
<path d="M3370 1880 c0 -5 5 -10 10 -10 6 0 10 5 10 10 0 6 -4 10 -10 10 -5 0
-10 -4 -10 -10z"/>
<path d="M3435 1870 c-3 -5 4 -14 15 -20 16 -8 20 -8 20 4 0 16 -27 29 -35 16z"/>
<path d="M3490 1870 c19 -13 30 -13 30 0 0 6 -10 10 -22 10 -19 0 -20 -2 -8
-10z"/>
<path d="M4367 1874 c-4 -4 -4 -10 -1 -15 6 -10 34 0 34 12 0 10 -24 12 -33 3z"/>
<path d="M2723 1855 c-3 -9 -3 -18 0 -22 10 -10 37 6 37 22 0 20 -29 20 -37 0z"/>
<path d="M2240 1850 c20 -13 33 -13 25 0 -3 6 -14 10 -23 10 -15 0 -15 -2 -2
-10z"/>
<path d="M4127 1853 c-9 -9 -9 -43 1 -43 11 0 32 37 25 44 -8 8 -18 8 -26 -1z"/>
<path d="M3845 1840 c-3 -5 -4 -14 0 -20 8 -13 35 -1 35 16 0 16 -26 19 -35 4z"/>
<path d="M3994 1839 c-10 -17 17 -29 38 -16 10 7 18 15 18 19 0 12 -48 9 -56
-3z"/>
<path d="M2054 1829 c-8 -14 14 -29 33 -22 10 4 11 9 2 19 -14 17 -25 18 -35
3z"/>
<path d="M2305 1830 c3 -5 16 -10 28 -10 18 0 19 2 7 10 -20 13 -43 13 -35 0z"/>
<path d="M3340 1831 c0 -11 31 -24 39 -16 3 3 -1 10 -9 15 -19 12 -30 12 -30
1z"/>
<path d="M3607 1834 c-11 -11 3 -24 24 -24 12 0 19 5 17 13 -5 14 -31 21 -41
11z"/>
<path d="M4224 1817 c-29 -23 -30 -33 -4 -47 24 -13 60 3 60 25 0 8 6 15 14
15 32 0 23 18 -10 22 -25 3 -43 -2 -60 -15z"/>
<path d="M2137 1824 c-11 -11 3 -24 24 -24 12 0 19 5 17 13 -5 14 -31 21 -41
11z"/>
<path d="M2216 1821 c-3 -4 3 -16 13 -25 17 -16 18 -15 14 9 -5 25 -17 32 -27
16z"/>
<path d="M2912 1814 c-18 -13 -29 -14 -54 -5 -51 18 -63 14 -65 -21 -3 -35 20
-68 47 -68 10 0 30 16 45 34 15 19 37 36 49 38 12 2 21 9 21 17 0 21 -17 23
-43 5z"/>
<path d="M2580 1810 c0 -5 7 -10 15 -10 8 0 15 5 15 10 0 6 -7 10 -15 10 -8 0
-15 -4 -15 -10z"/>
<path d="M3405 1810 c-8 -13 5 -13 25 0 13 8 13 10 -2 10 -9 0 -20 -4 -23 -10z"/>
<path d="M3720 1810 c0 -5 5 -10 10 -10 6 0 10 5 10 10 0 6 -4 10 -10 10 -5 0
-10 -4 -10 -10z"/>
<path d="M4360 1810 c0 -5 7 -10 16 -10 8 0 12 5 9 10 -3 6 -10 10 -16 10 -5
0 -9 -4 -9 -10z"/>
<path d="M2655 1799 c-10 -15 3 -25 16 -12 7 7 7 13 1 17 -6 3 -14 1 -17 -5z"/>
<path d="M3520 1780 c-6 -11 -7 -20 -2 -20 10 0 32 21 32 32 0 16 -19 8 -30
-12z"/>
<path d="M3901 1788 c1 -7 -1 -21 -6 -31 -9 -20 12 -67 29 -67 7 0 26 14 44
30 18 17 39 30 47 30 17 0 28 17 20 30 -4 7 -14 6 -28 -2 -12 -7 -24 -12 -27
-11 -3 1 -22 9 -43 18 -29 12 -38 13 -36 3z"/>
<path d="M2025 1780 c-3 -5 1 -10 9 -10 9 0 16 5 16 10 0 6 -4 10 -9 10 -6 0
-13 -4 -16 -10z"/>
<path d="M3816 1768 c-6 -20 -8 -21 -14 -6 -5 12 -11 15 -21 9 -12 -8 -12 -12
2 -25 19 -20 37 -21 37 -2 0 7 9 16 21 19 12 3 18 10 14 16 -11 18 -32 12 -39
-11z"/>
<path d="M4304 1782 c3 -5 -1 -12 -9 -16 -8 -3 -15 -10 -15 -16 0 -7 6 -8 18
-2 9 5 23 7 30 5 21 -8 13 16 -9 28 -12 6 -19 7 -15 1z"/>
<path d="M4110 1770 c-14 -4 -19 -8 -11 -9 8 -1 11 -8 8 -21 -3 -13 0 -20 8
-20 8 0 18 -8 24 -17 8 -15 12 -16 23 -5 11 11 10 16 -4 26 -11 8 -15 20 -11
34 6 23 2 25 -37 12z"/>
<path d="M2356 1754 c-9 -24 -8 -25 14 -12 23 15 26 28 6 28 -8 0 -17 -7 -20
-16z"/>
<path d="M2555 1761 c-3 -5 -1 -21 5 -36 8 -21 16 -26 36 -23 31 3 54 32 39
46 -15 14 -73 23 -80 13z"/>
<path d="M2675 1760 c-3 -5 3 -10 14 -10 11 0 23 5 26 10 3 6 -3 10 -14 10
-11 0 -23 -4 -26 -10z"/>
<path d="M3688 1758 c-8 -22 4 -56 19 -63 18 -6 53 21 53 41 0 6 -14 17 -31
23 -39 13 -36 14 -41 -1z"/>
<path d="M2061 1751 c-9 -6 -10 -11 -2 -15 13 -8 31 1 31 15 0 11 -11 11 -29
0z"/>
<path d="M3573 1743 c-13 -8 -23 -19 -23 -24 0 -15 26 -10 43 9 30 33 18 42
-20 15z"/>
<path d="M4363 1735 c-3 -9 -2 -19 1 -23 8 -8 38 10 44 26 6 18 -38 14 -45 -3z"/>
<path d="M2422 1724 c-12 -8 -22 -19 -22 -25 0 -17 26 -9 50 16 27 29 9 35
-28 9z"/>
<path d="M2088 1699 c-19 -10 -25 -39 -9 -39 23 0 41 14 41 31 0 21 -7 23 -32
8z"/>
<path d="M2665 1700 c-3 -5 -1 -10 4 -10 6 0 11 5 11 10 0 6 -2 10 -4 10 -3 0
-8 -4 -11 -10z"/>
<path d="M3352 1699 c2 -6 8 -10 13 -10 5 0 11 4 13 10 2 6 -4 11 -13 11 -9 0
-15 -5 -13 -11z"/>
<path d="M3604 1703 c10 -11 37 -12 30 -2 -3 5 -12 9 -21 9 -9 0 -13 -3 -9 -7z"/>
<path d="M2148 1693 c7 -3 16 -2 19 1 4 3 -2 6 -13 5 -11 0 -14 -3 -6 -6z"/>
<path d="M2465 1690 c3 -5 12 -7 20 -3 21 7 19 13 -6 13 -11 0 -18 -4 -14 -10z"/>
<path d="M2830 1680 c0 -5 10 -10 23 -10 18 0 19 2 7 10 -19 13 -30 13 -30 0z"/>
<path d="M3250 1675 c0 -17 2 -18 24 -9 18 7 12 24 -10 24 -8 0 -14 -7 -14
-15z"/>
<path d="M2607 1673 c-14 -4 -16 -8 -6 -19 21 -26 59 -12 59 22 0 5 -28 3 -53
-3z"/>
<path d="M2973 1668 c2 -7 12 -13 22 -13 10 0 20 6 23 13 2 7 -6 12 -23 12
-17 0 -25 -5 -22 -12z"/>
<path d="M3432 1668 c-18 -18 -14 -53 8 -73 19 -17 21 -17 45 7 23 23 24 28
11 41 -8 8 -12 18 -8 22 4 5 1 5 -6 1 -7 -4 -19 -3 -26 3 -9 7 -16 7 -24 -1z"/>
<path d="M3733 1672 c-27 -4 -30 -27 -6 -36 20 -8 52 20 38 32 -6 4 -20 6 -32
4z"/>
<path d="M2170 1656 c0 -10 9 -16 21 -16 24 0 21 23 -4 28 -10 2 -17 -3 -17
-12z"/>
<path d="M2789 1668 c-6 -20 -6 -39 1 -43 11 -7 33 22 25 35 -5 9 -24 14 -26
8z"/>
<path d="M3912 1648 c5 -15 28 -23 28 -10 0 5 -7 13 -16 16 -10 4 -14 1 -12
-6z"/>
<path d="M2279 1634 c-23 -28 -17 -58 15 -71 31 -14 46 -10 46 13 0 8 7 14 15
14 22 0 18 21 -5 27 -11 3 -17 10 -13 16 3 6 1 7 -6 3 -6 -4 -18 -3 -25 3 -10
8 -17 7 -27 -5z"/>
<path d="M4195 1640 c-3 -5 3 -10 14 -10 12 0 21 5 21 10 0 6 -6 10 -14 10 -8
0 -18 -4 -21 -10z"/>
<path d="M2915 1629 c-10 -15 3 -25 16 -12 7 7 7 13 1 17 -6 3 -14 1 -17 -5z"/>
<path d="M3866 1624 c-9 -25 4 -37 19 -17 13 18 11 33 -5 33 -4 0 -11 -7 -14
-16z"/>
<path d="M4030 1617 c0 -21 12 -28 27 -16 19 16 16 29 -7 29 -11 0 -20 -6 -20
-13z"/>
<path d="M4230 1610 c-8 -5 -11 -12 -8 -16 10 -9 38 3 38 16 0 12 -10 13 -30
0z"/>
<path d="M3340 1585 c0 -29 7 -30 35 -9 17 13 18 16 5 24 -26 16 -40 11 -40
-15z"/>
<path d="M4320 1596 c0 -8 -5 -16 -12 -18 -9 -3 -9 -6 1 -12 8 -5 14 -1 18 13
3 11 9 18 15 15 5 -3 6 -14 3 -25 -4 -13 -2 -19 9 -19 19 0 20 13 6 41 -12 22
-40 26 -40 5z"/>
<path d="M2798 1593 c-28 -4 -34 -17 -20 -40 6 -9 13 -9 32 0 23 12 42 49 23
46 -4 -1 -20 -4 -35 -6z"/>
<path d="M4128 1593 c0 -5 -2 -12 -2 -18 -1 -5 -8 -20 -14 -33 -26 -46 24 -60
53 -15 16 24 16 27 1 38 -9 7 -16 17 -16 24 0 12 -19 16 -22 4z"/>
<path d="M2537 1566 c5 -22 8 -24 25 -15 24 13 19 33 -9 37 -17 3 -20 -1 -16
-22z"/>
<path d="M3557 1583 c-12 -11 -8 -23 8 -23 8 0 15 7 15 15 0 16 -12 20 -23 8z"/>
<path d="M3640 1570 c0 -15 5 -20 18 -18 9 2 17 10 17 18 0 8 -8 16 -17 18
-13 2 -18 -3 -18 -18z"/>
<path d="M3960 1580 c0 -5 7 -10 15 -10 8 0 15 5 15 10 0 6 -7 10 -15 10 -8 0
-15 -4 -15 -10z"/>
<path d="M2180 1545 c0 -29 29 -35 50 -10 15 18 14 20 -22 29 -25 6 -28 4 -28
-19z"/>
<path d="M2437 1564 c-8 -8 1 -24 13 -24 4 0 10 7 14 15 5 15 -14 21 -27 9z"/>
<path d="M2725 1559 c-12 -19 5 -23 22 -6 16 16 16 17 1 17 -9 0 -20 -5 -23
-11z"/>
<path d="M3843 1553 c-3 -8 -1 -19 5 -25 15 -15 63 9 56 27 -7 17 -54 16 -61
-2z"/>
<path d="M3040 1540 c-23 -23 -26 -40 -7 -40 16 0 47 32 47 48 0 18 -18 14
-40 -8z"/>
<path d="M3795 1541 c-10 -17 12 -21 25 -6 10 12 10 15 -3 15 -9 0 -18 -4 -22
-9z"/>
<path d="M3287 1524 c-9 -10 2 -24 19 -24 8 0 14 7 14 15 0 15 -21 21 -33 9z"/>
<path d="M3626 1521 c-4 -5 -2 -12 3 -15 5 -4 12 -2 15 3 4 5 2 12 -3 15 -5 4
-12 2 -15 -3z"/>
<path d="M2090 1509 c0 -5 5 -7 10 -4 6 3 10 8 10 11 0 2 -4 4 -10 4 -5 0 -10
-5 -10 -11z"/>
<path d="M2525 1510 c3 -5 10 -10 16 -10 5 0 9 5 9 10 0 6 -7 10 -16 10 -8 0
-12 -4 -9 -10z"/>
<path d="M2863 1508 c-6 -7 -13 -28 -16 -45 -6 -30 -4 -33 18 -33 15 0 25 6
25 14 0 8 7 16 15 20 23 8 18 25 -10 32 -14 3 -22 10 -19 15 8 14 -2 11 -13
-3z"/>
<path d="M3585 1501 c-3 -5 -1 -12 5 -16 5 -3 10 1 10 9 0 18 -6 21 -15 7z"/>
<path d="M2486 1491 c-4 -5 -2 -12 3 -15 5 -4 12 -2 15 3 4 5 2 12 -3 15 -5 4
-12 2 -15 -3z"/>
<path d="M4060 1480 c-12 -12 -19 -24 -17 -27 9 -8 45 7 51 22 9 24 -12 27
-34 5z"/>
<path d="M4212 1484 c-12 -8 -22 -19 -22 -25 0 -17 26 -9 50 16 27 29 9 35
-28 9z"/>
<path d="M3909 1477 c-9 -7 -19 -29 -23 -49 -6 -34 -5 -38 15 -38 15 0 19 5
15 15 -4 10 1 15 14 15 26 0 26 30 0 37 -16 4 -18 8 -9 19 14 17 9 17 -12 1z"/>
<path d="M4285 1480 c-3 -5 1 -10 9 -10 8 0 18 5 21 10 3 6 -1 10 -9 10 -8 0
-18 -4 -21 -10z"/>
<path d="M2132 1468 c5 -15 37 -18 41 -3 1 6 -9 12 -22 13 -16 3 -22 -1 -19
-10z"/>
<path d="M2310 1460 c0 -5 5 -10 11 -10 5 0 7 5 4 10 -3 6 -8 10 -11 10 -2 0
-4 -4 -4 -10z"/>
<path d="M3460 1450 c-24 -24 -25 -43 -5 -60 12 -10 16 -9 22 6 3 11 15 26 25
35 20 18 14 31 -10 22 -10 -4 -13 -2 -8 5 11 19 -2 14 -24 -8z"/>
<path d="M4360 1455 c-10 -13 -9 -15 9 -15 12 0 21 6 21 15 0 8 -4 15 -9 15
-5 0 -14 -7 -21 -15z"/>
<path d="M2748 1453 c7 -3 16 -2 19 1 4 3 -2 6 -13 5 -11 0 -14 -3 -6 -6z"/>
<path d="M3622 1449 c2 -7 10 -15 17 -17 8 -3 12 1 9 9 -2 7 -10 15 -17 17 -8
3 -12 -1 -9 -9z"/>
<path d="M2350 1437 c-29 -24 -19 -77 15 -77 19 0 27 53 10 66 -8 6 -12 14 -8
17 11 12 -1 7 -17 -6z"/>
<path d="M2535 1440 c3 -5 13 -10 21 -10 8 0 14 5 14 10 0 6 -9 10 -21 10 -11
0 -17 -4 -14 -10z"/>
<path d="M2710 1440 c-8 -5 -11 -12 -7 -16 4 -4 13 -2 19 4 15 15 7 24 -12 12z"/>
<path d="M2390 1430 c0 -5 5 -10 10 -10 6 0 10 5 10 10 0 6 -4 10 -10 10 -5 0
-10 -4 -10 -10z"/>
<path d="M2605 1420 c3 -5 15 -10 26 -10 11 0 17 5 14 10 -3 6 -15 10 -26 10
-11 0 -17 -4 -14 -10z"/>
<path d="M3767 1423 c-4 -3 -7 -11 -7 -17 0 -6 5 -5 12 2 6 6 9 14 7 17 -3 3
-9 2 -12 -2z"/>
<path d="M4206 1422 c-3 -6 -1 -14 5 -17 15 -10 25 3 12 16 -7 7 -13 7 -17 1z"/>
<path d="M3685 1410 c3 -5 10 -10 16 -10 5 0 9 5 9 10 0 6 -7 10 -16 10 -8 0
-12 -4 -9 -10z"/>
<path d="M2850 1380 c0 -5 7 -10 15 -10 8 0 15 5 15 10 0 6 -7 10 -15 10 -8 0
-15 -4 -15 -10z"/>
<path d="M2645 1366 c-22 -16 -24 -14 31 -31 11 -4 15 1 12 17 -4 27 -19 32
-43 14z"/>
<path d="M3050 1360 c0 -24 25 -27 34 -4 9 23 8 24 -14 24 -13 0 -20 -7 -20
-20z"/>
<path d="M3260 1370 c0 -5 7 -10 15 -10 8 0 15 5 15 10 0 6 -7 10 -15 10 -8 0
-15 -4 -15 -10z"/>
<path d="M4310 1370 c-9 -6 -10 -10 -3 -10 6 0 15 5 18 10 8 12 4 12 -15 0z"/>
<path d="M4265 1359 c-4 -6 -5 -13 -2 -16 7 -7 27 6 27 18 0 12 -17 12 -25 -2z"/>
<path d="M2735 1350 c-3 -5 -1 -10 4 -10 6 0 11 5 11 10 0 6 -2 10 -4 10 -3 0
-8 -4 -11 -10z"/>
<path d="M2938 1349 c-10 -5 -18 -14 -18 -19 0 -14 32 -12 52 4 30 22 0 35
-34 15z"/>
<path d="M3697 1353 c-9 -9 12 -33 29 -33 8 0 14 9 14 20 0 19 -28 28 -43 13z"/>
<path d="M3880 1350 c0 -5 5 -10 10 -10 6 0 10 5 10 10 0 6 -4 10 -10 10 -5 0
-10 -4 -10 -10z"/>
<path d="M3420 1334 c0 -14 3 -14 15 -4 8 7 15 14 15 16 0 2 -7 4 -15 4 -8 0
-15 -7 -15 -16z"/>
<path d="M2130 1316 c0 -9 7 -12 20 -9 11 3 17 9 14 14 -8 14 -34 10 -34 -5z"/>
<path d="M2325 1319 c-4 -6 -5 -13 -2 -16 7 -7 27 6 27 18 0 12 -17 12 -25 -2z"/>
<path d="M2526 1323 c-11 -11 -6 -23 8 -23 8 0 17 4 20 9 7 10 -19 23 -28 14z"/>
<path d="M3592 1321 c4 -13 18 -16 19 -4 0 4 -5 9 -11 12 -7 2 -11 -2 -8 -8z"/>
<path d="M2774 1309 c-3 -6 -1 -16 5 -22 9 -9 14 -8 21 3 5 8 10 18 10 23 0
11 -28 8 -36 -4z"/>
<path d="M4130 1302 c-20 -16 -21 -19 -6 -31 11 -10 16 -10 16 -2 0 7 4 10 9
7 5 -3 12 1 15 10 15 38 1 44 -34 16z"/>
<path d="M2845 1300 c3 -5 8 -10 11 -10 2 0 4 5 4 10 0 6 -5 10 -11 10 -5 0
-7 -4 -4 -10z"/>
<path d="M3937 1303 c-11 -10 -8 -20 7 -26 8 -3 22 3 32 14 16 18 16 19 -8 19
-13 0 -28 -3 -31 -7z"/>
<path d="M4048 1299 c-10 -6 -18 -14 -18 -19 0 -13 21 -12 40 0 22 14 0 32
-22 19z"/>
<path d="M4180 1300 c0 -5 6 -10 14 -10 8 0 18 5 21 10 3 6 -3 10 -14 10 -12
0 -21 -4 -21 -10z"/>
<path d="M4260 1300 c0 -5 5 -10 11 -10 5 0 7 5 4 10 -3 6 -8 10 -11 10 -2 0
-4 -4 -4 -10z"/>
<path d="M3326 1291 c-4 -7 -5 -15 -2 -18 9 -9 19 4 14 18 -4 11 -6 11 -12 0z"/>
<path d="M3380 1290 c0 -5 5 -10 10 -10 6 0 10 5 10 10 0 6 -4 10 -10 10 -5 0
-10 -4 -10 -10z"/>
<path d="M3485 1290 c3 -5 13 -10 21 -10 8 0 12 5 9 10 -3 6 -13 10 -21 10 -8
0 -12 -4 -9 -10z"/>
<path d="M2400 1281 c0 -11 31 -24 39 -16 3 3 -1 10 -9 15 -19 12 -30 12 -30
1z"/>
<path d="M2935 1274 c-11 -8 -26 -12 -35 -8 -29 12 -61 13 -57 1 2 -7 0 -20
-5 -30 -7 -14 -5 -24 8 -38 17 -19 54 -26 54 -11 0 14 43 58 63 65 19 7 24 37
5 37 -7 0 -22 -7 -33 -16z"/>
<path d="M3440 1281 c0 -5 7 -11 15 -15 9 -3 15 0 15 9 0 8 -7 15 -15 15 -8 0
-15 -4 -15 -9z"/>
<path d="M2280 1260 c0 -5 7 -10 15 -10 8 0 15 5 15 10 0 6 -7 10 -15 10 -8 0
-15 -4 -15 -10z"/>
<path d="M2357 1263 c-12 -11 -7 -19 13 -20 11 -1 20 4 20 13 0 14 -21 19 -33
7z"/>
<path d="M2534 1259 c-9 -16 18 -30 33 -17 7 6 10 14 7 19 -7 13 -31 11 -40
-2z"/>
<path d="M2650 1260 c0 -5 5 -10 10 -10 6 0 10 5 10 10 0 6 -4 10 -10 10 -5 0
-10 -4 -10 -10z"/>
<path d="M3595 1259 c-10 -15 1 -23 20 -15 9 3 13 10 10 16 -8 13 -22 13 -30
-1z"/>
<path d="M4100 1259 c0 -5 5 -7 10 -4 6 3 10 8 10 11 0 2 -4 4 -10 4 -5 0 -10
-5 -10 -11z"/>
<path d="M4200 1250 c0 -11 6 -20 14 -20 18 0 27 13 18 25 -13 18 -32 15 -32
-5z"/>
<path d="M2216 1252 c-3 -6 -1 -14 5 -17 15 -10 25 3 12 16 -7 7 -13 7 -17 1z"/>
<path d="M2760 1245 c0 -10 7 -15 18 -13 21 4 19 22 -2 26 -10 2 -16 -3 -16
-13z"/>
<path d="M3355 1240 c-4 -6 -4 -10 -1 -10 2 0 11 -3 20 -6 9 -3 16 -2 16 4 0
14 -28 23 -35 12z"/>
<path d="M2722 1227 c-10 -12 -9 -16 4 -21 24 -9 44 -7 44 4 0 6 -6 10 -14 10
-8 0 -16 5 -18 11 -2 7 -8 6 -16 -4z"/>
<path d="M3420 1230 c-8 -5 -12 -11 -9 -14 2 -3 11 -1 19 4 8 5 12 11 9 14 -2
3 -11 1 -19 -4z"/>
<path d="M3780 1226 c0 -9 7 -16 16 -16 17 0 14 22 -4 28 -7 2 -12 -3 -12 -12z"/>
<path d="M4110 1225 c0 -8 4 -15 10 -15 5 0 7 7 4 15 -4 8 -8 15 -10 15 -2 0
-4 -7 -4 -15z"/>
<path d="M4270 1229 c0 -5 5 -7 10 -4 6 3 10 8 10 11 0 2 -4 4 -10 4 -5 0 -10
-5 -10 -11z"/>
<path d="M2631 1202 c-12 -22 8 -62 30 -62 16 0 58 47 48 53 -2 1 -19 8 -36
14 -28 9 -34 9 -42 -5z"/>
<path d="M3740 1205 c-10 -12 -10 -15 4 -15 9 0 16 7 16 15 0 8 -2 15 -4 15
-2 0 -9 -7 -16 -15z"/>
<path d="M2260 1200 c0 -5 9 -10 20 -10 11 0 20 5 20 10 0 6 -9 10 -20 10 -11
0 -20 -4 -20 -10z"/>
<path d="M2340 1200 c-8 -5 -12 -12 -9 -15 4 -3 12 1 19 10 14 17 11 19 -10 5z"/>
<path d="M2456 1194 c-8 -21 -8 -24 4 -24 5 0 14 9 20 20 8 16 8 20 -4 20 -7
0 -17 -7 -20 -16z"/>
<path d="M3552 1202 c-13 -2 -26 -10 -29 -18 -3 -8 -11 -14 -18 -14 -21 0 -40
-29 -27 -42 9 -9 18 -5 36 13 13 13 34 31 47 40 27 19 24 26 -9 21z"/>
<path d="M4260 1190 c0 -5 5 -10 10 -10 6 0 10 5 10 10 0 6 -4 10 -10 10 -5 0
-10 -4 -10 -10z"/>
<path d="M2145 1180 c-3 -5 -1 -10 4 -10 6 0 11 5 11 10 0 6 -2 10 -4 10 -3 0
-8 -4 -11 -10z"/>
<path d="M2512 1159 c-12 -11 -20 -24 -17 -30 9 -13 12 -12 35 13 36 39 20 54
-18 17z"/>
<path d="M3712 1153 c4 -22 38 -30 38 -10 0 8 -7 18 -16 21 -23 9 -26 8 -22
-11z"/>
<path d="M3838 1163 c7 -3 16 -2 19 1 4 3 -2 6 -13 5 -11 0 -14 -3 -6 -6z"/>
<path d="M2550 1130 c0 -13 11 -13 30 0 12 8 11 10 -7 10 -13 0 -23 -4 -23
-10z"/>
<path d="M2870 1130 c0 -5 9 -10 21 -10 11 0 17 5 14 10 -3 6 -13 10 -21 10
-8 0 -14 -4 -14 -10z"/>
<path d="M3003 1128 c2 -7 10 -13 17 -13 7 0 15 6 18 13 2 7 -5 12 -18 12 -13
0 -20 -5 -17 -12z"/>
<path d="M3892 1129 c-21 -8 -29 -41 -9 -40 4 1 33 1 65 2 53 1 54 2 22 10
-19 4 -44 5 -55 2 -18 -5 -18 -4 -6 11 18 21 12 26 -17 15z"/>
<path d="M2675 1116 c-18 -13 -18 -14 5 -26 20 -11 25 -10 36 5 24 32 -5 47
-41 21z"/>
<path d="M3599 1109 c-7 -14 -7 -25 -1 -31 15 -15 52 9 52 32 0 27 -36 26 -51
-1z"/>
<path d="M4056 1114 c-9 -22 -8 -23 13 -17 12 3 17 11 14 19 -7 19 -19 18 -27
-2z"/>
<path d="M2830 1095 c0 -28 15 -34 24 -9 10 25 7 34 -9 34 -9 0 -15 -9 -15
-25z"/>
<path d="M3425 1089 c-10 -15 0 -21 27 -17 l23 3 -22 13 c-15 8 -24 9 -28 1z"/>
<path d="M2300 1075 c0 -9 5 -15 11 -13 6 2 11 8 11 13 0 5 -5 11 -11 13 -6 2
-11 -4 -11 -13z"/>
<path d="M2940 1080 c0 -5 4 -10 9 -10 6 0 13 5 16 10 3 6 -1 10 -9 10 -9 0
-16 -4 -16 -10z"/>
<path d="M3277 1084 c-9 -10 2 -24 19 -24 8 0 14 7 14 15 0 15 -21 21 -33 9z"/>
<path d="M2383 1054 c-20 -20 -16 -24 25 -24 47 0 72 14 45 25 -32 14 -58 13
-70 -1z"/>
<path d="M2200 1040 c0 -5 9 -10 20 -10 11 0 20 5 20 10 0 6 -9 10 -20 10 -11
0 -20 -4 -20 -10z"/>
</g>
</svg>
